solid ascii
  facet normal 0.000000e+000 0.000000e+000 1.000000e+000
    outer loop
      vertex   -3.000000e+002 6.795586e+001 2.038462e+000
      vertex   -2.960000e+002 6.795586e+001 2.038462e+000
      vertex   -3.000000e+002 6.995586e+001 2.038462e+000
    endloop
  endfacet
  facet normal -0.000000e+000 0.000000e+000 4.472136e-001
    outer loop
      vertex   -3.000000e+002 6.995586e+001 2.038462e+000
      vertex   -2.960000e+002 6.795586e+001 2.038462e+000
      vertex   -2.960000e+002 6.995586e+001 2.038462e+000
    endloop
  endfacet
  facet normal 0.000000e+000 0.000000e+000 -1.000000e+000
    outer loop
      vertex   -2.980000e+002 6.795586e+001 4.038462e+000
      vertex   -3.000000e+002 6.795586e+001 4.038462e+000
      vertex   -2.980000e+002 6.995586e+001 4.038462e+000
    endloop
  endfacet
  facet normal -0.000000e+000 0.000000e+000 -7.071068e-001
    outer loop
      vertex   -2.980000e+002 6.995586e+001 4.038462e+000
      vertex   -3.000000e+002 6.795586e+001 4.038462e+000
      vertex   -3.000000e+002 6.995586e+001 4.038462e+000
    endloop
  endfacet
  facet normal 0.000000e+000 0.000000e+000 -1.000000e+000
    outer loop
      vertex   -2.960000e+002 6.795586e+001 3.038462e+000
      vertex   -2.980000e+002 6.795586e+001 3.038462e+000
      vertex   -2.960000e+002 6.995586e+001 3.038462e+000
    endloop
  endfacet
  facet normal -0.000000e+000 0.000000e+000 -7.071068e-001
    outer loop
      vertex   -2.960000e+002 6.995586e+001 3.038462e+000
      vertex   -2.980000e+002 6.795586e+001 3.038462e+000
      vertex   -2.980000e+002 6.995586e+001 3.038462e+000
    endloop
  endfacet
  facet normal -1.000000e+000 -0.000000e+000 -0.000000e+000
    outer loop
      vertex   -2.980000e+002 6.995586e+001 4.038462e+000
      vertex   -2.980000e+002 6.995586e+001 3.038462e+000
      vertex   -2.980000e+002 6.795586e+001 4.038462e+000
    endloop
  endfacet
  facet normal -8.944272e-001 0.000000e+000 0.000000e+000
    outer loop
      vertex   -2.980000e+002 6.795586e+001 4.038462e+000
      vertex   -2.980000e+002 6.995586e+001 3.038462e+000
      vertex   -2.980000e+002 6.795586e+001 3.038462e+000
    endloop
  endfacet
  facet normal -1.000000e+000 -0.000000e+000 -0.000000e+000
    outer loop
      vertex   -2.960000e+002 6.995586e+001 3.038462e+000
      vertex   -2.960000e+002 6.995586e+001 2.038462e+000
      vertex   -2.960000e+002 6.795586e+001 3.038462e+000
    endloop
  endfacet
  facet normal -8.944272e-001 0.000000e+000 0.000000e+000
    outer loop
      vertex   -2.960000e+002 6.795586e+001 3.038462e+000
      vertex   -2.960000e+002 6.995586e+001 2.038462e+000
      vertex   -2.960000e+002 6.795586e+001 2.038462e+000
    endloop
  endfacet
  facet normal 1.000000e+000 -0.000000e+000 0.000000e+000
    outer loop
      vertex   -3.000000e+002 6.795586e+001 4.038462e+000
      vertex   -3.000000e+002 6.795586e+001 2.038462e+000
      vertex   -3.000000e+002 6.995586e+001 4.038462e+000
    endloop
  endfacet
  facet normal 7.071068e-001 0.000000e+000 0.000000e+000
    outer loop
      vertex   -3.000000e+002 6.995586e+001 4.038462e+000
      vertex   -3.000000e+002 6.795586e+001 2.038462e+000
      vertex   -3.000000e+002 6.995586e+001 2.038462e+000
    endloop
  endfacet
  facet normal -0.000000e+000 -1.000000e+000 -0.000000e+000
    outer loop
      vertex   -2.980000e+002 6.995586e+001 4.038462e+000
      vertex   -3.000000e+002 6.995586e+001 4.038462e+000
      vertex   -2.980000e+002 6.995586e+001 3.038462e+000
    endloop
  endfacet
  facet normal -0.000000e+000 -8.000000e-001 0.000000e+000
    outer loop
      vertex   -2.980000e+002 6.995586e+001 3.038462e+000
      vertex   -3.000000e+002 6.995586e+001 4.038462e+000
      vertex   -3.000000e+002 6.995586e+001 2.038462e+000
    endloop
  endfacet
  facet normal 0.000000e+000 -8.000000e-001 -0.000000e+000
    outer loop
      vertex   -2.980000e+002 6.995586e+001 3.038462e+000
      vertex   -3.000000e+002 6.995586e+001 2.038462e+000
      vertex   -2.960000e+002 6.995586e+001 2.038462e+000
    endloop
  endfacet
  facet normal 0.000000e+000 -8.944272e-001 0.000000e+000
    outer loop
      vertex   -2.960000e+002 6.995586e+001 2.038462e+000
      vertex   -2.960000e+002 6.995586e+001 3.038462e+000
      vertex   -2.980000e+002 6.995586e+001 3.038462e+000
    endloop
  endfacet
  facet normal 0.000000e+000 4.472136e-001 0.000000e+000
    outer loop
      vertex   -2.960000e+002 6.795586e+001 2.038462e+000
      vertex   -3.000000e+002 6.795586e+001 2.038462e+000
      vertex   -2.980000e+002 6.795586e+001 3.038462e+000
    endloop
  endfacet
  facet normal 0.000000e+000 8.000000e-001 0.000000e+000
    outer loop
      vertex   -2.980000e+002 6.795586e+001 3.038462e+000
      vertex   -3.000000e+002 6.795586e+001 2.038462e+000
      vertex   -3.000000e+002 6.795586e+001 4.038462e+000
    endloop
  endfacet
  facet normal 0.000000e+000 8.944272e-001 -0.000000e+000
    outer loop
      vertex   -2.980000e+002 6.795586e+001 3.038462e+000
      vertex   -3.000000e+002 6.795586e+001 4.038462e+000
      vertex   -2.980000e+002 6.795586e+001 4.038462e+000
    endloop
  endfacet
  facet normal -0.000000e+000 4.472136e-001 0.000000e+000
    outer loop
      vertex   -2.980000e+002 6.795586e+001 3.038462e+000
      vertex   -2.960000e+002 6.795586e+001 3.038462e+000
      vertex   -2.960000e+002 6.795586e+001 2.038462e+000
    endloop
  endfacet
  facet normal 1.000000e+000 0.000000e+000 -0.000000e+000
    outer loop
      vertex   -3.000000e+002 6.795586e+001 1.003846e+001
      vertex   -3.000000e+002 6.795586e+001 1.203846e+001
      vertex   -3.000000e+002 6.595586e+001 1.003846e+001
    endloop
  endfacet
  facet normal 7.071068e-001 0.000000e+000 0.000000e+000
    outer loop
      vertex   -3.000000e+002 6.595586e+001 1.003846e+001
      vertex   -3.000000e+002 6.795586e+001 1.203846e+001
      vertex   -3.000000e+002 6.595586e+001 1.203846e+001
    endloop
  endfacet
  facet normal 0.000000e+000 1.000000e+000 0.000000e+000
    outer loop
      vertex   -2.940000e+002 6.795586e+001 3.038462e+000
      vertex   -2.940000e+002 6.795586e+001 4.038462e+000
      vertex   -2.920000e+002 6.795586e+001 3.038462e+000
    endloop
  endfacet
  facet normal 0.000000e+000 8.944272e-001 -0.000000e+000
    outer loop
      vertex   -2.920000e+002 6.795586e+001 3.038462e+000
      vertex   -2.940000e+002 6.795586e+001 4.038462e+000
      vertex   -2.920000e+002 6.795586e+001 4.038462e+000
    endloop
  endfacet
  facet normal -1.000000e+000 -0.000000e+000 -0.000000e+000
    outer loop
      vertex   -3.020000e+002 6.795586e+001 1.203846e+001
      vertex   -3.020000e+002 6.795586e+001 7.038462e+000
      vertex   -3.020000e+002 6.395586e+001 1.203846e+001
    endloop
  endfacet
  facet normal -6.246947e-001 0.000000e+000 0.000000e+000
    outer loop
      vertex   -3.020000e+002 6.395586e+001 1.203846e+001
      vertex   -3.020000e+002 6.795586e+001 7.038462e+000
      vertex   -3.020000e+002 6.395586e+001 3.846151e-002
    endloop
  endfacet
  facet normal -1.883485e-001 0.000000e+000 0.000000e+000
    outer loop
      vertex   -3.020000e+002 6.395586e+001 3.846151e-002
      vertex   -3.020000e+002 6.795586e+001 7.038462e+000
      vertex   -3.020000e+002 6.995586e+001 7.038462e+000
    endloop
  endfacet
  facet normal -3.880572e-001 0.000000e+000 0.000000e+000
    outer loop
      vertex   -3.020000e+002 6.395586e+001 3.846151e-002
      vertex   -3.020000e+002 6.995586e+001 7.038462e+000
      vertex   -3.020000e+002 7.595586e+001 6.038462e+000
    endloop
  endfacet
  facet normal -5.812382e-001 0.000000e+000 0.000000e+000
    outer loop
      vertex   -3.020000e+002 7.595586e+001 6.038462e+000
      vertex   -3.020000e+002 6.995586e+001 7.038462e+000
      vertex   -3.020000e+002 7.395586e+001 8.038462e+000
    endloop
  endfacet
  facet normal -7.071068e-001 0.000000e+000 0.000000e+000
    outer loop
      vertex   -3.020000e+002 7.595586e+001 6.038462e+000
      vertex   -3.020000e+002 7.395586e+001 8.038462e+000
      vertex   -3.020000e+002 7.595586e+001 8.038462e+000
    endloop
  endfacet
  facet normal -8.574929e-001 -0.000000e+000 0.000000e+000
    outer loop
      vertex   -3.020000e+002 7.395586e+001 8.038462e+000
      vertex   -3.020000e+002 6.995586e+001 7.038462e+000
      vertex   -3.020000e+002 7.195586e+001 1.003846e+001
    endloop
  endfacet
  facet normal -9.805807e-001 -0.000000e+000 0.000000e+000
    outer loop
      vertex   -3.020000e+002 7.195586e+001 1.003846e+001
      vertex   -3.020000e+002 6.995586e+001 7.038462e+000
      vertex   -3.020000e+002 6.995586e+001 1.203846e+001
    endloop
  endfacet
  facet normal -7.071068e-001 0.000000e+000 0.000000e+000
    outer loop
      vertex   -3.020000e+002 7.195586e+001 1.003846e+001
      vertex   -3.020000e+002 6.995586e+001 1.203846e+001
      vertex   -3.020000e+002 7.195586e+001 1.203846e+001
    endloop
  endfacet
  facet normal -7.071068e-001 0.000000e+000 0.000000e+000
    outer loop
      vertex   -3.020000e+002 7.195586e+001 1.003846e+001
      vertex   -3.020000e+002 7.395586e+001 1.003846e+001
      vertex   -3.020000e+002 7.395586e+001 8.038462e+000
    endloop
  endfacet
  facet normal -1.000000e+000 -0.000000e+000 -0.000000e+000
    outer loop
      vertex   -3.020000e+002 7.795586e+001 6.038462e+000
      vertex   -3.020000e+002 7.795586e+001 2.038462e+000
      vertex   -3.020000e+002 7.595586e+001 6.038462e+000
    endloop
  endfacet
  facet normal -1.000000e+000 0.000000e+000 -0.000000e+000
    outer loop
      vertex   -3.020000e+002 7.595586e+001 6.038462e+000
      vertex   -3.020000e+002 7.795586e+001 2.038462e+000
      vertex   -3.020000e+002 6.395586e+001 3.846151e-002
    endloop
  endfacet
  facet normal -1.000000e+000 -0.000000e+000 -0.000000e+000
    outer loop
      vertex   -3.020000e+002 8.195586e+001 2.038461e+000
      vertex   -3.020000e+002 8.195586e+001 1.038462e+000
      vertex   -3.020000e+002 7.795586e+001 2.038462e+000
    endloop
  endfacet
  facet normal -3.772970e-001 0.000000e+000 -0.000000e+000
    outer loop
      vertex   -3.020000e+002 7.795586e+001 2.038462e+000
      vertex   -3.020000e+002 8.195586e+001 1.038462e+000
      vertex   -3.020000e+002 6.395586e+001 3.846151e-002
    endloop
  endfacet
  facet normal -1.000000e+000 -0.000000e+000 -0.000000e+000
    outer loop
      vertex   -3.020000e+002 9.595586e+001 1.038462e+000
      vertex   -3.020000e+002 9.595586e+001 3.846151e-002
      vertex   -3.020000e+002 8.195586e+001 1.038462e+000
    endloop
  endfacet
  facet normal -1.264664e-001 0.000000e+000 -0.000000e+000
    outer loop
      vertex   -3.020000e+002 8.195586e+001 1.038462e+000
      vertex   -3.020000e+002 9.595586e+001 3.846151e-002
      vertex   -3.020000e+002 6.395586e+001 3.846151e-002
    endloop
  endfacet
  facet normal 0.000000e+000 0.000000e+000 1.000000e+000
    outer loop
      vertex   -3.000000e+002 6.795586e+001 1.203846e+001
      vertex   -3.020000e+002 6.795586e+001 1.203846e+001
      vertex   -3.000000e+002 6.595586e+001 1.203846e+001
    endloop
  endfacet
  facet normal 0.000000e+000 0.000000e+000 1.000000e+000
    outer loop
      vertex   -3.000000e+002 6.595586e+001 1.203846e+001
      vertex   -3.020000e+002 6.795586e+001 1.203846e+001
      vertex   -3.020000e+002 6.395586e+001 1.203846e+001
    endloop
  endfacet
  facet normal 0.000000e+000 0.000000e+000 1.000000e+000
    outer loop
      vertex   -3.000000e+002 6.595586e+001 1.203846e+001
      vertex   -3.020000e+002 6.395586e+001 1.203846e+001
      vertex   -2.980000e+002 6.395586e+001 1.203846e+001
    endloop
  endfacet
  facet normal 0.000000e+000 -0.000000e+000 7.071075e-001
    outer loop
      vertex   -2.980000e+002 6.395586e+001 1.203846e+001
      vertex   -2.980000e+002 6.595586e+001 1.203846e+001
      vertex   -3.000000e+002 6.595586e+001 1.203846e+001
    endloop
  endfacet
  facet normal 1.000000e+000 0.000000e+000 -0.000000e+000
    outer loop
      vertex   -2.980000e+002 6.595586e+001 1.003846e+001
      vertex   -2.980000e+002 6.595586e+001 1.203846e+001
      vertex   -2.980000e+002 6.395586e+001 1.003846e+001
    endloop
  endfacet
  facet normal 7.071061e-001 0.000000e+000 0.000000e+000
    outer loop
      vertex   -2.980000e+002 6.395586e+001 1.003846e+001
      vertex   -2.980000e+002 6.595586e+001 1.203846e+001
      vertex   -2.980000e+002 6.395586e+001 1.203846e+001
    endloop
  endfacet
  facet normal 0.000000e+000 1.000000e+000 0.000000e+000
    outer loop
      vertex   -3.000000e+002 6.595586e+001 1.003846e+001
      vertex   -3.000000e+002 6.595586e+001 1.203846e+001
      vertex   -2.980000e+002 6.595586e+001 1.003846e+001
    endloop
  endfacet
  facet normal 0.000000e+000 7.071068e-001 -0.000000e+000
    outer loop
      vertex   -2.980000e+002 6.595586e+001 1.003846e+001
      vertex   -3.000000e+002 6.595586e+001 1.203846e+001
      vertex   -2.980000e+002 6.595586e+001 1.203846e+001
    endloop
  endfacet
  facet normal 1.000000e+000 0.000000e+000 -0.000000e+000
    outer loop
      vertex   -2.940000e+002 6.595586e+001 6.038462e+000
      vertex   -2.940000e+002 6.595586e+001 8.038462e+000
      vertex   -2.940000e+002 6.395586e+001 6.038462e+000
    endloop
  endfacet
  facet normal 7.071061e-001 0.000000e+000 0.000000e+000
    outer loop
      vertex   -2.940000e+002 6.395586e+001 6.038462e+000
      vertex   -2.940000e+002 6.595586e+001 8.038462e+000
      vertex   -2.940000e+002 6.395586e+001 8.038462e+000
    endloop
  endfacet
  facet normal 0.000000e+000 1.000000e+000 0.000000e+000
    outer loop
      vertex   -2.960000e+002 6.595586e+001 6.038462e+000
      vertex   -2.960000e+002 6.595586e+001 8.038462e+000
      vertex   -2.940000e+002 6.595586e+001 6.038462e+000
    endloop
  endfacet
  facet normal 0.000000e+000 7.071068e-001 -0.000000e+000
    outer loop
      vertex   -2.940000e+002 6.595586e+001 6.038462e+000
      vertex   -2.960000e+002 6.595586e+001 8.038462e+000
      vertex   -2.940000e+002 6.595586e+001 8.038462e+000
    endloop
  endfacet
  facet normal -0.000000e+000 -1.000000e+000 -0.000000e+000
    outer loop
      vertex   -2.920000e+002 6.395586e+001 6.038462e+000
      vertex   -2.940000e+002 6.395586e+001 6.038462e+000
      vertex   -2.920000e+002 6.395586e+001 2.038462e+000
    endloop
  endfacet
  facet normal -0.000000e+000 -9.647638e-001 0.000000e+000
    outer loop
      vertex   -2.920000e+002 6.395586e+001 2.038462e+000
      vertex   -2.940000e+002 6.395586e+001 6.038462e+000
      vertex   -3.020000e+002 6.395586e+001 3.846151e-002
    endloop
  endfacet
  facet normal 0.000000e+000 -3.546543e-001 -0.000000e+000
    outer loop
      vertex   -2.920000e+002 6.395586e+001 2.038462e+000
      vertex   -3.020000e+002 6.395586e+001 3.846151e-002
      vertex   -2.800000e+002 6.395586e+001 3.846151e-002
    endloop
  endfacet
  facet normal -0.000000e+000 -1.000000e+000 -0.000000e+000
    outer loop
      vertex   -2.940000e+002 6.395586e+001 8.038462e+000
      vertex   -2.960000e+002 6.395586e+001 8.038462e+000
      vertex   -2.940000e+002 6.395586e+001 6.038462e+000
    endloop
  endfacet
  facet normal -0.000000e+000 -9.899495e-001 0.000000e+000
    outer loop
      vertex   -2.940000e+002 6.395586e+001 6.038462e+000
      vertex   -2.960000e+002 6.395586e+001 8.038462e+000
      vertex   -3.020000e+002 6.395586e+001 3.846151e-002
    endloop
  endfacet
  facet normal -0.000000e+000 -1.000000e+000 -0.000000e+000
    outer loop
      vertex   -2.960000e+002 6.395586e+001 1.003846e+001
      vertex   -2.980000e+002 6.395586e+001 1.003846e+001
      vertex   -2.960000e+002 6.395586e+001 8.038462e+000
    endloop
  endfacet
  facet normal -0.000000e+000 -9.899495e-001 0.000000e+000
    outer loop
      vertex   -2.960000e+002 6.395586e+001 8.038462e+000
      vertex   -2.980000e+002 6.395586e+001 1.003846e+001
      vertex   -3.020000e+002 6.395586e+001 3.846151e-002
    endloop
  endfacet
  facet normal -0.000000e+000 -1.000000e+000 -0.000000e+000
    outer loop
      vertex   -2.980000e+002 6.395586e+001 1.203846e+001
      vertex   -3.020000e+002 6.395586e+001 1.203846e+001
      vertex   -2.980000e+002 6.395586e+001 1.003846e+001
    endloop
  endfacet
  facet normal -0.000000e+000 -9.965457e-001 0.000000e+000
    outer loop
      vertex   -2.980000e+002 6.395586e+001 1.003846e+001
      vertex   -3.020000e+002 6.395586e+001 1.203846e+001
      vertex   -3.020000e+002 6.395586e+001 3.846151e-002
    endloop
  endfacet
  facet normal 0.000000e+000 -7.071068e-001 -0.000000e+000
    outer loop
      vertex   -2.800000e+002 6.395586e+001 8.038462e+000
      vertex   -2.820000e+002 6.395586e+001 6.038462e+000
      vertex   -2.800000e+002 6.395586e+001 3.846151e-002
    endloop
  endfacet
  facet normal 0.000000e+000 -7.071068e-001 0.000000e+000
    outer loop
      vertex   -2.800000e+002 6.395586e+001 3.846151e-002
      vertex   -2.820000e+002 6.395586e+001 6.038462e+000
      vertex   -2.840000e+002 6.395586e+001 2.038461e+000
    endloop
  endfacet
  facet normal 0.000000e+000 -2.940858e-001 0.000000e+000
    outer loop
      vertex   -2.800000e+002 6.395586e+001 3.846151e-002
      vertex   -2.840000e+002 6.395586e+001 2.038461e+000
      vertex   -2.920000e+002 6.395586e+001 2.038462e+000
    endloop
  endfacet
  facet normal -0.000000e+000 -7.071068e-001 0.000000e+000
    outer loop
      vertex   -2.800000e+002 6.395586e+001 8.038462e+000
      vertex   -2.820000e+002 6.395586e+001 8.038462e+000
      vertex   -2.820000e+002 6.395586e+001 6.038462e+000
    endloop
  endfacet
  facet normal -0.000000e+000 -8.944272e-001 0.000000e+000
    outer loop
      vertex   -2.820000e+002 6.395586e+001 6.038462e+000
      vertex   -2.840000e+002 6.395586e+001 6.038462e+000
      vertex   -2.840000e+002 6.395586e+001 2.038461e+000
    endloop
  endfacet
  facet normal 0.000000e+000 0.000000e+000 1.000000e+000
    outer loop
      vertex   -2.940000e+002 6.595586e+001 8.038462e+000
      vertex   -2.960000e+002 6.595586e+001 8.038462e+000
      vertex   -2.940000e+002 6.395586e+001 8.038462e+000
    endloop
  endfacet
  facet normal 0.000000e+000 0.000000e+000 7.071061e-001
    outer loop
      vertex   -2.940000e+002 6.395586e+001 8.038462e+000
      vertex   -2.960000e+002 6.595586e+001 8.038462e+000
      vertex   -2.960000e+002 6.395586e+001 8.038462e+000
    endloop
  endfacet
  facet normal 0.000000e+000 0.000000e+000 1.000000e+000
    outer loop
      vertex   -2.940000e+002 6.795586e+001 6.038462e+000
      vertex   -2.960000e+002 6.795586e+001 6.038462e+000
      vertex   -2.940000e+002 6.595586e+001 6.038462e+000
    endloop
  endfacet
  facet normal 0.000000e+000 0.000000e+000 7.071068e-001
    outer loop
      vertex   -2.940000e+002 6.595586e+001 6.038462e+000
      vertex   -2.960000e+002 6.795586e+001 6.038462e+000
      vertex   -2.960000e+002 6.595586e+001 6.038462e+000
    endloop
  endfacet
  facet normal 1.000000e+000 0.000000e+000 -0.000000e+000
    outer loop
      vertex   -2.940000e+002 6.795586e+001 4.038462e+000
      vertex   -2.940000e+002 6.795586e+001 6.038462e+000
      vertex   -2.940000e+002 6.595586e+001 4.038462e+000
    endloop
  endfacet
  facet normal 7.071068e-001 0.000000e+000 0.000000e+000
    outer loop
      vertex   -2.940000e+002 6.595586e+001 4.038462e+000
      vertex   -2.940000e+002 6.795586e+001 6.038462e+000
      vertex   -2.940000e+002 6.595586e+001 6.038462e+000
    endloop
  endfacet
  facet normal 1.000000e+000 0.000000e+000 0.000000e+000
    outer loop
      vertex   -2.920000e+002 6.595586e+001 6.038462e+000
      vertex   -2.920000e+002 6.395586e+001 6.038462e+000
      vertex   -2.920000e+002 6.595586e+001 4.038462e+000
    endloop
  endfacet
  facet normal 1.000000e+000 0.000000e+000 0.000000e+000
    outer loop
      vertex   -2.920000e+002 6.595586e+001 4.038462e+000
      vertex   -2.920000e+002 6.395586e+001 6.038462e+000
      vertex   -2.920000e+002 6.395586e+001 2.038462e+000
    endloop
  endfacet
  facet normal 9.486836e-001 0.000000e+000 0.000000e+000
    outer loop
      vertex   -2.920000e+002 6.595586e+001 4.038462e+000
      vertex   -2.920000e+002 6.395586e+001 2.038462e+000
      vertex   -2.920000e+002 6.795586e+001 3.038462e+000
    endloop
  endfacet
  facet normal 4.705884e-001 0.000000e+000 0.000000e+000
    outer loop
      vertex   -2.920000e+002 6.795586e+001 3.038462e+000
      vertex   -2.920000e+002 6.395586e+001 2.038462e+000
      vertex   -2.920000e+002 7.195586e+001 2.038462e+000
    endloop
  endfacet
  facet normal 2.425356e-001 -0.000000e+000 0.000000e+000
    outer loop
      vertex   -2.920000e+002 6.795586e+001 3.038462e+000
      vertex   -2.920000e+002 7.195586e+001 2.038462e+000
      vertex   -2.920000e+002 6.995586e+001 3.038462e+000
    endloop
  endfacet
  facet normal 8.000000e-001 -0.000000e+000 0.000000e+000
    outer loop
      vertex   -2.920000e+002 6.995586e+001 3.038462e+000
      vertex   -2.920000e+002 7.195586e+001 2.038462e+000
      vertex   -2.920000e+002 7.195586e+001 4.038462e+000
    endloop
  endfacet
  facet normal 8.944272e-001 0.000000e+000 0.000000e+000
    outer loop
      vertex   -2.920000e+002 6.995586e+001 3.038462e+000
      vertex   -2.920000e+002 7.195586e+001 4.038462e+000
      vertex   -2.920000e+002 6.995586e+001 4.038462e+000
    endloop
  endfacet
  facet normal 8.944272e-001 0.000000e+000 -0.000000e+000
    outer loop
      vertex   -2.920000e+002 6.795586e+001 3.038462e+000
      vertex   -2.920000e+002 6.795586e+001 4.038462e+000
      vertex   -2.920000e+002 6.595586e+001 4.038462e+000
    endloop
  endfacet
  facet normal 0.000000e+000 1.000000e+000 0.000000e+000
    outer loop
      vertex   -2.940000e+002 6.595586e+001 4.038462e+000
      vertex   -2.940000e+002 6.595586e+001 6.038462e+000
      vertex   -2.920000e+002 6.595586e+001 4.038462e+000
    endloop
  endfacet
  facet normal 0.000000e+000 7.071068e-001 -0.000000e+000
    outer loop
      vertex   -2.920000e+002 6.595586e+001 4.038462e+000
      vertex   -2.940000e+002 6.595586e+001 6.038462e+000
      vertex   -2.920000e+002 6.595586e+001 6.038462e+000
    endloop
  endfacet
  facet normal 0.000000e+000 0.000000e+000 1.000000e+000
    outer loop
      vertex   -2.920000e+002 6.595586e+001 6.038462e+000
      vertex   -2.940000e+002 6.595586e+001 6.038462e+000
      vertex   -2.920000e+002 6.395586e+001 6.038462e+000
    endloop
  endfacet
  facet normal 0.000000e+000 0.000000e+000 7.071061e-001
    outer loop
      vertex   -2.920000e+002 6.395586e+001 6.038462e+000
      vertex   -2.940000e+002 6.595586e+001 6.038462e+000
      vertex   -2.940000e+002 6.395586e+001 6.038462e+000
    endloop
  endfacet
  facet normal 0.000000e+000 0.000000e+000 1.000000e+000
    outer loop
      vertex   -2.920000e+002 6.795586e+001 4.038462e+000
      vertex   -2.940000e+002 6.795586e+001 4.038462e+000
      vertex   -2.920000e+002 6.595586e+001 4.038462e+000
    endloop
  endfacet
  facet normal 0.000000e+000 0.000000e+000 7.071068e-001
    outer loop
      vertex   -2.920000e+002 6.595586e+001 4.038462e+000
      vertex   -2.940000e+002 6.795586e+001 4.038462e+000
      vertex   -2.940000e+002 6.595586e+001 4.038462e+000
    endloop
  endfacet
  facet normal 1.000000e+000 0.000000e+000 -0.000000e+000
    outer loop
      vertex   -2.960000e+002 6.795586e+001 6.038462e+000
      vertex   -2.960000e+002 6.795586e+001 8.038462e+000
      vertex   -2.960000e+002 6.595586e+001 6.038462e+000
    endloop
  endfacet
  facet normal 7.071068e-001 0.000000e+000 0.000000e+000
    outer loop
      vertex   -2.960000e+002 6.595586e+001 6.038462e+000
      vertex   -2.960000e+002 6.795586e+001 8.038462e+000
      vertex   -2.960000e+002 6.595586e+001 8.038462e+000
    endloop
  endfacet
  facet normal 0.000000e+000 0.000000e+000 1.000000e+000
    outer loop
      vertex   -2.960000e+002 6.795586e+001 8.038462e+000
      vertex   -2.980000e+002 6.795586e+001 8.038462e+000
      vertex   -2.960000e+002 6.595586e+001 8.038462e+000
    endloop
  endfacet
  facet normal 0.000000e+000 0.000000e+000 7.071068e-001
    outer loop
      vertex   -2.960000e+002 6.595586e+001 8.038462e+000
      vertex   -2.980000e+002 6.795586e+001 8.038462e+000
      vertex   -2.980000e+002 6.595586e+001 8.038462e+000
    endloop
  endfacet
  facet normal 0.000000e+000 0.000000e+000 1.000000e+000
    outer loop
      vertex   -2.960000e+002 6.595586e+001 1.003846e+001
      vertex   -2.980000e+002 6.595586e+001 1.003846e+001
      vertex   -2.960000e+002 6.395586e+001 1.003846e+001
    endloop
  endfacet
  facet normal 0.000000e+000 0.000000e+000 7.071061e-001
    outer loop
      vertex   -2.960000e+002 6.395586e+001 1.003846e+001
      vertex   -2.980000e+002 6.595586e+001 1.003846e+001
      vertex   -2.980000e+002 6.395586e+001 1.003846e+001
    endloop
  endfacet
  facet normal 1.000000e+000 0.000000e+000 -0.000000e+000
    outer loop
      vertex   -2.960000e+002 6.595586e+001 8.038462e+000
      vertex   -2.960000e+002 6.595586e+001 1.003846e+001
      vertex   -2.960000e+002 6.395586e+001 8.038462e+000
    endloop
  endfacet
  facet normal 7.071061e-001 0.000000e+000 0.000000e+000
    outer loop
      vertex   -2.960000e+002 6.395586e+001 8.038462e+000
      vertex   -2.960000e+002 6.595586e+001 1.003846e+001
      vertex   -2.960000e+002 6.395586e+001 1.003846e+001
    endloop
  endfacet
  facet normal 0.000000e+000 1.000000e+000 0.000000e+000
    outer loop
      vertex   -2.980000e+002 6.595586e+001 8.038462e+000
      vertex   -2.980000e+002 6.595586e+001 1.003846e+001
      vertex   -2.960000e+002 6.595586e+001 8.038462e+000
    endloop
  endfacet
  facet normal 0.000000e+000 7.071068e-001 -0.000000e+000
    outer loop
      vertex   -2.960000e+002 6.595586e+001 8.038462e+000
      vertex   -2.980000e+002 6.595586e+001 1.003846e+001
      vertex   -2.960000e+002 6.595586e+001 1.003846e+001
    endloop
  endfacet
  facet normal 0.000000e+000 0.000000e+000 1.000000e+000
    outer loop
      vertex   -2.980000e+002 6.795586e+001 1.003846e+001
      vertex   -3.000000e+002 6.795586e+001 1.003846e+001
      vertex   -2.980000e+002 6.595586e+001 1.003846e+001
    endloop
  endfacet
  facet normal 0.000000e+000 0.000000e+000 7.071068e-001
    outer loop
      vertex   -2.980000e+002 6.595586e+001 1.003846e+001
      vertex   -3.000000e+002 6.795586e+001 1.003846e+001
      vertex   -3.000000e+002 6.595586e+001 1.003846e+001
    endloop
  endfacet
  facet normal 1.000000e+000 0.000000e+000 -0.000000e+000
    outer loop
      vertex   -2.980000e+002 6.795586e+001 8.038462e+000
      vertex   -2.980000e+002 6.795586e+001 1.003846e+001
      vertex   -2.980000e+002 6.595586e+001 8.038462e+000
    endloop
  endfacet
  facet normal 7.071068e-001 0.000000e+000 0.000000e+000
    outer loop
      vertex   -2.980000e+002 6.595586e+001 8.038462e+000
      vertex   -2.980000e+002 6.795586e+001 1.003846e+001
      vertex   -2.980000e+002 6.595586e+001 1.003846e+001
    endloop
  endfacet
  facet normal 0.000000e+000 1.000000e+000 0.000000e+000
    outer loop
      vertex   -2.960000e+002 6.795586e+001 4.038462e+000
      vertex   -2.960000e+002 6.795586e+001 5.038462e+000
      vertex   -2.940000e+002 6.795586e+001 4.038462e+000
    endloop
  endfacet
  facet normal 0.000000e+000 8.944272e-001 -0.000000e+000
    outer loop
      vertex   -2.940000e+002 6.795586e+001 4.038462e+000
      vertex   -2.960000e+002 6.795586e+001 5.038462e+000
      vertex   -2.940000e+002 6.795586e+001 6.038462e+000
    endloop
  endfacet
  facet normal 0.000000e+000 4.472136e-001 0.000000e+000
    outer loop
      vertex   -2.940000e+002 6.795586e+001 6.038462e+000
      vertex   -2.960000e+002 6.795586e+001 5.038462e+000
      vertex   -2.960000e+002 6.795586e+001 6.038462e+000
    endloop
  endfacet
  facet normal 0.000000e+000 8.944272e-001 0.000000e+000
    outer loop
      vertex   -2.960000e+002 6.795586e+001 6.038462e+000
      vertex   -2.960000e+002 6.795586e+001 5.038462e+000
      vertex   -2.980000e+002 6.795586e+001 5.038462e+000
    endloop
  endfacet
  facet normal 0.000000e+000 4.472136e-001 0.000000e+000
    outer loop
      vertex   -2.960000e+002 6.795586e+001 6.038462e+000
      vertex   -2.980000e+002 6.795586e+001 5.038462e+000
      vertex   -2.980000e+002 6.795586e+001 6.038462e+000
    endloop
  endfacet
  facet normal 0.000000e+000 1.000000e+000 0.000000e+000
    outer loop
      vertex   -3.000000e+002 6.795586e+001 6.038462e+000
      vertex   -3.000000e+002 6.795586e+001 7.038462e+000
      vertex   -2.980000e+002 6.795586e+001 6.038462e+000
    endloop
  endfacet
  facet normal 0.000000e+000 8.944272e-001 -0.000000e+000
    outer loop
      vertex   -2.980000e+002 6.795586e+001 6.038462e+000
      vertex   -3.000000e+002 6.795586e+001 7.038462e+000
      vertex   -2.980000e+002 6.795586e+001 8.038462e+000
    endloop
  endfacet
  facet normal 0.000000e+000 1.000000e+000 0.000000e+000
    outer loop
      vertex   -2.980000e+002 6.795586e+001 6.038462e+000
      vertex   -2.980000e+002 6.795586e+001 8.038462e+000
      vertex   -2.960000e+002 6.795586e+001 6.038462e+000
    endloop
  endfacet
  facet normal 0.000000e+000 7.071068e-001 -0.000000e+000
    outer loop
      vertex   -2.960000e+002 6.795586e+001 6.038462e+000
      vertex   -2.980000e+002 6.795586e+001 8.038462e+000
      vertex   -2.960000e+002 6.795586e+001 8.038462e+000
    endloop
  endfacet
  facet normal 0.000000e+000 9.486833e-001 0.000000e+000
    outer loop
      vertex   -2.980000e+002 6.795586e+001 8.038462e+000
      vertex   -3.000000e+002 6.795586e+001 7.038462e+000
      vertex   -3.000000e+002 6.795586e+001 1.003846e+001
    endloop
  endfacet
  facet normal 0.000000e+000 5.547002e-001 0.000000e+000
    outer loop
      vertex   -3.000000e+002 6.795586e+001 1.003846e+001
      vertex   -3.000000e+002 6.795586e+001 7.038462e+000
      vertex   -3.020000e+002 6.795586e+001 7.038462e+000
    endloop
  endfacet
  facet normal 0.000000e+000 9.805807e-001 0.000000e+000
    outer loop
      vertex   -3.000000e+002 6.795586e+001 1.003846e+001
      vertex   -3.020000e+002 6.795586e+001 7.038462e+000
      vertex   -3.020000e+002 6.795586e+001 1.203846e+001
    endloop
  endfacet
  facet normal -0.000000e+000 7.071068e-001 0.000000e+000
    outer loop
      vertex   -3.020000e+002 6.795586e+001 1.203846e+001
      vertex   -3.000000e+002 6.795586e+001 1.203846e+001
      vertex   -3.000000e+002 6.795586e+001 1.003846e+001
    endloop
  endfacet
  facet normal -0.000000e+000 7.071068e-001 0.000000e+000
    outer loop
      vertex   -3.000000e+002 6.795586e+001 1.003846e+001
      vertex   -2.980000e+002 6.795586e+001 1.003846e+001
      vertex   -2.980000e+002 6.795586e+001 8.038462e+000
    endloop
  endfacet
  facet normal 0.000000e+000 1.000000e+000 0.000000e+000
    outer loop
      vertex   -2.920000e+002 7.195586e+001 4.038462e+000
      vertex   -2.920000e+002 7.195586e+001 2.038462e+000
      vertex   -2.940000e+002 7.195586e+001 4.038462e+000
    endloop
  endfacet
  facet normal 0.000000e+000 9.486833e-001 0.000000e+000
    outer loop
      vertex   -2.940000e+002 7.195586e+001 4.038462e+000
      vertex   -2.920000e+002 7.195586e+001 2.038462e+000
      vertex   -2.980000e+002 7.195586e+001 2.038462e+000
    endloop
  endfacet
  facet normal 0.000000e+000 9.486833e-001 0.000000e+000
    outer loop
      vertex   -2.940000e+002 7.195586e+001 4.038462e+000
      vertex   -2.980000e+002 7.195586e+001 2.038462e+000
      vertex   -2.960000e+002 7.195586e+001 6.038462e+000
    endloop
  endfacet
  facet normal 0.000000e+000 9.486833e-001 0.000000e+000
    outer loop
      vertex   -2.960000e+002 7.195586e+001 6.038462e+000
      vertex   -2.980000e+002 7.195586e+001 2.038462e+000
      vertex   -2.980000e+002 7.195586e+001 8.038462e+000
    endloop
  endfacet
  facet normal 0.000000e+000 7.071068e-001 -0.000000e+000
    outer loop
      vertex   -2.960000e+002 7.195586e+001 6.038462e+000
      vertex   -2.980000e+002 7.195586e+001 8.038462e+000
      vertex   -2.960000e+002 7.195586e+001 8.038462e+000
    endloop
  endfacet
  facet normal -0.000000e+000 7.071068e-001 0.000000e+000
    outer loop
      vertex   -2.960000e+002 7.195586e+001 6.038462e+000
      vertex   -2.940000e+002 7.195586e+001 6.038462e+000
      vertex   -2.940000e+002 7.195586e+001 4.038462e+000
    endloop
  endfacet
  facet normal 0.000000e+000 0.000000e+000 1.000000e+000
    outer loop
      vertex   -2.920000e+002 7.195586e+001 4.038462e+000
      vertex   -2.940000e+002 7.195586e+001 4.038462e+000
      vertex   -2.920000e+002 6.995586e+001 4.038462e+000
    endloop
  endfacet
  facet normal 0.000000e+000 0.000000e+000 7.071068e-001
    outer loop
      vertex   -2.920000e+002 6.995586e+001 4.038462e+000
      vertex   -2.940000e+002 7.195586e+001 4.038462e+000
      vertex   -2.940000e+002 6.995586e+001 4.038462e+000
    endloop
  endfacet
  facet normal 0.000000e+000 0.000000e+000 1.000000e+000
    outer loop
      vertex   -2.940000e+002 7.195586e+001 6.038462e+000
      vertex   -2.960000e+002 7.195586e+001 6.038462e+000
      vertex   -2.940000e+002 6.995586e+001 6.038462e+000
    endloop
  endfacet
  facet normal 0.000000e+000 0.000000e+000 7.071068e-001
    outer loop
      vertex   -2.940000e+002 6.995586e+001 6.038462e+000
      vertex   -2.960000e+002 7.195586e+001 6.038462e+000
      vertex   -2.960000e+002 6.995586e+001 6.038462e+000
    endloop
  endfacet
  facet normal 1.000000e+000 0.000000e+000 -0.000000e+000
    outer loop
      vertex   -2.940000e+002 7.195586e+001 4.038462e+000
      vertex   -2.940000e+002 7.195586e+001 6.038462e+000
      vertex   -2.940000e+002 6.995586e+001 4.038462e+000
    endloop
  endfacet
  facet normal 7.071068e-001 0.000000e+000 0.000000e+000
    outer loop
      vertex   -2.940000e+002 6.995586e+001 4.038462e+000
      vertex   -2.940000e+002 7.195586e+001 6.038462e+000
      vertex   -2.940000e+002 6.995586e+001 6.038462e+000
    endloop
  endfacet
  facet normal 0.000000e+000 1.000000e+000 0.000000e+000
    outer loop
      vertex   -3.000000e+002 7.795586e+001 6.038462e+000
      vertex   -3.000000e+002 7.795586e+001 2.038462e+000
      vertex   -3.020000e+002 7.795586e+001 6.038462e+000
    endloop
  endfacet
  facet normal 0.000000e+000 4.472136e-001 0.000000e+000
    outer loop
      vertex   -3.020000e+002 7.795586e+001 6.038462e+000
      vertex   -3.000000e+002 7.795586e+001 2.038462e+000
      vertex   -3.020000e+002 7.795586e+001 2.038462e+000
    endloop
  endfacet
  facet normal 0.000000e+000 0.000000e+000 1.000000e+000
    outer loop
      vertex   -3.000000e+002 7.795586e+001 6.038462e+000
      vertex   -3.020000e+002 7.795586e+001 6.038462e+000
      vertex   -3.000000e+002 7.595586e+001 6.038462e+000
    endloop
  endfacet
  facet normal 0.000000e+000 0.000000e+000 7.071068e-001
    outer loop
      vertex   -3.000000e+002 7.595586e+001 6.038462e+000
      vertex   -3.020000e+002 7.795586e+001 6.038462e+000
      vertex   -3.020000e+002 7.595586e+001 6.038462e+000
    endloop
  endfacet
  facet normal 1.000000e+000 0.000000e+000 -0.000000e+000
    outer loop
      vertex   -3.000000e+002 7.195586e+001 1.003846e+001
      vertex   -3.000000e+002 7.195586e+001 1.203846e+001
      vertex   -3.000000e+002 6.995586e+001 1.003846e+001
    endloop
  endfacet
  facet normal 7.071068e-001 0.000000e+000 0.000000e+000
    outer loop
      vertex   -3.000000e+002 6.995586e+001 1.003846e+001
      vertex   -3.000000e+002 7.195586e+001 1.203846e+001
      vertex   -3.000000e+002 6.995586e+001 1.203846e+001
    endloop
  endfacet
  facet normal 0.000000e+000 1.000000e+000 0.000000e+000
    outer loop
      vertex   -3.020000e+002 7.195586e+001 1.003846e+001
      vertex   -3.020000e+002 7.195586e+001 1.203846e+001
      vertex   -3.000000e+002 7.195586e+001 1.003846e+001
    endloop
  endfacet
  facet normal 0.000000e+000 7.071068e-001 -0.000000e+000
    outer loop
      vertex   -3.000000e+002 7.195586e+001 1.003846e+001
      vertex   -3.020000e+002 7.195586e+001 1.203846e+001
      vertex   -3.000000e+002 7.195586e+001 1.203846e+001
    endloop
  endfacet
  facet normal 0.000000e+000 0.000000e+000 1.000000e+000
    outer loop
      vertex   -3.000000e+002 7.195586e+001 1.203846e+001
      vertex   -3.020000e+002 7.195586e+001 1.203846e+001
      vertex   -3.000000e+002 6.995586e+001 1.203846e+001
    endloop
  endfacet
  facet normal 0.000000e+000 0.000000e+000 7.071068e-001
    outer loop
      vertex   -3.000000e+002 6.995586e+001 1.203846e+001
      vertex   -3.020000e+002 7.195586e+001 1.203846e+001
      vertex   -3.020000e+002 6.995586e+001 1.203846e+001
    endloop
  endfacet
  facet normal 0.000000e+000 1.000000e+000 0.000000e+000
    outer loop
      vertex   -3.020000e+002 7.395586e+001 8.038462e+000
      vertex   -3.020000e+002 7.395586e+001 1.003846e+001
      vertex   -3.000000e+002 7.395586e+001 8.038462e+000
    endloop
  endfacet
  facet normal 0.000000e+000 7.071068e-001 -0.000000e+000
    outer loop
      vertex   -3.000000e+002 7.395586e+001 8.038462e+000
      vertex   -3.020000e+002 7.395586e+001 1.003846e+001
      vertex   -3.000000e+002 7.395586e+001 1.003846e+001
    endloop
  endfacet
  facet normal 0.000000e+000 0.000000e+000 1.000000e+000
    outer loop
      vertex   -3.000000e+002 7.395586e+001 1.003846e+001
      vertex   -3.020000e+002 7.395586e+001 1.003846e+001
      vertex   -3.000000e+002 7.195586e+001 1.003846e+001
    endloop
  endfacet
  facet normal 0.000000e+000 0.000000e+000 7.071068e-001
    outer loop
      vertex   -3.000000e+002 7.195586e+001 1.003846e+001
      vertex   -3.020000e+002 7.395586e+001 1.003846e+001
      vertex   -3.020000e+002 7.195586e+001 1.003846e+001
    endloop
  endfacet
  facet normal 0.000000e+000 0.000000e+000 1.000000e+000
    outer loop
      vertex   -3.000000e+002 7.595586e+001 8.038462e+000
      vertex   -3.020000e+002 7.595586e+001 8.038462e+000
      vertex   -3.000000e+002 7.395586e+001 8.038462e+000
    endloop
  endfacet
  facet normal 0.000000e+000 0.000000e+000 7.071068e-001
    outer loop
      vertex   -3.000000e+002 7.395586e+001 8.038462e+000
      vertex   -3.020000e+002 7.595586e+001 8.038462e+000
      vertex   -3.020000e+002 7.395586e+001 8.038462e+000
    endloop
  endfacet
  facet normal 0.000000e+000 1.000000e+000 0.000000e+000
    outer loop
      vertex   -3.020000e+002 7.595586e+001 6.038462e+000
      vertex   -3.020000e+002 7.595586e+001 8.038462e+000
      vertex   -3.000000e+002 7.595586e+001 6.038462e+000
    endloop
  endfacet
  facet normal 0.000000e+000 7.071068e-001 -0.000000e+000
    outer loop
      vertex   -3.000000e+002 7.595586e+001 6.038462e+000
      vertex   -3.020000e+002 7.595586e+001 8.038462e+000
      vertex   -3.000000e+002 7.595586e+001 8.038462e+000
    endloop
  endfacet
  facet normal 1.000000e+000 -0.000000e+000 0.000000e+000
    outer loop
      vertex   -3.000000e+002 7.395586e+001 8.038462e+000
      vertex   -3.000000e+002 7.395586e+001 6.038462e+000
      vertex   -3.000000e+002 7.595586e+001 8.038462e+000
    endloop
  endfacet
  facet normal 7.071068e-001 0.000000e+000 0.000000e+000
    outer loop
      vertex   -3.000000e+002 7.595586e+001 8.038462e+000
      vertex   -3.000000e+002 7.395586e+001 6.038462e+000
      vertex   -3.000000e+002 7.595586e+001 6.038462e+000
    endloop
  endfacet
  facet normal 0.000000e+000 1.000000e+000 0.000000e+000
    outer loop
      vertex   -3.000000e+002 7.195586e+001 8.038462e+000
      vertex   -3.000000e+002 7.195586e+001 1.003846e+001
      vertex   -2.980000e+002 7.195586e+001 8.038462e+000
    endloop
  endfacet
  facet normal 0.000000e+000 7.071068e-001 -0.000000e+000
    outer loop
      vertex   -2.980000e+002 7.195586e+001 8.038462e+000
      vertex   -3.000000e+002 7.195586e+001 1.003846e+001
      vertex   -2.980000e+002 7.195586e+001 1.003846e+001
    endloop
  endfacet
  facet normal 0.000000e+000 0.000000e+000 1.000000e+000
    outer loop
      vertex   -2.980000e+002 7.195586e+001 1.003846e+001
      vertex   -3.000000e+002 7.195586e+001 1.003846e+001
      vertex   -2.980000e+002 6.995586e+001 1.003846e+001
    endloop
  endfacet
  facet normal 0.000000e+000 0.000000e+000 7.071068e-001
    outer loop
      vertex   -2.980000e+002 6.995586e+001 1.003846e+001
      vertex   -3.000000e+002 7.195586e+001 1.003846e+001
      vertex   -3.000000e+002 6.995586e+001 1.003846e+001
    endloop
  endfacet
  facet normal 1.000000e+000 -0.000000e+000 0.000000e+000
    outer loop
      vertex   -3.000000e+002 7.595586e+001 6.038462e+000
      vertex   -3.000000e+002 7.595586e+001 2.038462e+000
      vertex   -3.000000e+002 7.795586e+001 6.038462e+000
    endloop
  endfacet
  facet normal 4.472136e-001 0.000000e+000 0.000000e+000
    outer loop
      vertex   -3.000000e+002 7.795586e+001 6.038462e+000
      vertex   -3.000000e+002 7.595586e+001 2.038462e+000
      vertex   -3.000000e+002 7.795586e+001 2.038462e+000
    endloop
  endfacet
  facet normal 1.000000e+000 0.000000e+000 -0.000000e+000
    outer loop
      vertex   -2.980000e+002 7.195586e+001 8.038462e+000
      vertex   -2.980000e+002 7.195586e+001 1.003846e+001
      vertex   -2.980000e+002 6.995586e+001 8.038462e+000
    endloop
  endfacet
  facet normal 7.071068e-001 0.000000e+000 0.000000e+000
    outer loop
      vertex   -2.980000e+002 6.995586e+001 8.038462e+000
      vertex   -2.980000e+002 7.195586e+001 1.003846e+001
      vertex   -2.980000e+002 6.995586e+001 1.003846e+001
    endloop
  endfacet
  facet normal 0.000000e+000 1.000000e+000 0.000000e+000
    outer loop
      vertex   -2.980000e+002 7.595586e+001 6.038462e+000
      vertex   -2.980000e+002 7.595586e+001 2.038462e+000
      vertex   -3.000000e+002 7.595586e+001 6.038462e+000
    endloop
  endfacet
  facet normal 0.000000e+000 4.472136e-001 0.000000e+000
    outer loop
      vertex   -3.000000e+002 7.595586e+001 6.038462e+000
      vertex   -2.980000e+002 7.595586e+001 2.038462e+000
      vertex   -3.000000e+002 7.595586e+001 2.038462e+000
    endloop
  endfacet
  facet normal 0.000000e+000 0.000000e+000 1.000000e+000
    outer loop
      vertex   -2.980000e+002 7.595586e+001 6.038462e+000
      vertex   -3.000000e+002 7.595586e+001 6.038462e+000
      vertex   -2.980000e+002 7.395586e+001 6.038462e+000
    endloop
  endfacet
  facet normal 0.000000e+000 0.000000e+000 7.071068e-001
    outer loop
      vertex   -2.980000e+002 7.395586e+001 6.038462e+000
      vertex   -3.000000e+002 7.595586e+001 6.038462e+000
      vertex   -3.000000e+002 7.395586e+001 6.038462e+000
    endloop
  endfacet
  facet normal 1.000000e+000 0.000000e+000 -0.000000e+000
    outer loop
      vertex   -3.000000e+002 7.395586e+001 8.038462e+000
      vertex   -3.000000e+002 7.395586e+001 1.003846e+001
      vertex   -3.000000e+002 7.195586e+001 8.038462e+000
    endloop
  endfacet
  facet normal 7.071068e-001 0.000000e+000 0.000000e+000
    outer loop
      vertex   -3.000000e+002 7.195586e+001 8.038462e+000
      vertex   -3.000000e+002 7.395586e+001 1.003846e+001
      vertex   -3.000000e+002 7.195586e+001 1.003846e+001
    endloop
  endfacet
  facet normal 0.000000e+000 0.000000e+000 1.000000e+000
    outer loop
      vertex   -2.980000e+002 7.395586e+001 8.038462e+000
      vertex   -3.000000e+002 7.395586e+001 8.038462e+000
      vertex   -2.980000e+002 7.195586e+001 8.038462e+000
    endloop
  endfacet
  facet normal 0.000000e+000 0.000000e+000 7.071068e-001
    outer loop
      vertex   -2.980000e+002 7.195586e+001 8.038462e+000
      vertex   -3.000000e+002 7.395586e+001 8.038462e+000
      vertex   -3.000000e+002 7.195586e+001 8.038462e+000
    endloop
  endfacet
  facet normal 0.000000e+000 1.000000e+000 0.000000e+000
    outer loop
      vertex   -3.000000e+002 7.395586e+001 6.038462e+000
      vertex   -3.000000e+002 7.395586e+001 8.038462e+000
      vertex   -2.980000e+002 7.395586e+001 6.038462e+000
    endloop
  endfacet
  facet normal 0.000000e+000 7.071068e-001 -0.000000e+000
    outer loop
      vertex   -2.980000e+002 7.395586e+001 6.038462e+000
      vertex   -3.000000e+002 7.395586e+001 8.038462e+000
      vertex   -2.980000e+002 7.395586e+001 8.038462e+000
    endloop
  endfacet
  facet normal 1.000000e+000 0.000000e+000 0.000000e+000
    outer loop
      vertex   -2.980000e+002 7.395586e+001 8.038462e+000
      vertex   -2.980000e+002 7.195586e+001 8.038462e+000
      vertex   -2.980000e+002 7.395586e+001 6.038462e+000
    endloop
  endfacet
  facet normal 9.486833e-001 0.000000e+000 0.000000e+000
    outer loop
      vertex   -2.980000e+002 7.395586e+001 6.038462e+000
      vertex   -2.980000e+002 7.195586e+001 8.038462e+000
      vertex   -2.980000e+002 7.195586e+001 2.038462e+000
    endloop
  endfacet
  facet normal 8.000000e-001 0.000000e+000 0.000000e+000
    outer loop
      vertex   -2.980000e+002 7.395586e+001 6.038462e+000
      vertex   -2.980000e+002 7.195586e+001 2.038462e+000
      vertex   -2.980000e+002 7.595586e+001 2.038462e+000
    endloop
  endfacet
  facet normal 4.472136e-001 0.000000e+000 -0.000000e+000
    outer loop
      vertex   -2.980000e+002 7.595586e+001 2.038462e+000
      vertex   -2.980000e+002 7.595586e+001 6.038462e+000
      vertex   -2.980000e+002 7.395586e+001 6.038462e+000
    endloop
  endfacet
  facet normal 0.000000e+000 0.000000e+000 1.000000e+000
    outer loop
      vertex   -2.960000e+002 7.195586e+001 8.038462e+000
      vertex   -2.980000e+002 7.195586e+001 8.038462e+000
      vertex   -2.960000e+002 6.995586e+001 8.038462e+000
    endloop
  endfacet
  facet normal 0.000000e+000 0.000000e+000 7.071068e-001
    outer loop
      vertex   -2.960000e+002 6.995586e+001 8.038462e+000
      vertex   -2.980000e+002 7.195586e+001 8.038462e+000
      vertex   -2.980000e+002 6.995586e+001 8.038462e+000
    endloop
  endfacet
  facet normal 1.000000e+000 0.000000e+000 -0.000000e+000
    outer loop
      vertex   -2.960000e+002 7.195586e+001 6.038462e+000
      vertex   -2.960000e+002 7.195586e+001 8.038462e+000
      vertex   -2.960000e+002 6.995586e+001 6.038462e+000
    endloop
  endfacet
  facet normal 7.071068e-001 0.000000e+000 0.000000e+000
    outer loop
      vertex   -2.960000e+002 6.995586e+001 6.038462e+000
      vertex   -2.960000e+002 7.195586e+001 8.038462e+000
      vertex   -2.960000e+002 6.995586e+001 8.038462e+000
    endloop
  endfacet
  facet normal 0.000000e+000 -7.071068e-001 0.000000e+000
    outer loop
      vertex   -3.020000e+002 6.995586e+001 1.203846e+001
      vertex   -3.020000e+002 6.995586e+001 7.038462e+000
      vertex   -3.000000e+002 6.995586e+001 1.003846e+001
    endloop
  endfacet
  facet normal 0.000000e+000 -5.547002e-001 -0.000000e+000
    outer loop
      vertex   -3.000000e+002 6.995586e+001 1.003846e+001
      vertex   -3.020000e+002 6.995586e+001 7.038462e+000
      vertex   -3.000000e+002 6.995586e+001 7.038462e+000
    endloop
  endfacet
  facet normal 0.000000e+000 -7.071068e-001 0.000000e+000
    outer loop
      vertex   -3.000000e+002 6.995586e+001 1.003846e+001
      vertex   -3.000000e+002 6.995586e+001 7.038462e+000
      vertex   -2.980000e+002 6.995586e+001 8.038462e+000
    endloop
  endfacet
  facet normal 0.000000e+000 -8.944272e-001 -0.000000e+000
    outer loop
      vertex   -2.980000e+002 6.995586e+001 8.038462e+000
      vertex   -3.000000e+002 6.995586e+001 7.038462e+000
      vertex   -2.980000e+002 6.995586e+001 6.038462e+000
    endloop
  endfacet
  facet normal 0.000000e+000 -7.071068e-001 0.000000e+000
    outer loop
      vertex   -2.980000e+002 6.995586e+001 8.038462e+000
      vertex   -2.980000e+002 6.995586e+001 6.038462e+000
      vertex   -2.960000e+002 6.995586e+001 6.038462e+000
    endloop
  endfacet
  facet normal -0.000000e+000 -4.472136e-001 0.000000e+000
    outer loop
      vertex   -2.960000e+002 6.995586e+001 6.038462e+000
      vertex   -2.980000e+002 6.995586e+001 6.038462e+000
      vertex   -2.980000e+002 6.995586e+001 5.038462e+000
    endloop
  endfacet
  facet normal 0.000000e+000 -8.944272e-001 -0.000000e+000
    outer loop
      vertex   -2.960000e+002 6.995586e+001 6.038462e+000
      vertex   -2.980000e+002 6.995586e+001 5.038462e+000
      vertex   -2.960000e+002 6.995586e+001 5.038462e+000
    endloop
  endfacet
  facet normal 0.000000e+000 -8.944272e-001 0.000000e+000
    outer loop
      vertex   -3.000000e+002 6.995586e+001 7.038462e+000
      vertex   -3.000000e+002 6.995586e+001 6.038462e+000
      vertex   -2.980000e+002 6.995586e+001 6.038462e+000
    endloop
  endfacet
  facet normal 0.000000e+000 -1.000000e+000 0.000000e+000
    outer loop
      vertex   -2.960000e+002 6.995586e+001 4.038462e+000
      vertex   -2.940000e+002 6.995586e+001 4.038462e+000
      vertex   -2.960000e+002 6.995586e+001 5.038462e+000
    endloop
  endfacet
  facet normal 0.000000e+000 -8.000000e-001 0.000000e+000
    outer loop
      vertex   -2.960000e+002 6.995586e+001 5.038462e+000
      vertex   -2.940000e+002 6.995586e+001 4.038462e+000
      vertex   -2.940000e+002 6.995586e+001 6.038462e+000
    endloop
  endfacet
  facet normal 0.000000e+000 -8.944272e-001 0.000000e+000
    outer loop
      vertex   -2.960000e+002 6.995586e+001 5.038462e+000
      vertex   -2.940000e+002 6.995586e+001 6.038462e+000
      vertex   -2.960000e+002 6.995586e+001 6.038462e+000
    endloop
  endfacet
  facet normal 0.000000e+000 -7.071068e-001 0.000000e+000
    outer loop
      vertex   -2.960000e+002 6.995586e+001 6.038462e+000
      vertex   -2.960000e+002 6.995586e+001 8.038462e+000
      vertex   -2.980000e+002 6.995586e+001 8.038462e+000
    endloop
  endfacet
  facet normal 0.000000e+000 -7.071068e-001 0.000000e+000
    outer loop
      vertex   -2.980000e+002 6.995586e+001 8.038462e+000
      vertex   -2.980000e+002 6.995586e+001 1.003846e+001
      vertex   -3.000000e+002 6.995586e+001 1.003846e+001
    endloop
  endfacet
  facet normal 0.000000e+000 -7.071068e-001 0.000000e+000
    outer loop
      vertex   -3.000000e+002 6.995586e+001 1.003846e+001
      vertex   -3.000000e+002 6.995586e+001 1.203846e+001
      vertex   -3.020000e+002 6.995586e+001 1.203846e+001
    endloop
  endfacet
  facet normal 0.000000e+000 -1.000000e+000 0.000000e+000
    outer loop
      vertex   -2.940000e+002 6.995586e+001 4.038462e+000
      vertex   -2.940000e+002 6.995586e+001 3.038462e+000
      vertex   -2.920000e+002 6.995586e+001 4.038462e+000
    endloop
  endfacet
  facet normal 0.000000e+000 -8.944272e-001 -0.000000e+000
    outer loop
      vertex   -2.920000e+002 6.995586e+001 4.038462e+000
      vertex   -2.940000e+002 6.995586e+001 3.038462e+000
      vertex   -2.920000e+002 6.995586e+001 3.038462e+000
    endloop
  endfacet
  facet normal 0.000000e+000 1.000000e+000 0.000000e+000
    outer loop
      vertex   -2.840000e+002 7.595586e+001 4.038462e+000
      vertex   -2.840000e+002 7.595586e+001 6.038462e+000
      vertex   -2.820000e+002 7.595586e+001 4.038462e+000
    endloop
  endfacet
  facet normal 0.000000e+000 7.071068e-001 -0.000000e+000
    outer loop
      vertex   -2.820000e+002 7.595586e+001 4.038462e+000
      vertex   -2.840000e+002 7.595586e+001 6.038462e+000
      vertex   -2.820000e+002 7.595586e+001 6.038462e+000
    endloop
  endfacet
  facet normal -1.000000e+000 -0.000000e+000 -0.000000e+000
    outer loop
      vertex   -2.840000e+002 7.595586e+001 6.038462e+000
      vertex   -2.840000e+002 7.595586e+001 4.038462e+000
      vertex   -2.840000e+002 6.395586e+001 6.038462e+000
    endloop
  endfacet
  facet normal -9.863939e-001 0.000000e+000 0.000000e+000
    outer loop
      vertex   -2.840000e+002 6.395586e+001 6.038462e+000
      vertex   -2.840000e+002 7.595586e+001 4.038462e+000
      vertex   -2.840000e+002 6.395586e+001 2.038461e+000
    endloop
  endfacet
  facet normal -1.643991e-001 0.000000e+000 0.000000e+000
    outer loop
      vertex   -2.840000e+002 6.395586e+001 2.038461e+000
      vertex   -2.840000e+002 7.595586e+001 4.038462e+000
      vertex   -2.840000e+002 7.795586e+001 2.038461e+000
    endloop
  endfacet
  facet normal -7.071067e-001 0.000000e+000 0.000000e+000
    outer loop
      vertex   -2.840000e+002 7.795586e+001 2.038461e+000
      vertex   -2.840000e+002 7.595586e+001 4.038462e+000
      vertex   -2.840000e+002 7.795586e+001 4.038462e+000
    endloop
  endfacet
  facet normal 0.000000e+000 0.000000e+000 1.000000e+000
    outer loop
      vertex   -2.820000e+002 7.595586e+001 6.038462e+000
      vertex   -2.840000e+002 7.595586e+001 6.038462e+000
      vertex   -2.820000e+002 6.395586e+001 6.038462e+000
    endloop
  endfacet
  facet normal 0.000000e+000 0.000000e+000 9.863939e-001
    outer loop
      vertex   -2.820000e+002 6.395586e+001 6.038462e+000
      vertex   -2.840000e+002 7.595586e+001 6.038462e+000
      vertex   -2.840000e+002 6.395586e+001 6.038462e+000
    endloop
  endfacet
  facet normal 0.000000e+000 7.071068e-001 0.000000e+000
    outer loop
      vertex   -2.800000e+002 7.795586e+001 6.038462e+000
      vertex   -2.800000e+002 7.795586e+001 2.038461e+000
      vertex   -2.820000e+002 7.795586e+001 4.038462e+000
    endloop
  endfacet
  facet normal 0.000000e+000 1.000000e+000 0.000000e+000
    outer loop
      vertex   -2.820000e+002 7.795586e+001 4.038462e+000
      vertex   -2.800000e+002 7.795586e+001 2.038461e+000
      vertex   -2.840000e+002 7.795586e+001 2.038461e+000
    endloop
  endfacet
  facet normal 0.000000e+000 7.071068e-001 0.000000e+000
    outer loop
      vertex   -2.820000e+002 7.795586e+001 4.038462e+000
      vertex   -2.840000e+002 7.795586e+001 2.038461e+000
      vertex   -2.840000e+002 7.795586e+001 4.038462e+000
    endloop
  endfacet
  facet normal 0.000000e+000 7.071068e-001 0.000000e+000
    outer loop
      vertex   -2.820000e+002 7.795586e+001 4.038462e+000
      vertex   -2.820000e+002 7.795586e+001 6.038462e+000
      vertex   -2.800000e+002 7.795586e+001 6.038462e+000
    endloop
  endfacet
  facet normal 0.000000e+000 0.000000e+000 1.000000e+000
    outer loop
      vertex   -2.820000e+002 7.795586e+001 4.038462e+000
      vertex   -2.840000e+002 7.795586e+001 4.038462e+000
      vertex   -2.820000e+002 7.595586e+001 4.038462e+000
    endloop
  endfacet
  facet normal 0.000000e+000 0.000000e+000 7.071068e-001
    outer loop
      vertex   -2.820000e+002 7.595586e+001 4.038462e+000
      vertex   -2.840000e+002 7.795586e+001 4.038462e+000
      vertex   -2.840000e+002 7.595586e+001 4.038462e+000
    endloop
  endfacet
  facet normal 1.000000e+000 0.000000e+000 0.000000e+000
    outer loop
      vertex   -2.800000e+002 7.795586e+001 6.038462e+000
      vertex   -2.800000e+002 7.595586e+001 6.038462e+000
      vertex   -2.800000e+002 7.795586e+001 2.038461e+000
    endloop
  endfacet
  facet normal 9.486833e-001 0.000000e+000 0.000000e+000
    outer loop
      vertex   -2.800000e+002 7.795586e+001 2.038461e+000
      vertex   -2.800000e+002 7.595586e+001 6.038462e+000
      vertex   -2.800000e+002 6.395586e+001 3.846151e-002
    endloop
  endfacet
  facet normal 1.414214e-001 -0.000000e+000 0.000000e+000
    outer loop
      vertex   -2.800000e+002 7.795586e+001 2.038461e+000
      vertex   -2.800000e+002 6.395586e+001 3.846151e-002
      vertex   -2.800000e+002 8.195586e+001 2.038461e+000
    endloop
  endfacet
  facet normal 2.498780e-001 0.000000e+000 0.000000e+000
    outer loop
      vertex   -2.800000e+002 8.195586e+001 2.038461e+000
      vertex   -2.800000e+002 6.395586e+001 3.846151e-002
      vertex   -2.800000e+002 9.595586e+001 3.846151e-002
    endloop
  endfacet
  facet normal 9.486833e-001 -0.000000e+000 0.000000e+000
    outer loop
      vertex   -2.800000e+002 8.195586e+001 2.038461e+000
      vertex   -2.800000e+002 9.595586e+001 3.846151e-002
      vertex   -2.800000e+002 8.395586e+001 6.038462e+000
    endloop
  endfacet
  facet normal 5.881717e-001 -0.000000e+000 0.000000e+000
    outer loop
      vertex   -2.800000e+002 8.395586e+001 6.038462e+000
      vertex   -2.800000e+002 9.595586e+001 3.846151e-002
      vertex   -2.800000e+002 9.595586e+001 8.038462e+000
    endloop
  endfacet
  facet normal 9.863939e-001 0.000000e+000 0.000000e+000
    outer loop
      vertex   -2.800000e+002 8.395586e+001 6.038462e+000
      vertex   -2.800000e+002 9.595586e+001 8.038462e+000
      vertex   -2.800000e+002 8.395586e+001 8.038462e+000
    endloop
  endfacet
  facet normal 1.000000e+000 0.000000e+000 0.000000e+000
    outer loop
      vertex   -2.800000e+002 7.595586e+001 8.038462e+000
      vertex   -2.800000e+002 6.395586e+001 8.038462e+000
      vertex   -2.800000e+002 7.595586e+001 6.038462e+000
    endloop
  endfacet
  facet normal 5.881718e-001 0.000000e+000 0.000000e+000
    outer loop
      vertex   -2.800000e+002 7.595586e+001 6.038462e+000
      vertex   -2.800000e+002 6.395586e+001 8.038462e+000
      vertex   -2.800000e+002 6.395586e+001 3.846151e-002
    endloop
  endfacet
  facet normal 8.944272e-001 0.000000e+000 0.000000e+000
    outer loop
      vertex   -2.800000e+002 8.395586e+001 6.038462e+000
      vertex   -2.800000e+002 8.195586e+001 6.038462e+000
      vertex   -2.800000e+002 8.195586e+001 2.038461e+000
    endloop
  endfacet
  facet normal 0.000000e+000 0.000000e+000 1.000000e+000
    outer loop
      vertex   -2.800000e+002 7.795586e+001 6.038462e+000
      vertex   -2.820000e+002 7.795586e+001 6.038462e+000
      vertex   -2.800000e+002 7.595586e+001 6.038462e+000
    endloop
  endfacet
  facet normal 0.000000e+000 0.000000e+000 7.071068e-001
    outer loop
      vertex   -2.800000e+002 7.595586e+001 6.038462e+000
      vertex   -2.820000e+002 7.795586e+001 6.038462e+000
      vertex   -2.820000e+002 7.595586e+001 6.038462e+000
    endloop
  endfacet
  facet normal -1.000000e+000 0.000000e+000 0.000000e+000
    outer loop
      vertex   -2.820000e+002 7.595586e+001 4.038462e+000
      vertex   -2.820000e+002 7.595586e+001 6.038462e+000
      vertex   -2.820000e+002 7.795586e+001 4.038462e+000
    endloop
  endfacet
  facet normal -7.071068e-001 0.000000e+000 0.000000e+000
    outer loop
      vertex   -2.820000e+002 7.795586e+001 4.038462e+000
      vertex   -2.820000e+002 7.595586e+001 6.038462e+000
      vertex   -2.820000e+002 7.795586e+001 6.038462e+000
    endloop
  endfacet
  facet normal 0.000000e+000 1.000000e+000 0.000000e+000
    outer loop
      vertex   -2.820000e+002 7.595586e+001 6.038462e+000
      vertex   -2.820000e+002 7.595586e+001 8.038462e+000
      vertex   -2.800000e+002 7.595586e+001 6.038462e+000
    endloop
  endfacet
  facet normal 0.000000e+000 7.071068e-001 -0.000000e+000
    outer loop
      vertex   -2.800000e+002 7.595586e+001 6.038462e+000
      vertex   -2.820000e+002 7.595586e+001 8.038462e+000
      vertex   -2.800000e+002 7.595586e+001 8.038462e+000
    endloop
  endfacet
  facet normal 0.000000e+000 0.000000e+000 1.000000e+000
    outer loop
      vertex   -2.800000e+002 7.595586e+001 8.038462e+000
      vertex   -2.820000e+002 7.595586e+001 8.038462e+000
      vertex   -2.800000e+002 6.395586e+001 8.038462e+000
    endloop
  endfacet
  facet normal 0.000000e+000 0.000000e+000 9.863939e-001
    outer loop
      vertex   -2.800000e+002 6.395586e+001 8.038462e+000
      vertex   -2.820000e+002 7.595586e+001 8.038462e+000
      vertex   -2.820000e+002 6.395586e+001 8.038462e+000
    endloop
  endfacet
  facet normal -1.000000e+000 0.000000e+000 0.000000e+000
    outer loop
      vertex   -2.820000e+002 6.395586e+001 6.038462e+000
      vertex   -2.820000e+002 6.395586e+001 8.038462e+000
      vertex   -2.820000e+002 7.595586e+001 6.038462e+000
    endloop
  endfacet
  facet normal -9.863939e-001 0.000000e+000 0.000000e+000
    outer loop
      vertex   -2.820000e+002 7.595586e+001 6.038462e+000
      vertex   -2.820000e+002 6.395586e+001 8.038462e+000
      vertex   -2.820000e+002 7.595586e+001 8.038462e+000
    endloop
  endfacet
  facet normal -0.000000e+000 1.000000e+000 0.000000e+000
    outer loop
      vertex   -2.820000e+002 9.595586e+001 8.038462e+000
      vertex   -2.800000e+002 9.595586e+001 8.038462e+000
      vertex   -2.820000e+002 9.595586e+001 6.038462e+000
    endloop
  endfacet
  facet normal -0.000000e+000 8.944272e-001 0.000000e+000
    outer loop
      vertex   -2.820000e+002 9.595586e+001 6.038462e+000
      vertex   -2.800000e+002 9.595586e+001 8.038462e+000
      vertex   -2.800000e+002 9.595586e+001 3.846151e-002
    endloop
  endfacet
  facet normal 0.000000e+000 7.071068e-001 0.000000e+000
    outer loop
      vertex   -2.820000e+002 9.595586e+001 6.038462e+000
      vertex   -2.800000e+002 9.595586e+001 3.846151e-002
      vertex   -2.840000e+002 9.595586e+001 2.038461e+000
    endloop
  endfacet
  facet normal 0.000000e+000 5.547001e-001 0.000000e+000
    outer loop
      vertex   -2.840000e+002 9.595586e+001 2.038461e+000
      vertex   -2.800000e+002 9.595586e+001 3.846151e-002
      vertex   -2.920000e+002 9.595586e+001 1.038462e+000
    endloop
  endfacet
  facet normal 0.000000e+000 1.240347e-001 0.000000e+000
    outer loop
      vertex   -2.840000e+002 9.595586e+001 2.038461e+000
      vertex   -2.920000e+002 9.595586e+001 1.038462e+000
      vertex   -2.920000e+002 9.595586e+001 2.038461e+000
    endloop
  endfacet
  facet normal 0.000000e+000 8.304548e-002 0.000000e+000
    outer loop
      vertex   -2.800000e+002 9.595586e+001 3.846151e-002
      vertex   -3.020000e+002 9.595586e+001 3.846151e-002
      vertex   -2.920000e+002 9.595586e+001 1.038462e+000
    endloop
  endfacet
  facet normal 0.000000e+000 9.950372e-002 0.000000e+000
    outer loop
      vertex   -2.920000e+002 9.595586e+001 1.038462e+000
      vertex   -3.020000e+002 9.595586e+001 3.846151e-002
      vertex   -3.020000e+002 9.595586e+001 1.038462e+000
    endloop
  endfacet
  facet normal 0.000000e+000 4.472136e-001 0.000000e+000
    outer loop
      vertex   -2.840000e+002 9.595586e+001 2.038461e+000
      vertex   -2.840000e+002 9.595586e+001 6.038462e+000
      vertex   -2.820000e+002 9.595586e+001 6.038462e+000
    endloop
  endfacet
  facet normal -1.000000e+000 0.000000e+000 0.000000e+000
    outer loop
      vertex   -2.820000e+002 8.395586e+001 6.038462e+000
      vertex   -2.820000e+002 8.395586e+001 8.038462e+000
      vertex   -2.820000e+002 9.595586e+001 6.038462e+000
    endloop
  endfacet
  facet normal -9.863939e-001 0.000000e+000 0.000000e+000
    outer loop
      vertex   -2.820000e+002 9.595586e+001 6.038462e+000
      vertex   -2.820000e+002 8.395586e+001 8.038462e+000
      vertex   -2.820000e+002 9.595586e+001 8.038462e+000
    endloop
  endfacet
  facet normal 0.000000e+000 0.000000e+000 1.000000e+000
    outer loop
      vertex   -2.800000e+002 9.595586e+001 8.038462e+000
      vertex   -2.820000e+002 9.595586e+001 8.038462e+000
      vertex   -2.800000e+002 8.395586e+001 8.038462e+000
    endloop
  endfacet
  facet normal 0.000000e+000 0.000000e+000 9.863939e-001
    outer loop
      vertex   -2.800000e+002 8.395586e+001 8.038462e+000
      vertex   -2.820000e+002 9.595586e+001 8.038462e+000
      vertex   -2.820000e+002 8.395586e+001 8.038462e+000
    endloop
  endfacet
  facet normal -1.000000e+000 0.000000e+000 0.000000e+000
    outer loop
      vertex   -2.840000e+002 8.395586e+001 6.038462e+000
      vertex   -2.840000e+002 9.595586e+001 6.038462e+000
      vertex   -2.840000e+002 8.395586e+001 4.038462e+000
    endloop
  endfacet
  facet normal -3.243243e-001 0.000000e+000 0.000000e+000
    outer loop
      vertex   -2.840000e+002 8.395586e+001 4.038462e+000
      vertex   -2.840000e+002 9.595586e+001 6.038462e+000
      vertex   -2.840000e+002 9.595586e+001 2.038461e+000
    endloop
  endfacet
  facet normal -8.137335e-001 0.000000e+000 -0.000000e+000
    outer loop
      vertex   -2.840000e+002 8.395586e+001 4.038462e+000
      vertex   -2.840000e+002 9.595586e+001 2.038461e+000
      vertex   -2.840000e+002 8.195586e+001 2.038461e+000
    endloop
  endfacet
  facet normal -7.071067e-001 0.000000e+000 0.000000e+000
    outer loop
      vertex   -2.840000e+002 8.195586e+001 2.038461e+000
      vertex   -2.840000e+002 8.195586e+001 4.038462e+000
      vertex   -2.840000e+002 8.395586e+001 4.038462e+000
    endloop
  endfacet
  facet normal 0.000000e+000 0.000000e+000 1.000000e+000
    outer loop
      vertex   -2.820000e+002 9.595586e+001 6.038462e+000
      vertex   -2.840000e+002 9.595586e+001 6.038462e+000
      vertex   -2.820000e+002 8.395586e+001 6.038462e+000
    endloop
  endfacet
  facet normal 0.000000e+000 0.000000e+000 9.863939e-001
    outer loop
      vertex   -2.820000e+002 8.395586e+001 6.038462e+000
      vertex   -2.840000e+002 9.595586e+001 6.038462e+000
      vertex   -2.840000e+002 8.395586e+001 6.038462e+000
    endloop
  endfacet
  facet normal 0.000000e+000 -1.000000e+000 0.000000e+000
    outer loop
      vertex   -2.800000e+002 8.395586e+001 6.038462e+000
      vertex   -2.800000e+002 8.395586e+001 8.038462e+000
      vertex   -2.820000e+002 8.395586e+001 6.038462e+000
    endloop
  endfacet
  facet normal 0.000000e+000 -7.071068e-001 0.000000e+000
    outer loop
      vertex   -2.820000e+002 8.395586e+001 6.038462e+000
      vertex   -2.800000e+002 8.395586e+001 8.038462e+000
      vertex   -2.820000e+002 8.395586e+001 8.038462e+000
    endloop
  endfacet
  facet normal 0.000000e+000 -1.000000e+000 0.000000e+000
    outer loop
      vertex   -2.840000e+002 8.195586e+001 4.038462e+000
      vertex   -2.840000e+002 8.195586e+001 2.038461e+000
      vertex   -2.820000e+002 8.195586e+001 4.038462e+000
    endloop
  endfacet
  facet normal 0.000000e+000 -1.000000e+000 -0.000000e+000
    outer loop
      vertex   -2.820000e+002 8.195586e+001 4.038462e+000
      vertex   -2.840000e+002 8.195586e+001 2.038461e+000
      vertex   -2.800000e+002 8.195586e+001 2.038461e+000
    endloop
  endfacet
  facet normal 0.000000e+000 -1.000000e+000 0.000000e+000
    outer loop
      vertex   -2.820000e+002 8.195586e+001 4.038462e+000
      vertex   -2.800000e+002 8.195586e+001 2.038461e+000
      vertex   -2.800000e+002 8.195586e+001 6.038462e+000
    endloop
  endfacet
  facet normal -0.000000e+000 -7.071068e-001 0.000000e+000
    outer loop
      vertex   -2.800000e+002 8.195586e+001 6.038462e+000
      vertex   -2.820000e+002 8.195586e+001 6.038462e+000
      vertex   -2.820000e+002 8.195586e+001 4.038462e+000
    endloop
  endfacet
  facet normal 0.000000e+000 0.000000e+000 1.000000e+000
    outer loop
      vertex   -2.820000e+002 8.395586e+001 4.038462e+000
      vertex   -2.840000e+002 8.395586e+001 4.038462e+000
      vertex   -2.820000e+002 8.195586e+001 4.038462e+000
    endloop
  endfacet
  facet normal 0.000000e+000 0.000000e+000 7.071068e-001
    outer loop
      vertex   -2.820000e+002 8.195586e+001 4.038462e+000
      vertex   -2.840000e+002 8.395586e+001 4.038462e+000
      vertex   -2.840000e+002 8.195586e+001 4.038462e+000
    endloop
  endfacet
  facet normal 0.000000e+000 -1.000000e+000 0.000000e+000
    outer loop
      vertex   -2.820000e+002 8.395586e+001 4.038462e+000
      vertex   -2.820000e+002 8.395586e+001 6.038462e+000
      vertex   -2.840000e+002 8.395586e+001 4.038462e+000
    endloop
  endfacet
  facet normal 0.000000e+000 -7.071068e-001 0.000000e+000
    outer loop
      vertex   -2.840000e+002 8.395586e+001 4.038462e+000
      vertex   -2.820000e+002 8.395586e+001 6.038462e+000
      vertex   -2.840000e+002 8.395586e+001 6.038462e+000
    endloop
  endfacet
  facet normal 0.000000e+000 0.000000e+000 1.000000e+000
    outer loop
      vertex   -2.800000e+002 8.395586e+001 6.038462e+000
      vertex   -2.820000e+002 8.395586e+001 6.038462e+000
      vertex   -2.800000e+002 8.195586e+001 6.038462e+000
    endloop
  endfacet
  facet normal 0.000000e+000 0.000000e+000 7.071068e-001
    outer loop
      vertex   -2.800000e+002 8.195586e+001 6.038462e+000
      vertex   -2.820000e+002 8.395586e+001 6.038462e+000
      vertex   -2.820000e+002 8.195586e+001 6.038462e+000
    endloop
  endfacet
  facet normal -1.000000e+000 0.000000e+000 0.000000e+000
    outer loop
      vertex   -2.820000e+002 8.195586e+001 4.038462e+000
      vertex   -2.820000e+002 8.195586e+001 6.038462e+000
      vertex   -2.820000e+002 8.395586e+001 4.038462e+000
    endloop
  endfacet
  facet normal -7.071068e-001 0.000000e+000 0.000000e+000
    outer loop
      vertex   -2.820000e+002 8.395586e+001 4.038462e+000
      vertex   -2.820000e+002 8.195586e+001 6.038462e+000
      vertex   -2.820000e+002 8.395586e+001 6.038462e+000
    endloop
  endfacet
  facet normal 0.000000e+000 0.000000e+000 -1.000000e+000
    outer loop
      vertex   -3.020000e+002 9.595586e+001 3.846151e-002
      vertex   -2.800000e+002 9.595586e+001 3.846151e-002
      vertex   -3.020000e+002 6.395586e+001 3.846151e-002
    endloop
  endfacet
  facet normal 0.000000e+000 0.000000e+000 -8.240419e-001
    outer loop
      vertex   -3.020000e+002 6.395586e+001 3.846151e-002
      vertex   -2.800000e+002 9.595586e+001 3.846151e-002
      vertex   -2.800000e+002 6.395586e+001 3.846151e-002
    endloop
  endfacet
  facet normal 0.000000e+000 1.000000e+000 0.000000e+000
    outer loop
      vertex   -2.930000e+002 8.195586e+001 2.038461e+000
      vertex   -2.930000e+002 8.195586e+001 1.038462e+000
      vertex   -3.020000e+002 8.195586e+001 2.038461e+000
    endloop
  endfacet
  facet normal 0.000000e+000 9.938837e-001 0.000000e+000
    outer loop
      vertex   -3.020000e+002 8.195586e+001 2.038461e+000
      vertex   -2.930000e+002 8.195586e+001 1.038462e+000
      vertex   -3.020000e+002 8.195586e+001 1.038462e+000
    endloop
  endfacet
  facet normal -1.000000e+000 0.000000e+000 0.000000e+000
    outer loop
      vertex   -2.930000e+002 8.195586e+001 1.038462e+000
      vertex   -2.930000e+002 8.195586e+001 2.038461e+000
      vertex   -2.930000e+002 8.295586e+001 1.038462e+000
    endloop
  endfacet
  facet normal -7.071068e-001 0.000000e+000 0.000000e+000
    outer loop
      vertex   -2.930000e+002 8.295586e+001 1.038462e+000
      vertex   -2.930000e+002 8.195586e+001 2.038461e+000
      vertex   -2.930000e+002 8.295586e+001 2.038461e+000
    endloop
  endfacet
  facet normal 0.000000e+000 1.000000e+000 0.000000e+000
    outer loop
      vertex   -2.930000e+002 8.295586e+001 1.038462e+000
      vertex   -2.930000e+002 8.295586e+001 2.038461e+000
      vertex   -2.920000e+002 8.295586e+001 1.038462e+000
    endloop
  endfacet
  facet normal 0.000000e+000 7.071068e-001 -0.000000e+000
    outer loop
      vertex   -2.920000e+002 8.295586e+001 1.038462e+000
      vertex   -2.930000e+002 8.295586e+001 2.038461e+000
      vertex   -2.920000e+002 8.295586e+001 2.038461e+000
    endloop
  endfacet
  facet normal 0.000000e+000 -0.000000e+000 1.000000e+000
    outer loop
      vertex   -2.920000e+002 8.295586e+001 1.038462e+000
      vertex   -2.920000e+002 9.595586e+001 1.038462e+000
      vertex   -2.930000e+002 8.295586e+001 1.038462e+000
    endloop
  endfacet
  facet normal 0.000000e+000 -0.000000e+000 6.305926e-001
    outer loop
      vertex   -2.930000e+002 8.295586e+001 1.038462e+000
      vertex   -2.920000e+002 9.595586e+001 1.038462e+000
      vertex   -3.020000e+002 9.595586e+001 1.038462e+000
    endloop
  endfacet
  facet normal 0.000000e+000 0.000000e+000 8.800222e-001
    outer loop
      vertex   -2.930000e+002 8.295586e+001 1.038462e+000
      vertex   -3.020000e+002 9.595586e+001 1.038462e+000
      vertex   -3.020000e+002 8.195586e+001 1.038462e+000
    endloop
  endfacet
  facet normal 0.000000e+000 0.000000e+000 1.104315e-001
    outer loop
      vertex   -3.020000e+002 8.195586e+001 1.038462e+000
      vertex   -2.930000e+002 8.195586e+001 1.038462e+000
      vertex   -2.930000e+002 8.295586e+001 1.038462e+000
    endloop
  endfacet
  facet normal -1.000000e+000 0.000000e+000 0.000000e+000
    outer loop
      vertex   -2.920000e+002 9.595586e+001 1.038462e+000
      vertex   -2.920000e+002 8.295586e+001 1.038462e+000
      vertex   -2.920000e+002 9.595586e+001 2.038461e+000
    endloop
  endfacet
  facet normal -7.669649e-002 -0.000000e+000 0.000000e+000
    outer loop
      vertex   -2.920000e+002 9.595586e+001 2.038461e+000
      vertex   -2.920000e+002 8.295586e+001 1.038462e+000
      vertex   -2.920000e+002 8.295586e+001 2.038461e+000
    endloop
  endfacet
  facet normal 2.980232e-008 -0.000000e+000 1.000000e+000
    outer loop
      vertex   -2.920000e+002 6.395586e+001 2.038462e+000
      vertex   -2.840000e+002 6.395586e+001 2.038461e+000
      vertex   -2.920000e+002 7.195586e+001 2.038462e+000
    endloop
  endfacet
  facet normal 2.950279e-008 0.000000e+000 9.899495e-001
    outer loop
      vertex   -2.920000e+002 7.195586e+001 2.038462e+000
      vertex   -2.840000e+002 6.395586e+001 2.038461e+000
      vertex   -2.840000e+002 7.795586e+001 2.038461e+000
    endloop
  endfacet
  facet normal 1.083721e-008 1.733953e-008 8.000000e-001
    outer loop
      vertex   -2.920000e+002 7.195586e+001 2.038462e+000
      vertex   -2.840000e+002 7.795586e+001 2.038461e+000
      vertex   -2.920000e+002 8.295586e+001 2.038461e+000
    endloop
  endfacet
  facet normal 0.000000e+000 0.000000e+000 4.207250e-001
    outer loop
      vertex   -2.920000e+002 8.295586e+001 2.038461e+000
      vertex   -2.840000e+002 7.795586e+001 2.038461e+000
      vertex   -2.840000e+002 8.195586e+001 2.038461e+000
    endloop
  endfacet
  facet normal -0.000000e+000 0.000000e+000 9.100880e-001
    outer loop
      vertex   -2.920000e+002 8.295586e+001 2.038461e+000
      vertex   -2.840000e+002 8.195586e+001 2.038461e+000
      vertex   -2.840000e+002 9.595586e+001 2.038461e+000
    endloop
  endfacet
  facet normal 0.000000e+000 0.000000e+000 1.000000e+000
    outer loop
      vertex   -2.840000e+002 7.795586e+001 2.038461e+000
      vertex   -2.800000e+002 7.795586e+001 2.038461e+000
      vertex   -2.840000e+002 8.195586e+001 2.038461e+000
    endloop
  endfacet
  facet normal -0.000000e+000 0.000000e+000 7.071068e-001
    outer loop
      vertex   -2.840000e+002 8.195586e+001 2.038461e+000
      vertex   -2.800000e+002 7.795586e+001 2.038461e+000
      vertex   -2.800000e+002 8.195586e+001 2.038461e+000
    endloop
  endfacet
  facet normal 0.000000e+000 0.000000e+000 8.516583e-001
    outer loop
      vertex   -2.840000e+002 9.595586e+001 2.038461e+000
      vertex   -2.920000e+002 9.595586e+001 2.038461e+000
      vertex   -2.920000e+002 8.295586e+001 2.038461e+000
    endloop
  endfacet
  facet normal -0.000000e+000 0.000000e+000 1.000000e+000
    outer loop
      vertex   -2.930000e+002 8.295586e+001 2.038461e+000
      vertex   -2.930000e+002 8.195586e+001 2.038461e+000
      vertex   -2.920000e+002 8.295586e+001 2.038461e+000
    endloop
  endfacet
  facet normal -1.532613e-008 1.532613e-008 7.071068e-001
    outer loop
      vertex   -2.920000e+002 8.295586e+001 2.038461e+000
      vertex   -2.930000e+002 8.195586e+001 2.038461e+000
      vertex   -2.920000e+002 7.195586e+001 2.038462e+000
    endloop
  endfacet
  facet normal -0.000000e+000 5.331201e-008 8.944272e-001
    outer loop
      vertex   -3.020000e+002 8.195586e+001 2.038461e+000
      vertex   -3.000000e+002 7.795586e+001 2.038462e+000
      vertex   -2.930000e+002 8.195586e+001 2.038461e+000
    endloop
  endfacet
  facet normal 7.572661e-009 7.572661e-009 3.493825e-001
    outer loop
      vertex   -2.930000e+002 8.195586e+001 2.038461e+000
      vertex   -3.000000e+002 7.795586e+001 2.038462e+000
      vertex   -2.980000e+002 7.595586e+001 2.038462e+000
    endloop
  endfacet
  facet normal 1.214995e-008 1.822492e-008 7.134482e-001
    outer loop
      vertex   -2.930000e+002 8.195586e+001 2.038461e+000
      vertex   -2.980000e+002 7.595586e+001 2.038462e+000
      vertex   -2.920000e+002 7.195586e+001 2.038462e+000
    endloop
  endfacet
  facet normal 0.000000e+000 0.000000e+000 5.547002e-001
    outer loop
      vertex   -2.920000e+002 7.195586e+001 2.038462e+000
      vertex   -2.980000e+002 7.595586e+001 2.038462e+000
      vertex   -2.980000e+002 7.195586e+001 2.038462e+000
    endloop
  endfacet
  facet normal 0.000000e+000 2.665601e-008 4.472136e-001
    outer loop
      vertex   -3.020000e+002 8.195586e+001 2.038461e+000
      vertex   -3.020000e+002 7.795586e+001 2.038462e+000
      vertex   -3.000000e+002 7.795586e+001 2.038462e+000
    endloop
  endfacet
  facet normal 0.000000e+000 0.000000e+000 7.071068e-001
    outer loop
      vertex   -3.000000e+002 7.795586e+001 2.038462e+000
      vertex   -3.000000e+002 7.595586e+001 2.038462e+000
      vertex   -2.980000e+002 7.595586e+001 2.038462e+000
    endloop
  endfacet
  facet normal 0.000000e+000 0.000000e+000 1.000000e+000
    outer loop
      vertex   -3.000000e+002 6.995586e+001 7.038462e+000
      vertex   -3.020000e+002 6.995586e+001 7.038462e+000
      vertex   -3.000000e+002 6.795586e+001 7.038462e+000
    endloop
  endfacet
  facet normal 0.000000e+000 0.000000e+000 7.071068e-001
    outer loop
      vertex   -3.000000e+002 6.795586e+001 7.038462e+000
      vertex   -3.020000e+002 6.995586e+001 7.038462e+000
      vertex   -3.020000e+002 6.795586e+001 7.038462e+000
    endloop
  endfacet
  facet normal 1.000000e+000 0.000000e+000 -0.000000e+000
    outer loop
      vertex   -3.000000e+002 6.995586e+001 6.038462e+000
      vertex   -3.000000e+002 6.995586e+001 7.038462e+000
      vertex   -3.000000e+002 6.795586e+001 6.038462e+000
    endloop
  endfacet
  facet normal 8.944272e-001 0.000000e+000 0.000000e+000
    outer loop
      vertex   -3.000000e+002 6.795586e+001 6.038462e+000
      vertex   -3.000000e+002 6.995586e+001 7.038462e+000
      vertex   -3.000000e+002 6.795586e+001 7.038462e+000
    endloop
  endfacet
  facet normal 0.000000e+000 0.000000e+000 1.000000e+000
    outer loop
      vertex   -2.920000e+002 6.995586e+001 3.038462e+000
      vertex   -2.940000e+002 6.995586e+001 3.038462e+000
      vertex   -2.920000e+002 6.795586e+001 3.038462e+000
    endloop
  endfacet
  facet normal 0.000000e+000 0.000000e+000 7.071068e-001
    outer loop
      vertex   -2.920000e+002 6.795586e+001 3.038462e+000
      vertex   -2.940000e+002 6.995586e+001 3.038462e+000
      vertex   -2.940000e+002 6.795586e+001 3.038462e+000
    endloop
  endfacet
  facet normal 1.000000e+000 0.000000e+000 -0.000000e+000
    outer loop
      vertex   -2.940000e+002 6.995586e+001 3.038462e+000
      vertex   -2.940000e+002 6.995586e+001 4.038462e+000
      vertex   -2.940000e+002 6.795586e+001 3.038462e+000
    endloop
  endfacet
  facet normal 8.944272e-001 0.000000e+000 0.000000e+000
    outer loop
      vertex   -2.940000e+002 6.795586e+001 3.038462e+000
      vertex   -2.940000e+002 6.995586e+001 4.038462e+000
      vertex   -2.940000e+002 6.795586e+001 4.038462e+000
    endloop
  endfacet
  facet normal 0.000000e+000 0.000000e+000 1.000000e+000
    outer loop
      vertex   -2.940000e+002 6.995586e+001 4.038462e+000
      vertex   -2.960000e+002 6.995586e+001 4.038462e+000
      vertex   -2.940000e+002 6.795586e+001 4.038462e+000
    endloop
  endfacet
  facet normal 0.000000e+000 0.000000e+000 7.071068e-001
    outer loop
      vertex   -2.940000e+002 6.795586e+001 4.038462e+000
      vertex   -2.960000e+002 6.995586e+001 4.038462e+000
      vertex   -2.960000e+002 6.795586e+001 4.038462e+000
    endloop
  endfacet
  facet normal 1.000000e+000 0.000000e+000 -0.000000e+000
    outer loop
      vertex   -2.960000e+002 6.995586e+001 4.038462e+000
      vertex   -2.960000e+002 6.995586e+001 5.038462e+000
      vertex   -2.960000e+002 6.795586e+001 4.038462e+000
    endloop
  endfacet
  facet normal 8.944272e-001 0.000000e+000 0.000000e+000
    outer loop
      vertex   -2.960000e+002 6.795586e+001 4.038462e+000
      vertex   -2.960000e+002 6.995586e+001 5.038462e+000
      vertex   -2.960000e+002 6.795586e+001 5.038462e+000
    endloop
  endfacet
  facet normal 0.000000e+000 0.000000e+000 1.000000e+000
    outer loop
      vertex   -2.960000e+002 6.995586e+001 5.038462e+000
      vertex   -2.980000e+002 6.995586e+001 5.038462e+000
      vertex   -2.960000e+002 6.795586e+001 5.038462e+000
    endloop
  endfacet
  facet normal 0.000000e+000 0.000000e+000 7.071068e-001
    outer loop
      vertex   -2.960000e+002 6.795586e+001 5.038462e+000
      vertex   -2.980000e+002 6.995586e+001 5.038462e+000
      vertex   -2.980000e+002 6.795586e+001 5.038462e+000
    endloop
  endfacet
  facet normal 1.000000e+000 0.000000e+000 -0.000000e+000
    outer loop
      vertex   -2.980000e+002 6.995586e+001 5.038462e+000
      vertex   -2.980000e+002 6.995586e+001 6.038462e+000
      vertex   -2.980000e+002 6.795586e+001 5.038462e+000
    endloop
  endfacet
  facet normal 8.944272e-001 0.000000e+000 0.000000e+000
    outer loop
      vertex   -2.980000e+002 6.795586e+001 5.038462e+000
      vertex   -2.980000e+002 6.995586e+001 6.038462e+000
      vertex   -2.980000e+002 6.795586e+001 6.038462e+000
    endloop
  endfacet
  facet normal 0.000000e+000 0.000000e+000 1.000000e+000
    outer loop
      vertex   -2.980000e+002 6.995586e+001 6.038462e+000
      vertex   -3.000000e+002 6.995586e+001 6.038462e+000
      vertex   -2.980000e+002 6.795586e+001 6.038462e+000
    endloop
  endfacet
  facet normal 0.000000e+000 0.000000e+000 7.071068e-001
    outer loop
      vertex   -2.980000e+002 6.795586e+001 6.038462e+000
      vertex   -3.000000e+002 6.995586e+001 6.038462e+000
      vertex   -3.000000e+002 6.795586e+001 6.038462e+000
    endloop
  endfacet
endsolid
