solid ascii
  facet normal 0.000000e+000 1.000000e+000 0.000000e+000
    outer loop
      vertex   -1.385000e+002 9.800000e+001 4.000000e+000
      vertex   -1.385000e+002 9.800000e+001 6.000000e+000
      vertex   -1.365000e+002 9.800000e+001 4.000000e+000
    endloop
  endfacet
  facet normal 0.000000e+000 7.071068e-001 -0.000000e+000
    outer loop
      vertex   -1.365000e+002 9.800000e+001 4.000000e+000
      vertex   -1.385000e+002 9.800000e+001 6.000000e+000
      vertex   -1.365000e+002 9.800000e+001 6.000000e+000
    endloop
  endfacet
  facet normal 0.000000e+000 0.000000e+000 1.000000e+000
    outer loop
      vertex   -1.345000e+002 1.000000e+002 6.000000e+000
      vertex   -1.365000e+002 1.000000e+002 6.000000e+000
      vertex   -1.345000e+002 9.800000e+001 6.000000e+000
    endloop
  endfacet
  facet normal 0.000000e+000 0.000000e+000 7.071068e-001
    outer loop
      vertex   -1.345000e+002 9.800000e+001 6.000000e+000
      vertex   -1.365000e+002 1.000000e+002 6.000000e+000
      vertex   -1.365000e+002 9.800000e+001 6.000000e+000
    endloop
  endfacet
  facet normal -1.000000e+000 0.000000e+000 0.000000e+000
    outer loop
      vertex   -1.365000e+002 9.800000e+001 4.000000e+000
      vertex   -1.365000e+002 9.800000e+001 6.000000e+000
      vertex   -1.365000e+002 1.000000e+002 4.000000e+000
    endloop
  endfacet
  facet normal -7.071068e-001 0.000000e+000 0.000000e+000
    outer loop
      vertex   -1.365000e+002 1.000000e+002 4.000000e+000
      vertex   -1.365000e+002 9.800000e+001 6.000000e+000
      vertex   -1.365000e+002 1.000000e+002 6.000000e+000
    endloop
  endfacet
  facet normal 0.000000e+000 0.000000e+000 1.000000e+000
    outer loop
      vertex   -1.365000e+002 9.800000e+001 6.000000e+000
      vertex   -1.385000e+002 9.800000e+001 6.000000e+000
      vertex   -1.365000e+002 9.600000e+001 6.000000e+000
    endloop
  endfacet
  facet normal 0.000000e+000 0.000000e+000 7.071068e-001
    outer loop
      vertex   -1.365000e+002 9.600000e+001 6.000000e+000
      vertex   -1.385000e+002 9.800000e+001 6.000000e+000
      vertex   -1.385000e+002 9.600000e+001 6.000000e+000
    endloop
  endfacet
  facet normal 0.000000e+000 1.000000e+000 0.000000e+000
    outer loop
      vertex   -1.365000e+002 9.800000e+001 6.000000e+000
      vertex   -1.365000e+002 9.800000e+001 8.000000e+000
      vertex   -1.345000e+002 9.800000e+001 6.000000e+000
    endloop
  endfacet
  facet normal 0.000000e+000 7.071068e-001 -0.000000e+000
    outer loop
      vertex   -1.345000e+002 9.800000e+001 6.000000e+000
      vertex   -1.365000e+002 9.800000e+001 8.000000e+000
      vertex   -1.345000e+002 9.800000e+001 8.000000e+000
    endloop
  endfacet
  facet normal -1.000000e+000 0.000000e+000 0.000000e+000
    outer loop
      vertex   -1.365000e+002 9.600000e+001 6.000000e+000
      vertex   -1.365000e+002 9.600000e+001 8.000000e+000
      vertex   -1.365000e+002 9.800000e+001 6.000000e+000
    endloop
  endfacet
  facet normal -7.071068e-001 0.000000e+000 0.000000e+000
    outer loop
      vertex   -1.365000e+002 9.800000e+001 6.000000e+000
      vertex   -1.365000e+002 9.600000e+001 8.000000e+000
      vertex   -1.365000e+002 9.800000e+001 8.000000e+000
    endloop
  endfacet
  facet normal 0.000000e+000 0.000000e+000 1.000000e+000
    outer loop
      vertex   -1.365000e+002 1.000000e+002 4.000000e+000
      vertex   -1.385000e+002 1.000000e+002 4.000000e+000
      vertex   -1.365000e+002 9.800000e+001 4.000000e+000
    endloop
  endfacet
  facet normal 0.000000e+000 0.000000e+000 7.071068e-001
    outer loop
      vertex   -1.365000e+002 9.800000e+001 4.000000e+000
      vertex   -1.385000e+002 1.000000e+002 4.000000e+000
      vertex   -1.385000e+002 9.800000e+001 4.000000e+000
    endloop
  endfacet
  facet normal -1.000000e+000 -0.000000e+000 -0.000000e+000
    outer loop
      vertex   -1.385000e+002 1.000000e+002 4.000000e+000
      vertex   -1.385000e+002 1.000000e+002 2.000000e+000
      vertex   -1.385000e+002 9.800000e+001 4.000000e+000
    endloop
  endfacet
  facet normal -1.000000e+000 0.000000e+000 -0.000000e+000
    outer loop
      vertex   -1.385000e+002 9.800000e+001 4.000000e+000
      vertex   -1.385000e+002 1.000000e+002 2.000000e+000
      vertex   -1.385000e+002 9.600000e+001 2.000000e+000
    endloop
  endfacet
  facet normal -1.000000e+000 -0.000000e+000 0.000000e+000
    outer loop
      vertex   -1.385000e+002 9.800000e+001 4.000000e+000
      vertex   -1.385000e+002 9.600000e+001 2.000000e+000
      vertex   -1.385000e+002 9.600000e+001 6.000000e+000
    endloop
  endfacet
  facet normal -7.071068e-001 0.000000e+000 0.000000e+000
    outer loop
      vertex   -1.385000e+002 9.600000e+001 6.000000e+000
      vertex   -1.385000e+002 9.800000e+001 6.000000e+000
      vertex   -1.385000e+002 9.800000e+001 4.000000e+000
    endloop
  endfacet
  facet normal 0.000000e+000 7.071068e-001 0.000000e+000
    outer loop
      vertex   -1.345000e+002 1.000000e+002 6.000000e+000
      vertex   -1.345000e+002 1.000000e+002 2.000000e+000
      vertex   -1.365000e+002 1.000000e+002 4.000000e+000
    endloop
  endfacet
  facet normal 0.000000e+000 1.000000e+000 0.000000e+000
    outer loop
      vertex   -1.365000e+002 1.000000e+002 4.000000e+000
      vertex   -1.345000e+002 1.000000e+002 2.000000e+000
      vertex   -1.385000e+002 1.000000e+002 2.000000e+000
    endloop
  endfacet
  facet normal 0.000000e+000 7.071068e-001 0.000000e+000
    outer loop
      vertex   -1.365000e+002 1.000000e+002 4.000000e+000
      vertex   -1.385000e+002 1.000000e+002 2.000000e+000
      vertex   -1.385000e+002 1.000000e+002 4.000000e+000
    endloop
  endfacet
  facet normal 0.000000e+000 7.071068e-001 0.000000e+000
    outer loop
      vertex   -1.365000e+002 1.000000e+002 4.000000e+000
      vertex   -1.365000e+002 1.000000e+002 6.000000e+000
      vertex   -1.345000e+002 1.000000e+002 6.000000e+000
    endloop
  endfacet
  facet normal 0.000000e+000 -0.000000e+000 1.000000e+000
    outer loop
      vertex   -1.345000e+002 1.000000e+002 2.000000e+000
      vertex   -1.345000e+002 1.140000e+002 2.000000e+000
      vertex   -1.385000e+002 1.000000e+002 2.000000e+000
    endloop
  endfacet
  facet normal 0.000000e+000 -0.000000e+000 6.977423e-001
    outer loop
      vertex   -1.385000e+002 1.000000e+002 2.000000e+000
      vertex   -1.345000e+002 1.140000e+002 2.000000e+000
      vertex   -1.455000e+002 1.130000e+002 2.000000e+000
    endloop
  endfacet
  facet normal 0.000000e+000 0.000000e+000 9.995412e-001
    outer loop
      vertex   -1.385000e+002 1.000000e+002 2.000000e+000
      vertex   -1.455000e+002 1.130000e+002 2.000000e+000
      vertex   -1.465000e+002 9.600000e+001 2.000000e+000
    endloop
  endfacet
  facet normal 0.000000e+000 0.000000e+000 5.872202e-002
    outer loop
      vertex   -1.465000e+002 9.600000e+001 2.000000e+000
      vertex   -1.455000e+002 1.130000e+002 2.000000e+000
      vertex   -1.465000e+002 1.130000e+002 2.000000e+000
    endloop
  endfacet
  facet normal 0.000000e+000 0.000000e+000 9.053575e-002
    outer loop
      vertex   -1.345000e+002 1.140000e+002 2.000000e+000
      vertex   -1.455000e+002 1.140000e+002 2.000000e+000
      vertex   -1.455000e+002 1.130000e+002 2.000000e+000
    endloop
  endfacet
  facet normal 0.000000e+000 0.000000e+000 4.472136e-001
    outer loop
      vertex   -1.465000e+002 9.600000e+001 2.000000e+000
      vertex   -1.385000e+002 9.600000e+001 2.000000e+000
      vertex   -1.385000e+002 1.000000e+002 2.000000e+000
    endloop
  endfacet
  facet normal 0.000000e+000 1.000000e+000 0.000000e+000
    outer loop
      vertex   -1.565000e+002 1.280000e+002 0.000000e+000
      vertex   -1.565000e+002 1.280000e+002 1.000000e+000
      vertex   -1.345000e+002 1.280000e+002 0.000000e+000
    endloop
  endfacet
  facet normal 0.000000e+000 9.989685e-001 -0.000000e+000
    outer loop
      vertex   -1.345000e+002 1.280000e+002 0.000000e+000
      vertex   -1.565000e+002 1.280000e+002 1.000000e+000
      vertex   -1.345000e+002 1.280000e+002 1.000000e+000
    endloop
  endfacet
  facet normal -1.000000e+000 0.000000e+000 0.000000e+000
    outer loop
      vertex   -1.565000e+002 1.280000e+002 0.000000e+000
      vertex   -1.565000e+002 9.600000e+001 0.000000e+000
      vertex   -1.565000e+002 1.280000e+002 1.000000e+000
    endloop
  endfacet
  facet normal -3.123475e-002 -0.000000e+000 0.000000e+000
    outer loop
      vertex   -1.565000e+002 1.280000e+002 1.000000e+000
      vertex   -1.565000e+002 9.600000e+001 0.000000e+000
      vertex   -1.565000e+002 9.600000e+001 1.000000e+000
    endloop
  endfacet
  facet normal -1.000000e+000 0.000000e+000 0.000000e+000
    outer loop
      vertex   -1.465000e+002 9.600000e+001 1.000000e+000
      vertex   -1.465000e+002 9.600000e+001 2.000000e+000
      vertex   -1.465000e+002 1.130000e+002 1.000000e+000
    endloop
  endfacet
  facet normal -9.982744e-001 0.000000e+000 0.000000e+000
    outer loop
      vertex   -1.465000e+002 1.130000e+002 1.000000e+000
      vertex   -1.465000e+002 9.600000e+001 2.000000e+000
      vertex   -1.465000e+002 1.130000e+002 2.000000e+000
    endloop
  endfacet
  facet normal -1.000000e+000 -0.000000e+000 -0.000000e+000
    outer loop
      vertex   -1.455000e+002 1.140000e+002 2.000000e+000
      vertex   -1.455000e+002 1.140000e+002 1.000000e+000
      vertex   -1.455000e+002 1.130000e+002 2.000000e+000
    endloop
  endfacet
  facet normal -7.071069e-001 0.000000e+000 0.000000e+000
    outer loop
      vertex   -1.455000e+002 1.130000e+002 2.000000e+000
      vertex   -1.455000e+002 1.140000e+002 1.000000e+000
      vertex   -1.455000e+002 1.130000e+002 1.000000e+000
    endloop
  endfacet
  facet normal 0.000000e+000 -0.000000e+000 1.000000e+000
    outer loop
      vertex   -1.455000e+002 1.130000e+002 1.000000e+000
      vertex   -1.455000e+002 1.140000e+002 1.000000e+000
      vertex   -1.465000e+002 1.130000e+002 1.000000e+000
    endloop
  endfacet
  facet normal -9.351546e-009 9.351546e-009 9.805807e-001
    outer loop
      vertex   -1.465000e+002 1.130000e+002 1.000000e+000
      vertex   -1.455000e+002 1.140000e+002 1.000000e+000
      vertex   -1.565000e+002 1.280000e+002 1.000000e+000
    endloop
  endfacet
  facet normal -2.145723e-008 0.000000e+000 8.999813e-001
    outer loop
      vertex   -1.465000e+002 1.130000e+002 1.000000e+000
      vertex   -1.565000e+002 1.280000e+002 1.000000e+000
      vertex   -1.565000e+002 9.600000e+001 1.000000e+000
    endloop
  endfacet
  facet normal 2.167442e-008 -0.000000e+000 1.000000e+000
    outer loop
      vertex   -1.345000e+002 1.140000e+002 1.000000e+000
      vertex   -1.345000e+002 1.280000e+002 1.000000e+000
      vertex   -1.455000e+002 1.140000e+002 1.000000e+000
    endloop
  endfacet
  facet normal 0.000000e+000 1.654640e-008 9.716088e-001
    outer loop
      vertex   -1.455000e+002 1.140000e+002 1.000000e+000
      vertex   -1.345000e+002 1.280000e+002 1.000000e+000
      vertex   -1.565000e+002 1.280000e+002 1.000000e+000
    endloop
  endfacet
  facet normal 0.000000e+000 -1.208830e-008 8.619342e-001
    outer loop
      vertex   -1.565000e+002 9.600000e+001 1.000000e+000
      vertex   -1.465000e+002 9.600000e+001 1.000000e+000
      vertex   -1.465000e+002 1.130000e+002 1.000000e+000
    endloop
  endfacet
  facet normal 0.000000e+000 1.000000e+000 0.000000e+000
    outer loop
      vertex   -1.465000e+002 1.130000e+002 1.000000e+000
      vertex   -1.465000e+002 1.130000e+002 2.000000e+000
      vertex   -1.455000e+002 1.130000e+002 1.000000e+000
    endloop
  endfacet
  facet normal 0.000000e+000 7.071069e-001 -0.000000e+000
    outer loop
      vertex   -1.455000e+002 1.130000e+002 1.000000e+000
      vertex   -1.465000e+002 1.130000e+002 2.000000e+000
      vertex   -1.455000e+002 1.130000e+002 2.000000e+000
    endloop
  endfacet
  facet normal 0.000000e+000 1.000000e+000 -0.000000e+000
    outer loop
      vertex   -1.345000e+002 1.140000e+002 1.000000e+000
      vertex   -1.455000e+002 1.140000e+002 1.000000e+000
      vertex   -1.345000e+002 1.140000e+002 2.000000e+000
    endloop
  endfacet
  facet normal 0.000000e+000 9.053572e-002 0.000000e+000
    outer loop
      vertex   -1.345000e+002 1.140000e+002 2.000000e+000
      vertex   -1.455000e+002 1.140000e+002 1.000000e+000
      vertex   -1.455000e+002 1.140000e+002 2.000000e+000
    endloop
  endfacet
  facet normal 0.000000e+000 0.000000e+000 -1.000000e+000
    outer loop
      vertex   -1.345000e+002 9.600000e+001 0.000000e+000
      vertex   -1.565000e+002 9.600000e+001 0.000000e+000
      vertex   -1.345000e+002 1.280000e+002 0.000000e+000
    endloop
  endfacet
  facet normal -0.000000e+000 0.000000e+000 -8.240419e-001
    outer loop
      vertex   -1.345000e+002 1.280000e+002 0.000000e+000
      vertex   -1.565000e+002 9.600000e+001 0.000000e+000
      vertex   -1.565000e+002 1.280000e+002 0.000000e+000
    endloop
  endfacet
  facet normal 0.000000e+000 0.000000e+000 1.000000e+000
    outer loop
      vertex   -1.345000e+002 9.800000e+001 8.000000e+000
      vertex   -1.365000e+002 9.800000e+001 8.000000e+000
      vertex   -1.345000e+002 9.600000e+001 8.000000e+000
    endloop
  endfacet
  facet normal 0.000000e+000 0.000000e+000 7.071068e-001
    outer loop
      vertex   -1.345000e+002 9.600000e+001 8.000000e+000
      vertex   -1.365000e+002 9.800000e+001 8.000000e+000
      vertex   -1.365000e+002 9.600000e+001 8.000000e+000
    endloop
  endfacet
  facet normal 0.000000e+000 -1.000000e+000 0.000000e+000
    outer loop
      vertex   -1.365000e+002 9.600000e+001 8.000000e+000
      vertex   -1.365000e+002 9.600000e+001 6.000000e+000
      vertex   -1.345000e+002 9.600000e+001 8.000000e+000
    endloop
  endfacet
  facet normal 0.000000e+000 -7.071068e-001 -0.000000e+000
    outer loop
      vertex   -1.345000e+002 9.600000e+001 8.000000e+000
      vertex   -1.365000e+002 9.600000e+001 6.000000e+000
      vertex   -1.345000e+002 9.600000e+001 0.000000e+000
    endloop
  endfacet
  facet normal 0.000000e+000 -7.071068e-001 0.000000e+000
    outer loop
      vertex   -1.345000e+002 9.600000e+001 0.000000e+000
      vertex   -1.365000e+002 9.600000e+001 6.000000e+000
      vertex   -1.385000e+002 9.600000e+001 2.000000e+000
    endloop
  endfacet
  facet normal 0.000000e+000 -3.713907e-001 0.000000e+000
    outer loop
      vertex   -1.345000e+002 9.600000e+001 0.000000e+000
      vertex   -1.385000e+002 9.600000e+001 2.000000e+000
      vertex   -1.465000e+002 9.600000e+001 1.000000e+000
    endloop
  endfacet
  facet normal 0.000000e+000 -9.922779e-001 0.000000e+000
    outer loop
      vertex   -1.465000e+002 9.600000e+001 1.000000e+000
      vertex   -1.385000e+002 9.600000e+001 2.000000e+000
      vertex   -1.465000e+002 9.600000e+001 2.000000e+000
    endloop
  endfacet
  facet normal -0.000000e+000 -8.944272e-001 0.000000e+000
    outer loop
      vertex   -1.365000e+002 9.600000e+001 6.000000e+000
      vertex   -1.385000e+002 9.600000e+001 6.000000e+000
      vertex   -1.385000e+002 9.600000e+001 2.000000e+000
    endloop
  endfacet
  facet normal 0.000000e+000 -1.000000e+000 0.000000e+000
    outer loop
      vertex   -1.565000e+002 9.600000e+001 1.000000e+000
      vertex   -1.565000e+002 9.600000e+001 0.000000e+000
      vertex   -1.465000e+002 9.600000e+001 1.000000e+000
    endloop
  endfacet
  facet normal 0.000000e+000 -1.817933e-001 -0.000000e+000
    outer loop
      vertex   -1.465000e+002 9.600000e+001 1.000000e+000
      vertex   -1.565000e+002 9.600000e+001 0.000000e+000
      vertex   -1.345000e+002 9.600000e+001 0.000000e+000
    endloop
  endfacet
  facet normal 1.000000e+000 0.000000e+000 0.000000e+000
    outer loop
      vertex   -1.345000e+002 9.800000e+001 8.000000e+000
      vertex   -1.345000e+002 9.600000e+001 8.000000e+000
      vertex   -1.345000e+002 9.800000e+001 6.000000e+000
    endloop
  endfacet
  facet normal 8.944272e-001 0.000000e+000 0.000000e+000
    outer loop
      vertex   -1.345000e+002 9.800000e+001 6.000000e+000
      vertex   -1.345000e+002 9.600000e+001 8.000000e+000
      vertex   -1.345000e+002 9.600000e+001 0.000000e+000
    endloop
  endfacet
  facet normal 7.071068e-001 0.000000e+000 0.000000e+000
    outer loop
      vertex   -1.345000e+002 9.800000e+001 6.000000e+000
      vertex   -1.345000e+002 9.600000e+001 0.000000e+000
      vertex   -1.345000e+002 1.000000e+002 2.000000e+000
    endloop
  endfacet
  facet normal 5.098024e-001 0.000000e+000 0.000000e+000
    outer loop
      vertex   -1.345000e+002 1.000000e+002 2.000000e+000
      vertex   -1.345000e+002 9.600000e+001 0.000000e+000
      vertex   -1.345000e+002 1.140000e+002 1.000000e+000
    endloop
  endfacet
  facet normal 7.124705e-002 -0.000000e+000 0.000000e+000
    outer loop
      vertex   -1.345000e+002 1.000000e+002 2.000000e+000
      vertex   -1.345000e+002 1.140000e+002 1.000000e+000
      vertex   -1.345000e+002 1.140000e+002 2.000000e+000
    endloop
  endfacet
  facet normal 5.547002e-002 0.000000e+000 0.000000e+000
    outer loop
      vertex   -1.345000e+002 9.600000e+001 0.000000e+000
      vertex   -1.345000e+002 1.280000e+002 0.000000e+000
      vertex   -1.345000e+002 1.140000e+002 1.000000e+000
    endloop
  endfacet
  facet normal 7.124705e-002 -0.000000e+000 0.000000e+000
    outer loop
      vertex   -1.345000e+002 1.140000e+002 1.000000e+000
      vertex   -1.345000e+002 1.280000e+002 0.000000e+000
      vertex   -1.345000e+002 1.280000e+002 1.000000e+000
    endloop
  endfacet
  facet normal 4.472136e-001 0.000000e+000 -0.000000e+000
    outer loop
      vertex   -1.345000e+002 1.000000e+002 2.000000e+000
      vertex   -1.345000e+002 1.000000e+002 6.000000e+000
      vertex   -1.345000e+002 9.800000e+001 6.000000e+000
    endloop
  endfacet
endsolid
