solid ascii
  facet normal -1.700368e-007 1.511438e-007 8.320503e-001
    outer loop
      vertex   8.200000e+001 1.320000e+002 1.400000e+001
      vertex   7.800000e+001 1.380000e+002 1.400000e+001
      vertex   6.800000e+001 1.320000e+002 1.400000e+001
    endloop
  endfacet
  facet normal 0.000000e+000 -1.034405e-007 6.507913e-001
    outer loop
      vertex   6.800000e+001 1.320000e+002 1.400000e+001
      vertex   7.800000e+001 1.380000e+002 1.400000e+001
      vertex   7.000000e+001 1.380000e+002 1.400000e+001
    endloop
  endfacet
  facet normal -1.050286e-007 0.000000e+000 2.202609e-001
    outer loop
      vertex   6.800000e+001 1.320000e+002 1.400000e+001
      vertex   7.000000e+001 1.380000e+002 1.400000e+001
      vertex   7.000000e+001 1.520000e+002 1.400000e+001
    endloop
  endfacet
  facet normal -2.645017e-007 0.000000e+000 5.547002e-001
    outer loop
      vertex   8.200000e+001 1.320000e+002 1.400000e+001
      vertex   8.200000e+001 1.440000e+002 1.400000e+001
      vertex   7.800000e+001 1.380000e+002 1.400000e+001
    endloop
  endfacet
  facet normal -2.645017e-007 0.000000e+000 5.547002e-001
    outer loop
      vertex   7.800000e+001 1.380000e+002 1.400000e+001
      vertex   8.200000e+001 1.440000e+002 1.400000e+001
      vertex   7.800000e+001 1.440000e+002 1.400000e+001
    endloop
  endfacet
  facet normal -4.768372e-007 0.000000e+000 1.000000e+000
    outer loop
      vertex   7.800000e+001 1.440000e+002 1.400000e+001
      vertex   8.200000e+001 1.440000e+002 1.400000e+001
      vertex   7.800000e+001 1.460000e+002 1.400000e+001
    endloop
  endfacet
  facet normal 0.000000e+000 -0.000000e+000 1.000000e+000
    outer loop
      vertex   7.800000e+001 1.440000e+002 1.400000e+001
      vertex   7.800000e+001 1.460000e+002 1.400000e+001
      vertex   7.400000e+001 1.440000e+002 1.400000e+001
    endloop
  endfacet
  facet normal 0.000000e+000 0.000000e+000 8.944272e-001
    outer loop
      vertex   7.400000e+001 1.440000e+002 1.400000e+001
      vertex   7.800000e+001 1.460000e+002 1.400000e+001
      vertex   7.400000e+001 1.460000e+002 1.400000e+001
    endloop
  endfacet
  facet normal -2.132481e-007 0.000000e+000 4.472136e-001
    outer loop
      vertex   7.800000e+001 1.460000e+002 1.400000e+001
      vertex   8.200000e+001 1.440000e+002 1.400000e+001
      vertex   8.200000e+001 1.460000e+002 1.400000e+001
    endloop
  endfacet
  facet normal 8.529922e-007 0.000000e+000 4.472136e-001
    outer loop
      vertex   8.200000e+001 1.460000e+002 1.400000e+001
      vertex   8.200000e+001 1.440000e+002 1.400000e+001
      vertex   8.300000e+001 1.440000e+002 1.400000e+001
    endloop
  endfacet
  facet normal 1.705984e-006 0.000000e+000 8.944272e-001
    outer loop
      vertex   8.200000e+001 1.460000e+002 1.400000e+001
      vertex   8.300000e+001 1.440000e+002 1.400000e+001
      vertex   8.300000e+001 1.460000e+002 1.400000e+001
    endloop
  endfacet
  facet normal -4.768372e-007 0.000000e+000 1.000000e+000
    outer loop
      vertex   7.800000e+001 1.460000e+002 1.400000e+001
      vertex   8.200000e+001 1.460000e+002 1.400000e+001
      vertex   7.800000e+001 1.520000e+002 1.400000e+001
    endloop
  endfacet
  facet normal -4.401574e-007 0.000000e+000 9.230769e-001
    outer loop
      vertex   7.800000e+001 1.520000e+002 1.400000e+001
      vertex   8.200000e+001 1.460000e+002 1.400000e+001
      vertex   8.200000e+001 1.580000e+002 1.400000e+001
    endloop
  endfacet
  facet normal -1.360850e-007 -2.268083e-007 9.988682e-001
    outer loop
      vertex   7.800000e+001 1.520000e+002 1.400000e+001
      vertex   8.200000e+001 1.580000e+002 1.400000e+001
      vertex   6.800000e+001 1.580000e+002 1.400000e+001
    endloop
  endfacet
  facet normal 0.000000e+000 0.000000e+000 5.144957e-001
    outer loop
      vertex   7.800000e+001 1.520000e+002 1.400000e+001
      vertex   6.800000e+001 1.580000e+002 1.400000e+001
      vertex   7.000000e+001 1.520000e+002 1.400000e+001
    endloop
  endfacet
  facet normal -4.501224e-008 -1.500408e-008 4.090559e-001
    outer loop
      vertex   7.000000e+001 1.520000e+002 1.400000e+001
      vertex   6.800000e+001 1.580000e+002 1.400000e+001
      vertex   6.800000e+001 1.320000e+002 1.400000e+001
    endloop
  endfacet
  facet normal 0.000000e+000 0.000000e+000 -1.000000e+000
    outer loop
      vertex   8.600000e+001 1.280000e+002 -2.384186e-007
      vertex   6.400000e+001 1.280000e+002 -2.384186e-007
      vertex   8.600000e+001 1.600000e+002 -2.384186e-007
    endloop
  endfacet
  facet normal -0.000000e+000 0.000000e+000 -8.240419e-001
    outer loop
      vertex   8.600000e+001 1.600000e+002 -2.384186e-007
      vertex   6.400000e+001 1.280000e+002 -2.384186e-007
      vertex   6.400000e+001 1.600000e+002 -2.384186e-007
    endloop
  endfacet
  facet normal 0.000000e+000 0.000000e+000 8.944272e-001
    outer loop
      vertex   6.400000e+001 1.600000e+002 1.800000e+001
      vertex   6.400000e+001 1.380000e+002 1.800000e+001
      vertex   6.800000e+001 1.580000e+002 1.800000e+001
    endloop
  endfacet
  facet normal 0.000000e+000 0.000000e+000 9.757143e-002
    outer loop
      vertex   6.800000e+001 1.580000e+002 1.800000e+001
      vertex   6.400000e+001 1.380000e+002 1.800000e+001
      vertex   6.600000e+001 1.380000e+002 1.800000e+001
    endloop
  endfacet
  facet normal 0.000000e+000 0.000000e+000 9.950372e-002
    outer loop
      vertex   6.800000e+001 1.580000e+002 1.800000e+001
      vertex   6.600000e+001 1.380000e+002 1.800000e+001
      vertex   6.800000e+001 1.360000e+002 1.800000e+001
    endloop
  endfacet
  facet normal 0.000000e+000 0.000000e+000 7.071068e-001
    outer loop
      vertex   6.800000e+001 1.360000e+002 1.800000e+001
      vertex   6.600000e+001 1.380000e+002 1.800000e+001
      vertex   6.600000e+001 1.360000e+002 1.800000e+001
    endloop
  endfacet
  facet normal -0.000000e+000 0.000000e+000 4.472136e-001
    outer loop
      vertex   6.400000e+001 1.600000e+002 1.800000e+001
      vertex   6.800000e+001 1.580000e+002 1.800000e+001
      vertex   8.600000e+001 1.600000e+002 1.800000e+001
    endloop
  endfacet
  facet normal 0.000000e+000 0.000000e+000 6.246951e-001
    outer loop
      vertex   8.600000e+001 1.600000e+002 1.800000e+001
      vertex   6.800000e+001 1.580000e+002 1.800000e+001
      vertex   8.400000e+001 1.580000e+002 1.800000e+001
    endloop
  endfacet
  facet normal 0.000000e+000 0.000000e+000 7.071068e-001
    outer loop
      vertex   8.600000e+001 1.600000e+002 1.800000e+001
      vertex   8.400000e+001 1.580000e+002 1.800000e+001
      vertex   8.600000e+001 1.540000e+002 1.800000e+001
    endloop
  endfacet
  facet normal 0.000000e+000 0.000000e+000 8.944272e-001
    outer loop
      vertex   8.600000e+001 1.540000e+002 1.800000e+001
      vertex   8.400000e+001 1.580000e+002 1.800000e+001
      vertex   8.400000e+001 1.540000e+002 1.800000e+001
    endloop
  endfacet
  facet normal 0.000000e+000 0.000000e+000 1.000000e+000
    outer loop
      vertex   8.400000e+001 1.460000e+002 1.300000e+001
      vertex   8.300000e+001 1.460000e+002 1.300000e+001
      vertex   8.400000e+001 1.440000e+002 1.300000e+001
    endloop
  endfacet
  facet normal 0.000000e+000 0.000000e+000 8.944272e-001
    outer loop
      vertex   8.400000e+001 1.440000e+002 1.300000e+001
      vertex   8.300000e+001 1.460000e+002 1.300000e+001
      vertex   8.300000e+001 1.440000e+002 1.300000e+001
    endloop
  endfacet
  facet normal 1.000000e+000 -0.000000e+000 0.000000e+000
    outer loop
      vertex   8.400000e+001 1.440000e+002 1.300000e+001
      vertex   8.400000e+001 1.440000e+002 1.200000e+001
      vertex   8.400000e+001 1.460000e+002 1.300000e+001
    endloop
  endfacet
  facet normal 8.944272e-001 0.000000e+000 0.000000e+000
    outer loop
      vertex   8.400000e+001 1.460000e+002 1.300000e+001
      vertex   8.400000e+001 1.440000e+002 1.200000e+001
      vertex   8.400000e+001 1.460000e+002 1.200000e+001
    endloop
  endfacet
  facet normal 1.000000e+000 0.000000e+000 -0.000000e+000
    outer loop
      vertex   8.300000e+001 1.460000e+002 1.300000e+001
      vertex   8.300000e+001 1.460000e+002 1.400000e+001
      vertex   8.300000e+001 1.440000e+002 1.300000e+001
    endloop
  endfacet
  facet normal 8.944272e-001 0.000000e+000 0.000000e+000
    outer loop
      vertex   8.300000e+001 1.440000e+002 1.300000e+001
      vertex   8.300000e+001 1.460000e+002 1.400000e+001
      vertex   8.300000e+001 1.440000e+002 1.400000e+001
    endloop
  endfacet
  facet normal 0.000000e+000 0.000000e+000 1.000000e+000
    outer loop
      vertex   8.400000e+001 1.440000e+002 1.200000e+001
      vertex   8.500000e+001 1.440000e+002 1.200000e+001
      vertex   8.400000e+001 1.460000e+002 1.200000e+001
    endloop
  endfacet
  facet normal -0.000000e+000 0.000000e+000 8.944272e-001
    outer loop
      vertex   8.400000e+001 1.460000e+002 1.200000e+001
      vertex   8.500000e+001 1.440000e+002 1.200000e+001
      vertex   8.500000e+001 1.460000e+002 1.200000e+001
    endloop
  endfacet
  facet normal 0.000000e+000 1.000000e+000 0.000000e+000
    outer loop
      vertex   8.400000e+001 1.440000e+002 1.200000e+001
      vertex   8.400000e+001 1.440000e+002 1.300000e+001
      vertex   8.500000e+001 1.440000e+002 1.200000e+001
    endloop
  endfacet
  facet normal 0.000000e+000 8.574929e-001 -0.000000e+000
    outer loop
      vertex   8.500000e+001 1.440000e+002 1.200000e+001
      vertex   8.400000e+001 1.440000e+002 1.300000e+001
      vertex   8.600000e+001 1.440000e+002 1.600000e+001
    endloop
  endfacet
  facet normal -0.000000e+000 8.574929e-001 0.000000e+000
    outer loop
      vertex   8.500000e+001 1.440000e+002 1.200000e+001
      vertex   8.600000e+001 1.440000e+002 1.600000e+001
      vertex   8.600000e+001 1.440000e+002 1.100000e+001
    endloop
  endfacet
  facet normal 0.000000e+000 1.000000e+000 0.000000e+000
    outer loop
      vertex   8.300000e+001 1.440000e+002 1.300000e+001
      vertex   8.300000e+001 1.440000e+002 1.400000e+001
      vertex   8.400000e+001 1.440000e+002 1.300000e+001
    endloop
  endfacet
  facet normal 0.000000e+000 9.805807e-001 -0.000000e+000
    outer loop
      vertex   8.400000e+001 1.440000e+002 1.300000e+001
      vertex   8.300000e+001 1.440000e+002 1.400000e+001
      vertex   8.600000e+001 1.440000e+002 1.600000e+001
    endloop
  endfacet
  facet normal -0.000000e+000 1.000000e+000 0.000000e+000
    outer loop
      vertex   8.200000e+001 1.440000e+002 1.400000e+001
      vertex   8.200000e+001 1.440000e+002 1.600000e+001
      vertex   8.300000e+001 1.440000e+002 1.400000e+001
    endloop
  endfacet
  facet normal 0.000000e+000 9.922778e-001 -0.000000e+000
    outer loop
      vertex   8.300000e+001 1.440000e+002 1.400000e+001
      vertex   8.200000e+001 1.440000e+002 1.600000e+001
      vertex   8.600000e+001 1.440000e+002 1.600000e+001
    endloop
  endfacet
  facet normal 0.000000e+000 7.071068e-001 0.000000e+000
    outer loop
      vertex   8.600000e+001 1.440000e+002 1.100000e+001
      vertex   8.500000e+001 1.440000e+002 1.100000e+001
      vertex   8.500000e+001 1.440000e+002 1.200000e+001
    endloop
  endfacet
  facet normal 0.000000e+000 0.000000e+000 1.000000e+000
    outer loop
      vertex   8.600000e+001 1.460000e+002 1.100000e+001
      vertex   8.500000e+001 1.460000e+002 1.100000e+001
      vertex   8.600000e+001 1.440000e+002 1.100000e+001
    endloop
  endfacet
  facet normal 0.000000e+000 0.000000e+000 8.944272e-001
    outer loop
      vertex   8.600000e+001 1.440000e+002 1.100000e+001
      vertex   8.500000e+001 1.460000e+002 1.100000e+001
      vertex   8.500000e+001 1.440000e+002 1.100000e+001
    endloop
  endfacet
  facet normal 1.000000e+000 0.000000e+000 -0.000000e+000
    outer loop
      vertex   8.500000e+001 1.460000e+002 1.100000e+001
      vertex   8.500000e+001 1.460000e+002 1.200000e+001
      vertex   8.500000e+001 1.440000e+002 1.100000e+001
    endloop
  endfacet
  facet normal 8.944272e-001 0.000000e+000 0.000000e+000
    outer loop
      vertex   8.500000e+001 1.440000e+002 1.100000e+001
      vertex   8.500000e+001 1.460000e+002 1.200000e+001
      vertex   8.500000e+001 1.440000e+002 1.200000e+001
    endloop
  endfacet
  facet normal -1.000000e+000 0.000000e+000 0.000000e+000
    outer loop
      vertex   8.400000e+001 1.540000e+002 1.600000e+001
      vertex   8.400000e+001 1.540000e+002 1.800000e+001
      vertex   8.400000e+001 1.580000e+002 1.600000e+001
    endloop
  endfacet
  facet normal -8.944274e-001 0.000000e+000 0.000000e+000
    outer loop
      vertex   8.400000e+001 1.580000e+002 1.600000e+001
      vertex   8.400000e+001 1.540000e+002 1.800000e+001
      vertex   8.400000e+001 1.580000e+002 1.800000e+001
    endloop
  endfacet
  facet normal 0.000000e+000 -1.000000e+000 0.000000e+000
    outer loop
      vertex   8.400000e+001 1.460000e+002 1.200000e+001
      vertex   8.500000e+001 1.460000e+002 1.200000e+001
      vertex   8.400000e+001 1.460000e+002 1.300000e+001
    endloop
  endfacet
  facet normal 0.000000e+000 -9.805807e-001 0.000000e+000
    outer loop
      vertex   8.400000e+001 1.460000e+002 1.300000e+001
      vertex   8.500000e+001 1.460000e+002 1.200000e+001
      vertex   8.600000e+001 1.460000e+002 1.600000e+001
    endloop
  endfacet
  facet normal 0.000000e+000 -9.805807e-001 0.000000e+000
    outer loop
      vertex   8.400000e+001 1.460000e+002 1.300000e+001
      vertex   8.600000e+001 1.460000e+002 1.600000e+001
      vertex   8.300000e+001 1.460000e+002 1.400000e+001
    endloop
  endfacet
  facet normal 0.000000e+000 -9.922778e-001 0.000000e+000
    outer loop
      vertex   8.300000e+001 1.460000e+002 1.400000e+001
      vertex   8.600000e+001 1.460000e+002 1.600000e+001
      vertex   8.200000e+001 1.460000e+002 1.600000e+001
    endloop
  endfacet
  facet normal 0.000000e+000 -8.944265e-001 0.000000e+000
    outer loop
      vertex   8.300000e+001 1.460000e+002 1.400000e+001
      vertex   8.200000e+001 1.460000e+002 1.600000e+001
      vertex   8.200000e+001 1.460000e+002 1.400000e+001
    endloop
  endfacet
  facet normal 0.000000e+000 -1.000000e+000 0.000000e+000
    outer loop
      vertex   8.500000e+001 1.460000e+002 1.100000e+001
      vertex   8.600000e+001 1.460000e+002 1.100000e+001
      vertex   8.500000e+001 1.460000e+002 1.200000e+001
    endloop
  endfacet
  facet normal 0.000000e+000 -8.574929e-001 0.000000e+000
    outer loop
      vertex   8.500000e+001 1.460000e+002 1.200000e+001
      vertex   8.600000e+001 1.460000e+002 1.100000e+001
      vertex   8.600000e+001 1.460000e+002 1.600000e+001
    endloop
  endfacet
  facet normal 0.000000e+000 -7.071068e-001 0.000000e+000
    outer loop
      vertex   8.300000e+001 1.460000e+002 1.400000e+001
      vertex   8.300000e+001 1.460000e+002 1.300000e+001
      vertex   8.400000e+001 1.460000e+002 1.300000e+001
    endloop
  endfacet
  facet normal 0.000000e+000 -1.000000e+000 0.000000e+000
    outer loop
      vertex   8.600000e+001 1.540000e+002 1.600000e+001
      vertex   8.600000e+001 1.540000e+002 1.800000e+001
      vertex   8.400000e+001 1.540000e+002 1.600000e+001
    endloop
  endfacet
  facet normal 0.000000e+000 -7.071068e-001 0.000000e+000
    outer loop
      vertex   8.400000e+001 1.540000e+002 1.600000e+001
      vertex   8.600000e+001 1.540000e+002 1.800000e+001
      vertex   8.400000e+001 1.540000e+002 1.800000e+001
    endloop
  endfacet
  facet normal -0.000000e+000 -1.000000e+000 0.000000e+000
    outer loop
      vertex   8.200000e+001 1.580000e+002 1.400000e+001
      vertex   8.200000e+001 1.580000e+002 1.600000e+001
      vertex   6.800000e+001 1.580000e+002 1.400000e+001
    endloop
  endfacet
  facet normal 0.000000e+000 -9.899495e-001 0.000000e+000
    outer loop
      vertex   6.800000e+001 1.580000e+002 1.400000e+001
      vertex   8.200000e+001 1.580000e+002 1.600000e+001
      vertex   6.800000e+001 1.580000e+002 1.800000e+001
    endloop
  endfacet
  facet normal 0.000000e+000 -1.414212e-001 0.000000e+000
    outer loop
      vertex   6.800000e+001 1.580000e+002 1.800000e+001
      vertex   8.200000e+001 1.580000e+002 1.600000e+001
      vertex   8.400000e+001 1.580000e+002 1.800000e+001
    endloop
  endfacet
  facet normal 0.000000e+000 -7.071071e-001 -0.000000e+000
    outer loop
      vertex   8.400000e+001 1.580000e+002 1.800000e+001
      vertex   8.200000e+001 1.580000e+002 1.600000e+001
      vertex   8.400000e+001 1.580000e+002 1.600000e+001
    endloop
  endfacet
  facet normal 0.000000e+000 -4.768372e-007 1.000000e+000
    outer loop
      vertex   8.400000e+001 1.580000e+002 1.600000e+001
      vertex   8.200000e+001 1.580000e+002 1.600000e+001
      vertex   8.400000e+001 1.540000e+002 1.600000e+001
    endloop
  endfacet
  facet normal 6.206430e-007 0.000000e+000 6.507913e-001
    outer loop
      vertex   8.400000e+001 1.540000e+002 1.600000e+001
      vertex   8.200000e+001 1.580000e+002 1.600000e+001
      vertex   8.200000e+001 1.460000e+002 1.600000e+001
    endloop
  endfacet
  facet normal 2.243940e-007 5.609849e-008 4.705882e-001
    outer loop
      vertex   8.400000e+001 1.540000e+002 1.600000e+001
      vertex   8.200000e+001 1.460000e+002 1.600000e+001
      vertex   8.600000e+001 1.460000e+002 1.600000e+001
    endloop
  endfacet
  facet normal 0.000000e+000 -0.000000e+000 2.425356e-001
    outer loop
      vertex   8.600000e+001 1.460000e+002 1.600000e+001
      vertex   8.600000e+001 1.540000e+002 1.600000e+001
      vertex   8.400000e+001 1.540000e+002 1.600000e+001
    endloop
  endfacet
  facet normal -1.000000e+000 -0.000000e+000 -0.000000e+000
    outer loop
      vertex   8.200000e+001 1.580000e+002 1.600000e+001
      vertex   8.200000e+001 1.580000e+002 1.400000e+001
      vertex   8.200000e+001 1.460000e+002 1.600000e+001
    endloop
  endfacet
  facet normal -9.863939e-001 0.000000e+000 0.000000e+000
    outer loop
      vertex   8.200000e+001 1.460000e+002 1.600000e+001
      vertex   8.200000e+001 1.580000e+002 1.400000e+001
      vertex   8.200000e+001 1.460000e+002 1.400000e+001
    endloop
  endfacet
  facet normal 0.000000e+000 1.000000e+000 0.000000e+000
    outer loop
      vertex   6.400000e+001 1.600000e+002 -2.384186e-007
      vertex   6.400000e+001 1.600000e+002 1.800000e+001
      vertex   8.600000e+001 1.600000e+002 -2.384186e-007
    endloop
  endfacet
  facet normal 0.000000e+000 7.739573e-001 -0.000000e+000
    outer loop
      vertex   8.600000e+001 1.600000e+002 -2.384186e-007
      vertex   6.400000e+001 1.600000e+002 1.800000e+001
      vertex   8.600000e+001 1.600000e+002 1.800000e+001
    endloop
  endfacet
  facet normal -1.000000e+000 0.000000e+000 0.000000e+000
    outer loop
      vertex   8.200000e+001 1.320000e+002 1.400000e+001
      vertex   8.200000e+001 1.320000e+002 1.600000e+001
      vertex   8.200000e+001 1.440000e+002 1.400000e+001
    endloop
  endfacet
  facet normal -9.863939e-001 0.000000e+000 0.000000e+000
    outer loop
      vertex   8.200000e+001 1.440000e+002 1.400000e+001
      vertex   8.200000e+001 1.320000e+002 1.600000e+001
      vertex   8.200000e+001 1.440000e+002 1.600000e+001
    endloop
  endfacet
  facet normal -7.152557e-007 0.000000e+000 1.000000e+000
    outer loop
      vertex   7.800000e+001 1.320000e+002 1.600000e+001
      vertex   7.800000e+001 1.300000e+002 1.600000e+001
      vertex   8.200000e+001 1.320000e+002 1.600000e+001
    endloop
  endfacet
  facet normal -1.507891e-007 -1.055524e-006 9.486833e-001
    outer loop
      vertex   8.200000e+001 1.320000e+002 1.600000e+001
      vertex   7.800000e+001 1.300000e+002 1.600000e+001
      vertex   8.400000e+001 1.300000e+002 1.600000e+001
    endloop
  endfacet
  facet normal 7.463682e-007 -1.066240e-007 8.944272e-001
    outer loop
      vertex   8.200000e+001 1.320000e+002 1.600000e+001
      vertex   8.400000e+001 1.300000e+002 1.600000e+001
      vertex   8.600000e+001 1.440000e+002 1.600000e+001
    endloop
  endfacet
  facet normal 0.000000e+000 0.000000e+000 1.414214e-001
    outer loop
      vertex   8.600000e+001 1.440000e+002 1.600000e+001
      vertex   8.400000e+001 1.300000e+002 1.600000e+001
      vertex   8.600000e+001 1.300000e+002 1.600000e+001
    endloop
  endfacet
  facet normal 4.523675e-007 0.000000e+000 9.486833e-001
    outer loop
      vertex   8.600000e+001 1.440000e+002 1.600000e+001
      vertex   8.200000e+001 1.440000e+002 1.600000e+001
      vertex   8.200000e+001 1.320000e+002 1.600000e+001
    endloop
  endfacet
  facet normal 0.000000e+000 -1.000000e+000 0.000000e+000
    outer loop
      vertex   8.400000e+001 1.300000e+002 1.400000e+001
      vertex   8.600000e+001 1.300000e+002 1.400000e+001
      vertex   8.400000e+001 1.300000e+002 1.600000e+001
    endloop
  endfacet
  facet normal 0.000000e+000 -7.071068e-001 0.000000e+000
    outer loop
      vertex   8.400000e+001 1.300000e+002 1.600000e+001
      vertex   8.600000e+001 1.300000e+002 1.400000e+001
      vertex   8.600000e+001 1.300000e+002 1.600000e+001
    endloop
  endfacet
  facet normal 1.000000e+000 0.000000e+000 -0.000000e+000
    outer loop
      vertex   7.800000e+001 1.300000e+002 1.800000e+001
      vertex   7.800000e+001 1.300000e+002 2.000000e+001
      vertex   7.800000e+001 1.280000e+002 1.800000e+001
    endloop
  endfacet
  facet normal 7.071068e-001 0.000000e+000 0.000000e+000
    outer loop
      vertex   7.800000e+001 1.280000e+002 1.800000e+001
      vertex   7.800000e+001 1.300000e+002 2.000000e+001
      vertex   7.800000e+001 1.280000e+002 2.000000e+001
    endloop
  endfacet
  facet normal 0.000000e+000 0.000000e+000 1.000000e+000
    outer loop
      vertex   7.800000e+001 1.300000e+002 2.000000e+001
      vertex   7.000000e+001 1.300000e+002 2.000000e+001
      vertex   7.800000e+001 1.280000e+002 2.000000e+001
    endloop
  endfacet
  facet normal 0.000000e+000 0.000000e+000 2.425356e-001
    outer loop
      vertex   7.800000e+001 1.280000e+002 2.000000e+001
      vertex   7.000000e+001 1.300000e+002 2.000000e+001
      vertex   7.000000e+001 1.280000e+002 2.000000e+001
    endloop
  endfacet
  facet normal 0.000000e+000 1.000000e+000 0.000000e+000
    outer loop
      vertex   7.000000e+001 1.300000e+002 1.800000e+001
      vertex   7.000000e+001 1.300000e+002 2.000000e+001
      vertex   7.800000e+001 1.300000e+002 1.800000e+001
    endloop
  endfacet
  facet normal 0.000000e+000 9.701425e-001 -0.000000e+000
    outer loop
      vertex   7.800000e+001 1.300000e+002 1.800000e+001
      vertex   7.000000e+001 1.300000e+002 2.000000e+001
      vertex   7.800000e+001 1.300000e+002 2.000000e+001
    endloop
  endfacet
  facet normal 1.000000e+000 -0.000000e+000 0.000000e+000
    outer loop
      vertex   7.000000e+001 1.300000e+002 2.000000e+001
      vertex   7.000000e+001 1.300000e+002 1.800000e+001
      vertex   7.000000e+001 1.320000e+002 2.000000e+001
    endloop
  endfacet
  facet normal 7.071068e-001 0.000000e+000 0.000000e+000
    outer loop
      vertex   7.000000e+001 1.320000e+002 2.000000e+001
      vertex   7.000000e+001 1.300000e+002 1.800000e+001
      vertex   7.000000e+001 1.320000e+002 1.800000e+001
    endloop
  endfacet
  facet normal 1.000000e+000 -0.000000e+000 0.000000e+000
    outer loop
      vertex   6.600000e+001 1.360000e+002 2.000000e+001
      vertex   6.600000e+001 1.360000e+002 1.800000e+001
      vertex   6.600000e+001 1.380000e+002 2.000000e+001
    endloop
  endfacet
  facet normal 7.071068e-001 0.000000e+000 0.000000e+000
    outer loop
      vertex   6.600000e+001 1.380000e+002 2.000000e+001
      vertex   6.600000e+001 1.360000e+002 1.800000e+001
      vertex   6.600000e+001 1.380000e+002 1.800000e+001
    endloop
  endfacet
  facet normal 0.000000e+000 1.000000e+000 0.000000e+000
    outer loop
      vertex   6.600000e+001 1.380000e+002 2.000000e+001
      vertex   6.600000e+001 1.380000e+002 1.800000e+001
      vertex   6.400000e+001 1.380000e+002 2.000000e+001
    endloop
  endfacet
  facet normal 0.000000e+000 7.071068e-001 0.000000e+000
    outer loop
      vertex   6.400000e+001 1.380000e+002 2.000000e+001
      vertex   6.600000e+001 1.380000e+002 1.800000e+001
      vertex   6.400000e+001 1.380000e+002 1.800000e+001
    endloop
  endfacet
  facet normal 1.000000e+000 0.000000e+000 0.000000e+000
    outer loop
      vertex   6.800000e+001 1.360000e+002 2.000000e+001
      vertex   6.800000e+001 1.320000e+002 2.000000e+001
      vertex   6.800000e+001 1.360000e+002 1.800000e+001
    endloop
  endfacet
  facet normal 9.486833e-001 0.000000e+000 0.000000e+000
    outer loop
      vertex   6.800000e+001 1.360000e+002 1.800000e+001
      vertex   6.800000e+001 1.320000e+002 2.000000e+001
      vertex   6.800000e+001 1.320000e+002 1.400000e+001
    endloop
  endfacet
  facet normal 8.221923e-001 0.000000e+000 0.000000e+000
    outer loop
      vertex   6.800000e+001 1.360000e+002 1.800000e+001
      vertex   6.800000e+001 1.320000e+002 1.400000e+001
      vertex   6.800000e+001 1.580000e+002 1.400000e+001
    endloop
  endfacet
  facet normal 9.838699e-001 0.000000e+000 -0.000000e+000
    outer loop
      vertex   6.800000e+001 1.580000e+002 1.400000e+001
      vertex   6.800000e+001 1.580000e+002 1.800000e+001
      vertex   6.800000e+001 1.360000e+002 1.800000e+001
    endloop
  endfacet
  facet normal 0.000000e+000 1.000000e+000 0.000000e+000
    outer loop
      vertex   6.800000e+001 1.360000e+002 2.000000e+001
      vertex   6.800000e+001 1.360000e+002 1.800000e+001
      vertex   6.600000e+001 1.360000e+002 2.000000e+001
    endloop
  endfacet
  facet normal 0.000000e+000 7.071068e-001 0.000000e+000
    outer loop
      vertex   6.600000e+001 1.360000e+002 2.000000e+001
      vertex   6.800000e+001 1.360000e+002 1.800000e+001
      vertex   6.600000e+001 1.360000e+002 1.800000e+001
    endloop
  endfacet
  facet normal 0.000000e+000 1.000000e+000 0.000000e+000
    outer loop
      vertex   7.000000e+001 1.300000e+002 2.200000e+001
      vertex   7.000000e+001 1.300000e+002 2.000000e+001
      vertex   6.800000e+001 1.300000e+002 2.200000e+001
    endloop
  endfacet
  facet normal 0.000000e+000 1.000000e+000 0.000000e+000
    outer loop
      vertex   6.800000e+001 1.300000e+002 2.200000e+001
      vertex   7.000000e+001 1.300000e+002 2.000000e+001
      vertex   6.600000e+001 1.300000e+002 2.000000e+001
    endloop
  endfacet
  facet normal 0.000000e+000 7.071068e-001 0.000000e+000
    outer loop
      vertex   6.800000e+001 1.300000e+002 2.200000e+001
      vertex   6.600000e+001 1.300000e+002 2.000000e+001
      vertex   6.600000e+001 1.300000e+002 2.200000e+001
    endloop
  endfacet
  facet normal 0.000000e+000 1.000000e+000 0.000000e+000
    outer loop
      vertex   6.600000e+001 1.300000e+002 2.200000e+001
      vertex   6.600000e+001 1.300000e+002 2.400000e+001
      vertex   6.800000e+001 1.300000e+002 2.200000e+001
    endloop
  endfacet
  facet normal 0.000000e+000 7.071068e-001 -0.000000e+000
    outer loop
      vertex   6.800000e+001 1.300000e+002 2.200000e+001
      vertex   6.600000e+001 1.300000e+002 2.400000e+001
      vertex   6.800000e+001 1.300000e+002 2.400000e+001
    endloop
  endfacet
  facet normal 0.000000e+000 0.000000e+000 1.000000e+000
    outer loop
      vertex   7.000000e+001 1.300000e+002 2.200000e+001
      vertex   6.800000e+001 1.300000e+002 2.200000e+001
      vertex   7.000000e+001 1.280000e+002 2.200000e+001
    endloop
  endfacet
  facet normal 0.000000e+000 0.000000e+000 7.071068e-001
    outer loop
      vertex   7.000000e+001 1.280000e+002 2.200000e+001
      vertex   6.800000e+001 1.300000e+002 2.200000e+001
      vertex   6.800000e+001 1.280000e+002 2.200000e+001
    endloop
  endfacet
  facet normal 1.000000e+000 0.000000e+000 -0.000000e+000
    outer loop
      vertex   6.800000e+001 1.300000e+002 2.200000e+001
      vertex   6.800000e+001 1.300000e+002 2.400000e+001
      vertex   6.800000e+001 1.280000e+002 2.200000e+001
    endloop
  endfacet
  facet normal 7.071068e-001 0.000000e+000 0.000000e+000
    outer loop
      vertex   6.800000e+001 1.280000e+002 2.200000e+001
      vertex   6.800000e+001 1.300000e+002 2.400000e+001
      vertex   6.800000e+001 1.280000e+002 2.400000e+001
    endloop
  endfacet
  facet normal 1.000000e+000 -0.000000e+000 0.000000e+000
    outer loop
      vertex   6.600000e+001 1.300000e+002 2.200000e+001
      vertex   6.600000e+001 1.300000e+002 2.000000e+001
      vertex   6.600000e+001 1.320000e+002 2.200000e+001
    endloop
  endfacet
  facet normal 7.071068e-001 0.000000e+000 0.000000e+000
    outer loop
      vertex   6.600000e+001 1.320000e+002 2.200000e+001
      vertex   6.600000e+001 1.300000e+002 2.000000e+001
      vertex   6.600000e+001 1.320000e+002 2.000000e+001
    endloop
  endfacet
  facet normal 0.000000e+000 -0.000000e+000 1.000000e+000
    outer loop
      vertex   6.600000e+001 1.280000e+002 2.200000e+001
      vertex   6.600000e+001 1.300000e+002 2.200000e+001
      vertex   6.400000e+001 1.280000e+002 2.200000e+001
    endloop
  endfacet
  facet normal 0.000000e+000 0.000000e+000 7.071068e-001
    outer loop
      vertex   6.400000e+001 1.280000e+002 2.200000e+001
      vertex   6.600000e+001 1.300000e+002 2.200000e+001
      vertex   6.400000e+001 1.320000e+002 2.200000e+001
    endloop
  endfacet
  facet normal -0.000000e+000 0.000000e+000 7.071068e-001
    outer loop
      vertex   6.400000e+001 1.320000e+002 2.200000e+001
      vertex   6.600000e+001 1.300000e+002 2.200000e+001
      vertex   6.600000e+001 1.320000e+002 2.200000e+001
    endloop
  endfacet
  facet normal -1.000000e+000 -0.000000e+000 -0.000000e+000
    outer loop
      vertex   6.400000e+001 1.320000e+002 2.200000e+001
      vertex   6.400000e+001 1.320000e+002 2.000000e+001
      vertex   6.400000e+001 1.280000e+002 2.200000e+001
    endloop
  endfacet
  facet normal -8.944272e-001 0.000000e+000 0.000000e+000
    outer loop
      vertex   6.400000e+001 1.280000e+002 2.200000e+001
      vertex   6.400000e+001 1.320000e+002 2.000000e+001
      vertex   6.400000e+001 1.280000e+002 -2.384186e-007
    endloop
  endfacet
  facet normal -3.047757e-001 0.000000e+000 0.000000e+000
    outer loop
      vertex   6.400000e+001 1.280000e+002 -2.384186e-007
      vertex   6.400000e+001 1.320000e+002 2.000000e+001
      vertex   6.400000e+001 1.380000e+002 1.800000e+001
    endloop
  endfacet
  facet normal -8.741572e-001 0.000000e+000 0.000000e+000
    outer loop
      vertex   6.400000e+001 1.280000e+002 -2.384186e-007
      vertex   6.400000e+001 1.380000e+002 1.800000e+001
      vertex   6.400000e+001 1.600000e+002 -2.384186e-007
    endloop
  endfacet
  facet normal -7.739573e-001 0.000000e+000 0.000000e+000
    outer loop
      vertex   6.400000e+001 1.600000e+002 -2.384186e-007
      vertex   6.400000e+001 1.380000e+002 1.800000e+001
      vertex   6.400000e+001 1.600000e+002 1.800000e+001
    endloop
  endfacet
  facet normal -3.162278e-001 0.000000e+000 0.000000e+000
    outer loop
      vertex   6.400000e+001 1.320000e+002 2.000000e+001
      vertex   6.400000e+001 1.380000e+002 2.000000e+001
      vertex   6.400000e+001 1.380000e+002 1.800000e+001
    endloop
  endfacet
  facet normal 0.000000e+000 1.000000e+000 0.000000e+000
    outer loop
      vertex   6.600000e+001 1.320000e+002 2.200000e+001
      vertex   6.600000e+001 1.320000e+002 2.000000e+001
      vertex   6.400000e+001 1.320000e+002 2.200000e+001
    endloop
  endfacet
  facet normal 0.000000e+000 7.071068e-001 0.000000e+000
    outer loop
      vertex   6.400000e+001 1.320000e+002 2.200000e+001
      vertex   6.600000e+001 1.320000e+002 2.000000e+001
      vertex   6.400000e+001 1.320000e+002 2.000000e+001
    endloop
  endfacet
  facet normal -1.000000e+000 0.000000e+000 0.000000e+000
    outer loop
      vertex   6.600000e+001 1.280000e+002 2.200000e+001
      vertex   6.600000e+001 1.280000e+002 2.400000e+001
      vertex   6.600000e+001 1.300000e+002 2.200000e+001
    endloop
  endfacet
  facet normal -7.071068e-001 0.000000e+000 0.000000e+000
    outer loop
      vertex   6.600000e+001 1.300000e+002 2.200000e+001
      vertex   6.600000e+001 1.280000e+002 2.400000e+001
      vertex   6.600000e+001 1.300000e+002 2.400000e+001
    endloop
  endfacet
  facet normal 0.000000e+000 0.000000e+000 1.000000e+000
    outer loop
      vertex   8.400000e+001 1.300000e+002 1.800000e+001
      vertex   7.800000e+001 1.300000e+002 1.800000e+001
      vertex   8.400000e+001 1.280000e+002 1.800000e+001
    endloop
  endfacet
  facet normal 0.000000e+000 0.000000e+000 3.162278e-001
    outer loop
      vertex   8.400000e+001 1.280000e+002 1.800000e+001
      vertex   7.800000e+001 1.300000e+002 1.800000e+001
      vertex   7.800000e+001 1.280000e+002 1.800000e+001
    endloop
  endfacet
  facet normal 1.000000e+000 0.000000e+000 0.000000e+000
    outer loop
      vertex   8.400000e+001 1.300000e+002 1.800000e+001
      vertex   8.400000e+001 1.280000e+002 1.800000e+001
      vertex   8.400000e+001 1.300000e+002 1.600000e+001
    endloop
  endfacet
  facet normal 1.000000e+000 0.000000e+000 0.000000e+000
    outer loop
      vertex   8.400000e+001 1.300000e+002 1.600000e+001
      vertex   8.400000e+001 1.280000e+002 1.800000e+001
      vertex   8.400000e+001 1.280000e+002 1.400000e+001
    endloop
  endfacet
  facet normal 7.071066e-001 0.000000e+000 0.000000e+000
    outer loop
      vertex   8.400000e+001 1.300000e+002 1.600000e+001
      vertex   8.400000e+001 1.280000e+002 1.400000e+001
      vertex   8.400000e+001 1.300000e+002 1.400000e+001
    endloop
  endfacet
  facet normal 0.000000e+000 0.000000e+000 1.000000e+000
    outer loop
      vertex   6.800000e+001 1.300000e+002 2.400000e+001
      vertex   6.600000e+001 1.300000e+002 2.400000e+001
      vertex   6.800000e+001 1.280000e+002 2.400000e+001
    endloop
  endfacet
  facet normal 0.000000e+000 0.000000e+000 7.071068e-001
    outer loop
      vertex   6.800000e+001 1.280000e+002 2.400000e+001
      vertex   6.600000e+001 1.300000e+002 2.400000e+001
      vertex   6.600000e+001 1.280000e+002 2.400000e+001
    endloop
  endfacet
  facet normal 0.000000e+000 -1.000000e+000 0.000000e+000
    outer loop
      vertex   6.600000e+001 1.280000e+002 2.400000e+001
      vertex   6.600000e+001 1.280000e+002 2.200000e+001
      vertex   6.800000e+001 1.280000e+002 2.400000e+001
    endloop
  endfacet
  facet normal 0.000000e+000 -7.071068e-001 -0.000000e+000
    outer loop
      vertex   6.800000e+001 1.280000e+002 2.400000e+001
      vertex   6.600000e+001 1.280000e+002 2.200000e+001
      vertex   6.800000e+001 1.280000e+002 2.200000e+001
    endloop
  endfacet
  facet normal -0.000000e+000 -7.071068e-001 -0.000000e+000
    outer loop
      vertex   6.800000e+001 1.280000e+002 2.200000e+001
      vertex   6.600000e+001 1.280000e+002 2.200000e+001
      vertex   7.000000e+001 1.280000e+002 2.000000e+001
    endloop
  endfacet
  facet normal 0.000000e+000 -7.071068e-001 0.000000e+000
    outer loop
      vertex   6.800000e+001 1.280000e+002 2.200000e+001
      vertex   7.000000e+001 1.280000e+002 2.000000e+001
      vertex   7.000000e+001 1.280000e+002 2.200000e+001
    endloop
  endfacet
  facet normal -0.000000e+000 -4.472136e-001 -0.000000e+000
    outer loop
      vertex   6.600000e+001 1.280000e+002 2.200000e+001
      vertex   6.400000e+001 1.280000e+002 2.200000e+001
      vertex   7.000000e+001 1.280000e+002 2.000000e+001
    endloop
  endfacet
  facet normal -0.000000e+000 -9.995412e-001 0.000000e+000
    outer loop
      vertex   7.000000e+001 1.280000e+002 2.000000e+001
      vertex   6.400000e+001 1.280000e+002 2.200000e+001
      vertex   6.400000e+001 1.280000e+002 -2.384186e-007
    endloop
  endfacet
  facet normal 0.000000e+000 -9.989201e-001 -0.000000e+000
    outer loop
      vertex   7.000000e+001 1.280000e+002 2.000000e+001
      vertex   6.400000e+001 1.280000e+002 -2.384186e-007
      vertex   7.800000e+001 1.280000e+002 1.800000e+001
    endloop
  endfacet
  facet normal 0.000000e+000 -9.973337e-001 -0.000000e+000
    outer loop
      vertex   7.800000e+001 1.280000e+002 1.800000e+001
      vertex   6.400000e+001 1.280000e+002 -2.384186e-007
      vertex   8.400000e+001 1.280000e+002 1.400000e+001
    endloop
  endfacet
  facet normal 0.000000e+000 -5.547003e-001 0.000000e+000
    outer loop
      vertex   7.800000e+001 1.280000e+002 1.800000e+001
      vertex   8.400000e+001 1.280000e+002 1.400000e+001
      vertex   8.400000e+001 1.280000e+002 1.800000e+001
    endloop
  endfacet
  facet normal 0.000000e+000 -5.734623e-001 0.000000e+000
    outer loop
      vertex   6.400000e+001 1.280000e+002 -2.384186e-007
      vertex   8.600000e+001 1.280000e+002 -2.384186e-007
      vertex   8.400000e+001 1.280000e+002 1.400000e+001
    endloop
  endfacet
  facet normal 0.000000e+000 -9.899496e-001 0.000000e+000
    outer loop
      vertex   8.400000e+001 1.280000e+002 1.400000e+001
      vertex   8.600000e+001 1.280000e+002 -2.384186e-007
      vertex   8.600000e+001 1.280000e+002 1.400000e+001
    endloop
  endfacet
  facet normal 0.000000e+000 -9.701425e-001 0.000000e+000
    outer loop
      vertex   7.800000e+001 1.280000e+002 1.800000e+001
      vertex   7.800000e+001 1.280000e+002 2.000000e+001
      vertex   7.000000e+001 1.280000e+002 2.000000e+001
    endloop
  endfacet
  facet normal -4.768372e-007 0.000000e+000 1.000000e+000
    outer loop
      vertex   8.400000e+001 1.280000e+002 1.400000e+001
      vertex   8.600000e+001 1.280000e+002 1.400000e+001
      vertex   8.400000e+001 1.300000e+002 1.400000e+001
    endloop
  endfacet
  facet normal -3.371748e-007 0.000000e+000 7.071068e-001
    outer loop
      vertex   8.400000e+001 1.300000e+002 1.400000e+001
      vertex   8.600000e+001 1.280000e+002 1.400000e+001
      vertex   8.600000e+001 1.300000e+002 1.400000e+001
    endloop
  endfacet
  facet normal 0.000000e+000 1.000000e+000 0.000000e+000
    outer loop
      vertex   7.800000e+001 1.300000e+002 1.600000e+001
      vertex   7.800000e+001 1.300000e+002 1.800000e+001
      vertex   8.400000e+001 1.300000e+002 1.600000e+001
    endloop
  endfacet
  facet normal 0.000000e+000 9.486833e-001 -0.000000e+000
    outer loop
      vertex   8.400000e+001 1.300000e+002 1.600000e+001
      vertex   7.800000e+001 1.300000e+002 1.800000e+001
      vertex   8.400000e+001 1.300000e+002 1.800000e+001
    endloop
  endfacet
  facet normal 1.000000e+000 -0.000000e+000 0.000000e+000
    outer loop
      vertex   8.600000e+001 1.280000e+002 1.400000e+001
      vertex   8.600000e+001 1.280000e+002 -2.384186e-007
      vertex   8.600000e+001 1.300000e+002 1.400000e+001
    endloop
  endfacet
  facet normal 9.976069e-001 0.000000e+000 0.000000e+000
    outer loop
      vertex   8.600000e+001 1.300000e+002 1.400000e+001
      vertex   8.600000e+001 1.280000e+002 -2.384186e-007
      vertex   8.600000e+001 1.440000e+002 1.100000e+001
    endloop
  endfacet
  facet normal 3.457054e-001 -0.000000e+000 0.000000e+000
    outer loop
      vertex   8.600000e+001 1.300000e+002 1.400000e+001
      vertex   8.600000e+001 1.440000e+002 1.100000e+001
      vertex   8.600000e+001 1.440000e+002 1.600000e+001
    endloop
  endfacet
  facet normal 5.665288e-001 0.000000e+000 0.000000e+000
    outer loop
      vertex   8.600000e+001 1.280000e+002 -2.384186e-007
      vertex   8.600000e+001 1.600000e+002 -2.384186e-007
      vertex   8.600000e+001 1.440000e+002 1.100000e+001
    endloop
  endfacet
  facet normal 5.665288e-001 -0.000000e+000 0.000000e+000
    outer loop
      vertex   8.600000e+001 1.440000e+002 1.100000e+001
      vertex   8.600000e+001 1.600000e+002 -2.384186e-007
      vertex   8.600000e+001 1.460000e+002 1.100000e+001
    endloop
  endfacet
  facet normal 9.406595e-001 -0.000000e+000 0.000000e+000
    outer loop
      vertex   8.600000e+001 1.460000e+002 1.100000e+001
      vertex   8.600000e+001 1.600000e+002 -2.384186e-007
      vertex   8.600000e+001 1.540000e+002 1.600000e+001
    endloop
  endfacet
  facet normal 8.479983e-001 0.000000e+000 0.000000e+000
    outer loop
      vertex   8.600000e+001 1.460000e+002 1.100000e+001
      vertex   8.600000e+001 1.540000e+002 1.600000e+001
      vertex   8.600000e+001 1.460000e+002 1.600000e+001
    endloop
  endfacet
  facet normal 3.511235e-001 0.000000e+000 -0.000000e+000
    outer loop
      vertex   8.600000e+001 1.600000e+002 -2.384186e-007
      vertex   8.600000e+001 1.600000e+002 1.800000e+001
      vertex   8.600000e+001 1.540000e+002 1.600000e+001
    endloop
  endfacet
  facet normal 9.486833e-001 0.000000e+000 0.000000e+000
    outer loop
      vertex   8.600000e+001 1.540000e+002 1.600000e+001
      vertex   8.600000e+001 1.600000e+002 1.800000e+001
      vertex   8.600000e+001 1.540000e+002 1.800000e+001
    endloop
  endfacet
  facet normal 1.414214e-001 0.000000e+000 0.000000e+000
    outer loop
      vertex   8.600000e+001 1.440000e+002 1.600000e+001
      vertex   8.600000e+001 1.300000e+002 1.600000e+001
      vertex   8.600000e+001 1.300000e+002 1.400000e+001
    endloop
  endfacet
  facet normal 1.000000e+000 0.000000e+000 -0.000000e+000
    outer loop
      vertex   7.000000e+001 1.300000e+002 2.000000e+001
      vertex   7.000000e+001 1.300000e+002 2.200000e+001
      vertex   7.000000e+001 1.280000e+002 2.000000e+001
    endloop
  endfacet
  facet normal 7.071068e-001 0.000000e+000 0.000000e+000
    outer loop
      vertex   7.000000e+001 1.280000e+002 2.000000e+001
      vertex   7.000000e+001 1.300000e+002 2.200000e+001
      vertex   7.000000e+001 1.280000e+002 2.200000e+001
    endloop
  endfacet
  facet normal 0.000000e+000 0.000000e+000 1.000000e+000
    outer loop
      vertex   7.000000e+001 1.320000e+002 2.000000e+001
      vertex   6.800000e+001 1.320000e+002 2.000000e+001
      vertex   7.000000e+001 1.300000e+002 2.000000e+001
    endloop
  endfacet
  facet normal 0.000000e+000 0.000000e+000 7.071068e-001
    outer loop
      vertex   7.000000e+001 1.300000e+002 2.000000e+001
      vertex   6.800000e+001 1.320000e+002 2.000000e+001
      vertex   6.600000e+001 1.300000e+002 2.000000e+001
    endloop
  endfacet
  facet normal 0.000000e+000 0.000000e+000 7.071068e-001
    outer loop
      vertex   6.600000e+001 1.300000e+002 2.000000e+001
      vertex   6.800000e+001 1.320000e+002 2.000000e+001
      vertex   6.600000e+001 1.320000e+002 2.000000e+001
    endloop
  endfacet
  facet normal 0.000000e+000 0.000000e+000 1.000000e+000
    outer loop
      vertex   6.600000e+001 1.320000e+002 2.000000e+001
      vertex   6.800000e+001 1.320000e+002 2.000000e+001
      vertex   6.600000e+001 1.360000e+002 2.000000e+001
    endloop
  endfacet
  facet normal 0.000000e+000 -0.000000e+000 1.000000e+000
    outer loop
      vertex   6.600000e+001 1.320000e+002 2.000000e+001
      vertex   6.600000e+001 1.360000e+002 2.000000e+001
      vertex   6.400000e+001 1.320000e+002 2.000000e+001
    endloop
  endfacet
  facet normal 0.000000e+000 0.000000e+000 4.472136e-001
    outer loop
      vertex   6.400000e+001 1.320000e+002 2.000000e+001
      vertex   6.600000e+001 1.360000e+002 2.000000e+001
      vertex   6.400000e+001 1.380000e+002 2.000000e+001
    endloop
  endfacet
  facet normal -0.000000e+000 0.000000e+000 7.071068e-001
    outer loop
      vertex   6.400000e+001 1.380000e+002 2.000000e+001
      vertex   6.600000e+001 1.360000e+002 2.000000e+001
      vertex   6.600000e+001 1.380000e+002 2.000000e+001
    endloop
  endfacet
  facet normal 0.000000e+000 -0.000000e+000 4.472136e-001
    outer loop
      vertex   6.800000e+001 1.320000e+002 2.000000e+001
      vertex   6.800000e+001 1.360000e+002 2.000000e+001
      vertex   6.600000e+001 1.360000e+002 2.000000e+001
    endloop
  endfacet
  facet normal 0.000000e+000 0.000000e+000 1.000000e+000
    outer loop
      vertex   7.800000e+001 1.320000e+002 1.800000e+001
      vertex   7.000000e+001 1.320000e+002 1.800000e+001
      vertex   7.800000e+001 1.300000e+002 1.800000e+001
    endloop
  endfacet
  facet normal 0.000000e+000 0.000000e+000 2.425356e-001
    outer loop
      vertex   7.800000e+001 1.300000e+002 1.800000e+001
      vertex   7.000000e+001 1.320000e+002 1.800000e+001
      vertex   7.000000e+001 1.300000e+002 1.800000e+001
    endloop
  endfacet
  facet normal 0.000000e+000 1.000000e+000 0.000000e+000
    outer loop
      vertex   7.800000e+001 1.320000e+002 1.800000e+001
      vertex   7.800000e+001 1.320000e+002 1.600000e+001
      vertex   7.000000e+001 1.320000e+002 1.800000e+001
    endloop
  endfacet
  facet normal 0.000000e+000 9.761871e-001 0.000000e+000
    outer loop
      vertex   7.000000e+001 1.320000e+002 1.800000e+001
      vertex   7.800000e+001 1.320000e+002 1.600000e+001
      vertex   6.800000e+001 1.320000e+002 1.400000e+001
    endloop
  endfacet
  facet normal 0.000000e+000 9.486833e-001 0.000000e+000
    outer loop
      vertex   7.000000e+001 1.320000e+002 1.800000e+001
      vertex   6.800000e+001 1.320000e+002 1.400000e+001
      vertex   6.800000e+001 1.320000e+002 2.000000e+001
    endloop
  endfacet
  facet normal 0.000000e+000 1.000000e+000 0.000000e+000
    outer loop
      vertex   8.200000e+001 1.320000e+002 1.600000e+001
      vertex   8.200000e+001 1.320000e+002 1.400000e+001
      vertex   7.800000e+001 1.320000e+002 1.600000e+001
    endloop
  endfacet
  facet normal 0.000000e+000 6.139402e-001 0.000000e+000
    outer loop
      vertex   7.800000e+001 1.320000e+002 1.600000e+001
      vertex   8.200000e+001 1.320000e+002 1.400000e+001
      vertex   6.800000e+001 1.320000e+002 1.400000e+001
    endloop
  endfacet
  facet normal -0.000000e+000 7.071068e-001 0.000000e+000
    outer loop
      vertex   6.800000e+001 1.320000e+002 2.000000e+001
      vertex   7.000000e+001 1.320000e+002 2.000000e+001
      vertex   7.000000e+001 1.320000e+002 1.800000e+001
    endloop
  endfacet
  facet normal 1.000000e+000 0.000000e+000 -0.000000e+000
    outer loop
      vertex   7.800000e+001 1.320000e+002 1.600000e+001
      vertex   7.800000e+001 1.320000e+002 1.800000e+001
      vertex   7.800000e+001 1.300000e+002 1.600000e+001
    endloop
  endfacet
  facet normal 7.071066e-001 0.000000e+000 0.000000e+000
    outer loop
      vertex   7.800000e+001 1.300000e+002 1.600000e+001
      vertex   7.800000e+001 1.320000e+002 1.800000e+001
      vertex   7.800000e+001 1.300000e+002 1.800000e+001
    endloop
  endfacet
  facet normal -1.000000e+000 0.000000e+000 0.000000e+000
    outer loop
      vertex   7.600000e+001 1.500000e+002 1.600000e+001
      vertex   7.600000e+001 1.500000e+002 1.800000e+001
      vertex   7.600000e+001 1.520000e+002 1.600000e+001
    endloop
  endfacet
  facet normal -7.071068e-001 0.000000e+000 0.000000e+000
    outer loop
      vertex   7.600000e+001 1.520000e+002 1.600000e+001
      vertex   7.600000e+001 1.500000e+002 1.800000e+001
      vertex   7.600000e+001 1.520000e+002 1.800000e+001
    endloop
  endfacet
  facet normal 0.000000e+000 1.000000e+000 -0.000000e+000
    outer loop
      vertex   7.600000e+001 1.500000e+002 1.600000e+001
      vertex   7.200000e+001 1.500000e+002 1.600000e+001
      vertex   7.600000e+001 1.500000e+002 1.800000e+001
    endloop
  endfacet
  facet normal 0.000000e+000 4.472136e-001 0.000000e+000
    outer loop
      vertex   7.600000e+001 1.500000e+002 1.800000e+001
      vertex   7.200000e+001 1.500000e+002 1.600000e+001
      vertex   7.200000e+001 1.500000e+002 1.800000e+001
    endloop
  endfacet
  facet normal 0.000000e+000 4.472136e-001 0.000000e+000
    outer loop
      vertex   7.600000e+001 1.500000e+002 1.800000e+001
      vertex   7.200000e+001 1.500000e+002 1.800000e+001
      vertex   7.200000e+001 1.500000e+002 2.000000e+001
    endloop
  endfacet
  facet normal -0.000000e+000 4.472136e-001 0.000000e+000
    outer loop
      vertex   7.200000e+001 1.500000e+002 2.000000e+001
      vertex   7.600000e+001 1.500000e+002 2.000000e+001
      vertex   7.600000e+001 1.500000e+002 1.800000e+001
    endloop
  endfacet
  facet normal -1.000000e+000 0.000000e+000 0.000000e+000
    outer loop
      vertex   7.200000e+001 1.480000e+002 1.600000e+001
      vertex   7.200000e+001 1.480000e+002 1.800000e+001
      vertex   7.200000e+001 1.500000e+002 1.600000e+001
    endloop
  endfacet
  facet normal -7.071068e-001 0.000000e+000 0.000000e+000
    outer loop
      vertex   7.200000e+001 1.500000e+002 1.600000e+001
      vertex   7.200000e+001 1.480000e+002 1.800000e+001
      vertex   7.200000e+001 1.500000e+002 1.800000e+001
    endloop
  endfacet
  facet normal -1.000000e+000 0.000000e+000 0.000000e+000
    outer loop
      vertex   7.200000e+001 1.500000e+002 1.800000e+001
      vertex   7.200000e+001 1.480000e+002 1.800000e+001
      vertex   7.200000e+001 1.500000e+002 2.000000e+001
    endloop
  endfacet
  facet normal -3.162278e-001 0.000000e+000 0.000000e+000
    outer loop
      vertex   7.200000e+001 1.500000e+002 2.000000e+001
      vertex   7.200000e+001 1.480000e+002 1.800000e+001
      vertex   7.200000e+001 1.460000e+002 1.800000e+001
    endloop
  endfacet
  facet normal -4.472136e-001 -0.000000e+000 0.000000e+000
    outer loop
      vertex   7.200000e+001 1.500000e+002 2.000000e+001
      vertex   7.200000e+001 1.460000e+002 1.800000e+001
      vertex   7.200000e+001 1.400000e+002 2.000000e+001
    endloop
  endfacet
  facet normal -1.414214e-001 0.000000e+000 0.000000e+000
    outer loop
      vertex   7.200000e+001 1.400000e+002 2.000000e+001
      vertex   7.200000e+001 1.460000e+002 1.800000e+001
      vertex   7.200000e+001 1.440000e+002 1.800000e+001
    endloop
  endfacet
  facet normal -3.162278e-001 0.000000e+000 0.000000e+000
    outer loop
      vertex   7.200000e+001 1.400000e+002 2.000000e+001
      vertex   7.200000e+001 1.440000e+002 1.800000e+001
      vertex   7.200000e+001 1.420000e+002 1.800000e+001
    endloop
  endfacet
  facet normal -1.000000e+000 -0.000000e+000 -0.000000e+000
    outer loop
      vertex   7.200000e+001 1.460000e+002 1.800000e+001
      vertex   7.200000e+001 1.460000e+002 1.600000e+001
      vertex   7.200000e+001 1.440000e+002 1.800000e+001
    endloop
  endfacet
  facet normal -7.071068e-001 0.000000e+000 0.000000e+000
    outer loop
      vertex   7.200000e+001 1.440000e+002 1.800000e+001
      vertex   7.200000e+001 1.460000e+002 1.600000e+001
      vertex   7.200000e+001 1.440000e+002 1.600000e+001
    endloop
  endfacet
  facet normal -7.071068e-001 0.000000e+000 0.000000e+000
    outer loop
      vertex   7.200000e+001 1.400000e+002 2.000000e+001
      vertex   7.200000e+001 1.420000e+002 1.800000e+001
      vertex   7.200000e+001 1.400000e+002 1.800000e+001
    endloop
  endfacet
  facet normal -7.071068e-001 0.000000e+000 0.000000e+000
    outer loop
      vertex   7.200000e+001 1.400000e+002 1.800000e+001
      vertex   7.200000e+001 1.420000e+002 1.800000e+001
      vertex   7.200000e+001 1.420000e+002 1.600000e+001
    endloop
  endfacet
  facet normal -7.071068e-001 0.000000e+000 0.000000e+000
    outer loop
      vertex   7.200000e+001 1.400000e+002 1.800000e+001
      vertex   7.200000e+001 1.420000e+002 1.600000e+001
      vertex   7.200000e+001 1.400000e+002 1.600000e+001
    endloop
  endfacet
  facet normal 0.000000e+000 -1.000000e+000 0.000000e+000
    outer loop
      vertex   7.600000e+001 1.400000e+002 1.600000e+001
      vertex   7.600000e+001 1.400000e+002 1.800000e+001
      vertex   7.200000e+001 1.400000e+002 1.600000e+001
    endloop
  endfacet
  facet normal 0.000000e+000 -8.944272e-001 0.000000e+000
    outer loop
      vertex   7.200000e+001 1.400000e+002 1.600000e+001
      vertex   7.600000e+001 1.400000e+002 1.800000e+001
      vertex   7.200000e+001 1.400000e+002 1.800000e+001
    endloop
  endfacet
  facet normal 0.000000e+000 -1.000000e+000 0.000000e+000
    outer loop
      vertex   7.200000e+001 1.400000e+002 1.800000e+001
      vertex   7.600000e+001 1.400000e+002 1.800000e+001
      vertex   7.200000e+001 1.400000e+002 2.000000e+001
    endloop
  endfacet
  facet normal 0.000000e+000 -4.472136e-001 0.000000e+000
    outer loop
      vertex   7.200000e+001 1.400000e+002 2.000000e+001
      vertex   7.600000e+001 1.400000e+002 1.800000e+001
      vertex   7.600000e+001 1.400000e+002 2.000000e+001
    endloop
  endfacet
  facet normal -1.000000e+000 0.000000e+000 0.000000e+000
    outer loop
      vertex   7.600000e+001 1.380000e+002 1.600000e+001
      vertex   7.600000e+001 1.380000e+002 1.800000e+001
      vertex   7.600000e+001 1.400000e+002 1.600000e+001
    endloop
  endfacet
  facet normal -7.071068e-001 0.000000e+000 0.000000e+000
    outer loop
      vertex   7.600000e+001 1.400000e+002 1.600000e+001
      vertex   7.600000e+001 1.380000e+002 1.800000e+001
      vertex   7.600000e+001 1.400000e+002 1.800000e+001
    endloop
  endfacet
  facet normal 0.000000e+000 0.000000e+000 1.000000e+000
    outer loop
      vertex   7.800000e+001 1.520000e+002 1.800000e+001
      vertex   7.600000e+001 1.520000e+002 1.800000e+001
      vertex   7.800000e+001 1.500000e+002 1.800000e+001
    endloop
  endfacet
  facet normal 0.000000e+000 0.000000e+000 7.071068e-001
    outer loop
      vertex   7.800000e+001 1.500000e+002 1.800000e+001
      vertex   7.600000e+001 1.520000e+002 1.800000e+001
      vertex   7.600000e+001 1.500000e+002 1.800000e+001
    endloop
  endfacet
  facet normal 0.000000e+000 -1.000000e+000 0.000000e+000
    outer loop
      vertex   7.800000e+001 1.500000e+002 1.600000e+001
      vertex   7.800000e+001 1.500000e+002 1.800000e+001
      vertex   7.600000e+001 1.500000e+002 1.600000e+001
    endloop
  endfacet
  facet normal 0.000000e+000 -7.071068e-001 0.000000e+000
    outer loop
      vertex   7.600000e+001 1.500000e+002 1.600000e+001
      vertex   7.800000e+001 1.500000e+002 1.800000e+001
      vertex   7.600000e+001 1.500000e+002 1.800000e+001
    endloop
  endfacet
  facet normal 0.000000e+000 0.000000e+000 -1.000000e+000
    outer loop
      vertex   7.600000e+001 1.440000e+002 1.800000e+001
      vertex   7.400000e+001 1.440000e+002 1.800000e+001
      vertex   7.600000e+001 1.460000e+002 1.800000e+001
    endloop
  endfacet
  facet normal -0.000000e+000 0.000000e+000 -7.071068e-001
    outer loop
      vertex   7.600000e+001 1.460000e+002 1.800000e+001
      vertex   7.400000e+001 1.440000e+002 1.800000e+001
      vertex   7.400000e+001 1.460000e+002 1.800000e+001
    endloop
  endfacet
  facet normal 1.000000e+000 0.000000e+000 -0.000000e+000
    outer loop
      vertex   7.400000e+001 1.460000e+002 1.400000e+001
      vertex   7.400000e+001 1.460000e+002 1.800000e+001
      vertex   7.400000e+001 1.440000e+002 1.400000e+001
    endloop
  endfacet
  facet normal 4.472136e-001 0.000000e+000 0.000000e+000
    outer loop
      vertex   7.400000e+001 1.440000e+002 1.400000e+001
      vertex   7.400000e+001 1.460000e+002 1.800000e+001
      vertex   7.400000e+001 1.440000e+002 1.800000e+001
    endloop
  endfacet
  facet normal 4.472136e-001 0.000000e+000 0.000000e+000
    outer loop
      vertex   7.600000e+001 1.440000e+002 1.800000e+001
      vertex   7.600000e+001 1.400000e+002 2.000000e+001
      vertex   7.600000e+001 1.420000e+002 1.800000e+001
    endloop
  endfacet
  facet normal 7.071068e-001 0.000000e+000 0.000000e+000
    outer loop
      vertex   7.600000e+001 1.420000e+002 1.800000e+001
      vertex   7.600000e+001 1.400000e+002 2.000000e+001
      vertex   7.600000e+001 1.400000e+002 1.800000e+001
    endloop
  endfacet
  facet normal 7.071068e-001 0.000000e+000 0.000000e+000
    outer loop
      vertex   7.600000e+001 1.420000e+002 1.800000e+001
      vertex   7.600000e+001 1.400000e+002 1.800000e+001
      vertex   7.600000e+001 1.400000e+002 1.600000e+001
    endloop
  endfacet
  facet normal 4.472136e-001 0.000000e+000 -0.000000e+000
    outer loop
      vertex   7.600000e+001 1.440000e+002 1.800000e+001
      vertex   7.600000e+001 1.460000e+002 1.800000e+001
      vertex   7.600000e+001 1.400000e+002 2.000000e+001
    endloop
  endfacet
  facet normal 3.162278e-001 -0.000000e+000 0.000000e+000
    outer loop
      vertex   7.600000e+001 1.400000e+002 2.000000e+001
      vertex   7.600000e+001 1.460000e+002 1.800000e+001
      vertex   7.600000e+001 1.500000e+002 2.000000e+001
    endloop
  endfacet
  facet normal 3.162278e-001 0.000000e+000 0.000000e+000
    outer loop
      vertex   7.600000e+001 1.500000e+002 2.000000e+001
      vertex   7.600000e+001 1.460000e+002 1.800000e+001
      vertex   7.600000e+001 1.480000e+002 1.800000e+001
    endloop
  endfacet
  facet normal 7.071068e-001 0.000000e+000 0.000000e+000
    outer loop
      vertex   7.600000e+001 1.500000e+002 2.000000e+001
      vertex   7.600000e+001 1.480000e+002 1.800000e+001
      vertex   7.600000e+001 1.500000e+002 1.800000e+001
    endloop
  endfacet
  facet normal 7.071068e-001 0.000000e+000 0.000000e+000
    outer loop
      vertex   7.600000e+001 1.500000e+002 1.800000e+001
      vertex   7.600000e+001 1.480000e+002 1.800000e+001
      vertex   7.600000e+001 1.480000e+002 1.600000e+001
    endloop
  endfacet
  facet normal 7.071068e-001 0.000000e+000 0.000000e+000
    outer loop
      vertex   7.600000e+001 1.500000e+002 1.800000e+001
      vertex   7.600000e+001 1.480000e+002 1.600000e+001
      vertex   7.600000e+001 1.500000e+002 1.600000e+001
    endloop
  endfacet
  facet normal 7.071068e-001 0.000000e+000 0.000000e+000
    outer loop
      vertex   7.600000e+001 1.400000e+002 1.600000e+001
      vertex   7.600000e+001 1.420000e+002 1.600000e+001
      vertex   7.600000e+001 1.420000e+002 1.800000e+001
    endloop
  endfacet
  facet normal 0.000000e+000 0.000000e+000 1.000000e+000
    outer loop
      vertex   7.600000e+001 1.500000e+002 2.000000e+001
      vertex   7.200000e+001 1.500000e+002 2.000000e+001
      vertex   7.600000e+001 1.400000e+002 2.000000e+001
    endloop
  endfacet
  facet normal 0.000000e+000 0.000000e+000 9.284767e-001
    outer loop
      vertex   7.600000e+001 1.400000e+002 2.000000e+001
      vertex   7.200000e+001 1.500000e+002 2.000000e+001
      vertex   7.200000e+001 1.400000e+002 2.000000e+001
    endloop
  endfacet
  facet normal 0.000000e+000 0.000000e+000 1.000000e+000
    outer loop
      vertex   7.800000e+001 1.420000e+002 1.600000e+001
      vertex   7.600000e+001 1.420000e+002 1.600000e+001
      vertex   7.800000e+001 1.400000e+002 1.600000e+001
    endloop
  endfacet
  facet normal 0.000000e+000 0.000000e+000 7.071068e-001
    outer loop
      vertex   7.800000e+001 1.400000e+002 1.600000e+001
      vertex   7.600000e+001 1.420000e+002 1.600000e+001
      vertex   7.600000e+001 1.400000e+002 1.600000e+001
    endloop
  endfacet
  facet normal 0.000000e+000 0.000000e+000 1.000000e+000
    outer loop
      vertex   7.800000e+001 1.400000e+002 1.800000e+001
      vertex   7.600000e+001 1.400000e+002 1.800000e+001
      vertex   7.800000e+001 1.380000e+002 1.800000e+001
    endloop
  endfacet
  facet normal 0.000000e+000 0.000000e+000 7.071068e-001
    outer loop
      vertex   7.800000e+001 1.380000e+002 1.800000e+001
      vertex   7.600000e+001 1.400000e+002 1.800000e+001
      vertex   7.600000e+001 1.380000e+002 1.800000e+001
    endloop
  endfacet
  facet normal 0.000000e+000 1.000000e+000 0.000000e+000
    outer loop
      vertex   7.600000e+001 1.400000e+002 1.600000e+001
      vertex   7.600000e+001 1.400000e+002 1.800000e+001
      vertex   7.800000e+001 1.400000e+002 1.600000e+001
    endloop
  endfacet
  facet normal 0.000000e+000 7.071068e-001 -0.000000e+000
    outer loop
      vertex   7.800000e+001 1.400000e+002 1.600000e+001
      vertex   7.600000e+001 1.400000e+002 1.800000e+001
      vertex   7.800000e+001 1.400000e+002 1.800000e+001
    endloop
  endfacet
  facet normal 0.000000e+000 0.000000e+000 1.000000e+000
    outer loop
      vertex   7.800000e+001 1.440000e+002 1.800000e+001
      vertex   7.600000e+001 1.440000e+002 1.800000e+001
      vertex   7.800000e+001 1.420000e+002 1.800000e+001
    endloop
  endfacet
  facet normal 0.000000e+000 0.000000e+000 7.071068e-001
    outer loop
      vertex   7.800000e+001 1.420000e+002 1.800000e+001
      vertex   7.600000e+001 1.440000e+002 1.800000e+001
      vertex   7.600000e+001 1.420000e+002 1.800000e+001
    endloop
  endfacet
  facet normal 0.000000e+000 -1.000000e+000 0.000000e+000
    outer loop
      vertex   7.800000e+001 1.420000e+002 1.600000e+001
      vertex   7.800000e+001 1.420000e+002 1.800000e+001
      vertex   7.600000e+001 1.420000e+002 1.600000e+001
    endloop
  endfacet
  facet normal 0.000000e+000 -7.071068e-001 0.000000e+000
    outer loop
      vertex   7.600000e+001 1.420000e+002 1.600000e+001
      vertex   7.800000e+001 1.420000e+002 1.800000e+001
      vertex   7.600000e+001 1.420000e+002 1.800000e+001
    endloop
  endfacet
  facet normal 0.000000e+000 1.000000e+000 0.000000e+000
    outer loop
      vertex   7.800000e+001 1.440000e+002 1.800000e+001
      vertex   7.800000e+001 1.440000e+002 1.400000e+001
      vertex   7.600000e+001 1.440000e+002 1.800000e+001
    endloop
  endfacet
  facet normal 0.000000e+000 8.000000e-001 0.000000e+000
    outer loop
      vertex   7.600000e+001 1.440000e+002 1.800000e+001
      vertex   7.800000e+001 1.440000e+002 1.400000e+001
      vertex   7.400000e+001 1.440000e+002 1.400000e+001
    endloop
  endfacet
  facet normal 0.000000e+000 8.944272e-001 0.000000e+000
    outer loop
      vertex   7.600000e+001 1.440000e+002 1.800000e+001
      vertex   7.400000e+001 1.440000e+002 1.400000e+001
      vertex   7.400000e+001 1.440000e+002 1.800000e+001
    endloop
  endfacet
  facet normal 1.000000e+000 -0.000000e+000 0.000000e+000
    outer loop
      vertex   7.800000e+001 1.420000e+002 1.800000e+001
      vertex   7.800000e+001 1.420000e+002 1.600000e+001
      vertex   7.800000e+001 1.440000e+002 1.800000e+001
    endloop
  endfacet
  facet normal 7.071068e-001 0.000000e+000 0.000000e+000
    outer loop
      vertex   7.800000e+001 1.440000e+002 1.800000e+001
      vertex   7.800000e+001 1.420000e+002 1.600000e+001
      vertex   7.800000e+001 1.440000e+002 1.400000e+001
    endloop
  endfacet
  facet normal 7.071068e-001 0.000000e+000 0.000000e+000
    outer loop
      vertex   7.800000e+001 1.440000e+002 1.400000e+001
      vertex   7.800000e+001 1.420000e+002 1.600000e+001
      vertex   7.800000e+001 1.380000e+002 1.400000e+001
    endloop
  endfacet
  facet normal 3.162278e-001 0.000000e+000 0.000000e+000
    outer loop
      vertex   7.800000e+001 1.380000e+002 1.400000e+001
      vertex   7.800000e+001 1.420000e+002 1.600000e+001
      vertex   7.800000e+001 1.400000e+002 1.600000e+001
    endloop
  endfacet
  facet normal 7.071068e-001 0.000000e+000 0.000000e+000
    outer loop
      vertex   7.800000e+001 1.380000e+002 1.400000e+001
      vertex   7.800000e+001 1.400000e+002 1.600000e+001
      vertex   7.800000e+001 1.380000e+002 1.800000e+001
    endloop
  endfacet
  facet normal 7.071068e-001 -0.000000e+000 0.000000e+000
    outer loop
      vertex   7.800000e+001 1.380000e+002 1.800000e+001
      vertex   7.800000e+001 1.400000e+002 1.600000e+001
      vertex   7.800000e+001 1.400000e+002 1.800000e+001
    endloop
  endfacet
  facet normal 0.000000e+000 0.000000e+000 1.000000e+000
    outer loop
      vertex   7.800000e+001 1.500000e+002 1.600000e+001
      vertex   7.600000e+001 1.500000e+002 1.600000e+001
      vertex   7.800000e+001 1.480000e+002 1.600000e+001
    endloop
  endfacet
  facet normal 0.000000e+000 0.000000e+000 7.071068e-001
    outer loop
      vertex   7.800000e+001 1.480000e+002 1.600000e+001
      vertex   7.600000e+001 1.500000e+002 1.600000e+001
      vertex   7.600000e+001 1.480000e+002 1.600000e+001
    endloop
  endfacet
  facet normal 0.000000e+000 0.000000e+000 1.000000e+000
    outer loop
      vertex   7.800000e+001 1.480000e+002 1.800000e+001
      vertex   7.600000e+001 1.480000e+002 1.800000e+001
      vertex   7.800000e+001 1.460000e+002 1.800000e+001
    endloop
  endfacet
  facet normal 0.000000e+000 0.000000e+000 7.071068e-001
    outer loop
      vertex   7.800000e+001 1.460000e+002 1.800000e+001
      vertex   7.600000e+001 1.480000e+002 1.800000e+001
      vertex   7.600000e+001 1.460000e+002 1.800000e+001
    endloop
  endfacet
  facet normal 0.000000e+000 -1.000000e+000 0.000000e+000
    outer loop
      vertex   7.400000e+001 1.460000e+002 1.800000e+001
      vertex   7.400000e+001 1.460000e+002 1.400000e+001
      vertex   7.600000e+001 1.460000e+002 1.800000e+001
    endloop
  endfacet
  facet normal 0.000000e+000 -8.000000e-001 -0.000000e+000
    outer loop
      vertex   7.600000e+001 1.460000e+002 1.800000e+001
      vertex   7.400000e+001 1.460000e+002 1.400000e+001
      vertex   7.800000e+001 1.460000e+002 1.400000e+001
    endloop
  endfacet
  facet normal 0.000000e+000 -8.944272e-001 0.000000e+000
    outer loop
      vertex   7.600000e+001 1.460000e+002 1.800000e+001
      vertex   7.800000e+001 1.460000e+002 1.400000e+001
      vertex   7.800000e+001 1.460000e+002 1.800000e+001
    endloop
  endfacet
  facet normal 0.000000e+000 1.000000e+000 0.000000e+000
    outer loop
      vertex   7.600000e+001 1.480000e+002 1.600000e+001
      vertex   7.600000e+001 1.480000e+002 1.800000e+001
      vertex   7.800000e+001 1.480000e+002 1.600000e+001
    endloop
  endfacet
  facet normal 0.000000e+000 7.071068e-001 -0.000000e+000
    outer loop
      vertex   7.800000e+001 1.480000e+002 1.600000e+001
      vertex   7.600000e+001 1.480000e+002 1.800000e+001
      vertex   7.800000e+001 1.480000e+002 1.800000e+001
    endloop
  endfacet
  facet normal 1.000000e+000 0.000000e+000 0.000000e+000
    outer loop
      vertex   7.800000e+001 1.480000e+002 1.800000e+001
      vertex   7.800000e+001 1.460000e+002 1.800000e+001
      vertex   7.800000e+001 1.480000e+002 1.600000e+001
    endloop
  endfacet
  facet normal 1.000000e+000 0.000000e+000 0.000000e+000
    outer loop
      vertex   7.800000e+001 1.480000e+002 1.600000e+001
      vertex   7.800000e+001 1.460000e+002 1.800000e+001
      vertex   7.800000e+001 1.460000e+002 1.400000e+001
    endloop
  endfacet
  facet normal 7.071068e-001 -0.000000e+000 0.000000e+000
    outer loop
      vertex   7.800000e+001 1.480000e+002 1.600000e+001
      vertex   7.800000e+001 1.460000e+002 1.400000e+001
      vertex   7.800000e+001 1.500000e+002 1.600000e+001
    endloop
  endfacet
  facet normal 9.486833e-001 0.000000e+000 0.000000e+000
    outer loop
      vertex   7.800000e+001 1.500000e+002 1.600000e+001
      vertex   7.800000e+001 1.460000e+002 1.400000e+001
      vertex   7.800000e+001 1.520000e+002 1.400000e+001
    endloop
  endfacet
  facet normal 1.000000e+000 -0.000000e+000 0.000000e+000
    outer loop
      vertex   7.800000e+001 1.500000e+002 1.600000e+001
      vertex   7.800000e+001 1.520000e+002 1.400000e+001
      vertex   7.800000e+001 1.520000e+002 1.800000e+001
    endloop
  endfacet
  facet normal 7.071068e-001 0.000000e+000 0.000000e+000
    outer loop
      vertex   7.800000e+001 1.520000e+002 1.800000e+001
      vertex   7.800000e+001 1.500000e+002 1.800000e+001
      vertex   7.800000e+001 1.500000e+002 1.600000e+001
    endloop
  endfacet
  facet normal 0.000000e+000 -1.000000e+000 0.000000e+000
    outer loop
      vertex   7.200000e+001 1.460000e+002 1.600000e+001
      vertex   7.200000e+001 1.460000e+002 1.800000e+001
      vertex   7.000000e+001 1.460000e+002 1.600000e+001
    endloop
  endfacet
  facet normal 0.000000e+000 -7.071068e-001 0.000000e+000
    outer loop
      vertex   7.000000e+001 1.460000e+002 1.600000e+001
      vertex   7.200000e+001 1.460000e+002 1.800000e+001
      vertex   7.000000e+001 1.460000e+002 1.800000e+001
    endloop
  endfacet
  facet normal 0.000000e+000 1.000000e+000 0.000000e+000
    outer loop
      vertex   7.000000e+001 1.480000e+002 1.600000e+001
      vertex   7.000000e+001 1.480000e+002 1.800000e+001
      vertex   7.200000e+001 1.480000e+002 1.600000e+001
    endloop
  endfacet
  facet normal 0.000000e+000 7.071068e-001 -0.000000e+000
    outer loop
      vertex   7.200000e+001 1.480000e+002 1.600000e+001
      vertex   7.000000e+001 1.480000e+002 1.800000e+001
      vertex   7.200000e+001 1.480000e+002 1.800000e+001
    endloop
  endfacet
  facet normal 0.000000e+000 0.000000e+000 1.000000e+000
    outer loop
      vertex   7.200000e+001 1.480000e+002 1.800000e+001
      vertex   7.000000e+001 1.480000e+002 1.800000e+001
      vertex   7.200000e+001 1.460000e+002 1.800000e+001
    endloop
  endfacet
  facet normal 0.000000e+000 0.000000e+000 7.071068e-001
    outer loop
      vertex   7.200000e+001 1.460000e+002 1.800000e+001
      vertex   7.000000e+001 1.480000e+002 1.800000e+001
      vertex   7.000000e+001 1.460000e+002 1.800000e+001
    endloop
  endfacet
  facet normal 0.000000e+000 0.000000e+000 1.000000e+000
    outer loop
      vertex   7.200000e+001 1.500000e+002 1.600000e+001
      vertex   7.000000e+001 1.500000e+002 1.600000e+001
      vertex   7.200000e+001 1.480000e+002 1.600000e+001
    endloop
  endfacet
  facet normal 0.000000e+000 0.000000e+000 7.071068e-001
    outer loop
      vertex   7.200000e+001 1.480000e+002 1.600000e+001
      vertex   7.000000e+001 1.500000e+002 1.600000e+001
      vertex   7.000000e+001 1.480000e+002 1.600000e+001
    endloop
  endfacet
  facet normal 0.000000e+000 0.000000e+000 1.000000e+000
    outer loop
      vertex   7.200000e+001 1.520000e+002 1.800000e+001
      vertex   7.000000e+001 1.520000e+002 1.800000e+001
      vertex   7.200000e+001 1.500000e+002 1.800000e+001
    endloop
  endfacet
  facet normal 0.000000e+000 0.000000e+000 7.071068e-001
    outer loop
      vertex   7.200000e+001 1.500000e+002 1.800000e+001
      vertex   7.000000e+001 1.520000e+002 1.800000e+001
      vertex   7.000000e+001 1.500000e+002 1.800000e+001
    endloop
  endfacet
  facet normal 1.000000e+000 0.000000e+000 -0.000000e+000
    outer loop
      vertex   7.200000e+001 1.520000e+002 1.600000e+001
      vertex   7.200000e+001 1.520000e+002 1.800000e+001
      vertex   7.200000e+001 1.500000e+002 1.600000e+001
    endloop
  endfacet
  facet normal 7.071068e-001 0.000000e+000 0.000000e+000
    outer loop
      vertex   7.200000e+001 1.500000e+002 1.600000e+001
      vertex   7.200000e+001 1.520000e+002 1.800000e+001
      vertex   7.200000e+001 1.500000e+002 1.800000e+001
    endloop
  endfacet
  facet normal 0.000000e+000 0.000000e+000 1.000000e+000
    outer loop
      vertex   7.600000e+001 1.520000e+002 1.600000e+001
      vertex   7.200000e+001 1.520000e+002 1.600000e+001
      vertex   7.600000e+001 1.500000e+002 1.600000e+001
    endloop
  endfacet
  facet normal 0.000000e+000 0.000000e+000 4.472136e-001
    outer loop
      vertex   7.600000e+001 1.500000e+002 1.600000e+001
      vertex   7.200000e+001 1.520000e+002 1.600000e+001
      vertex   7.200000e+001 1.500000e+002 1.600000e+001
    endloop
  endfacet
  facet normal 0.000000e+000 -1.000000e+000 0.000000e+000
    outer loop
      vertex   7.200000e+001 1.500000e+002 1.600000e+001
      vertex   7.200000e+001 1.500000e+002 1.800000e+001
      vertex   7.000000e+001 1.500000e+002 1.600000e+001
    endloop
  endfacet
  facet normal 0.000000e+000 -7.071068e-001 0.000000e+000
    outer loop
      vertex   7.000000e+001 1.500000e+002 1.600000e+001
      vertex   7.200000e+001 1.500000e+002 1.800000e+001
      vertex   7.000000e+001 1.500000e+002 1.800000e+001
    endloop
  endfacet
  facet normal 0.000000e+000 7.071068e-001 0.000000e+000
    outer loop
      vertex   7.800000e+001 1.520000e+002 1.800000e+001
      vertex   7.800000e+001 1.520000e+002 1.400000e+001
      vertex   7.600000e+001 1.520000e+002 1.600000e+001
    endloop
  endfacet
  facet normal 0.000000e+000 8.944272e-001 0.000000e+000
    outer loop
      vertex   7.600000e+001 1.520000e+002 1.600000e+001
      vertex   7.800000e+001 1.520000e+002 1.400000e+001
      vertex   7.000000e+001 1.520000e+002 1.400000e+001
    endloop
  endfacet
  facet normal 0.000000e+000 3.162278e-001 0.000000e+000
    outer loop
      vertex   7.600000e+001 1.520000e+002 1.600000e+001
      vertex   7.000000e+001 1.520000e+002 1.400000e+001
      vertex   7.200000e+001 1.520000e+002 1.600000e+001
    endloop
  endfacet
  facet normal 0.000000e+000 1.000000e+000 0.000000e+000
    outer loop
      vertex   7.200000e+001 1.520000e+002 1.600000e+001
      vertex   7.000000e+001 1.520000e+002 1.400000e+001
      vertex   7.000000e+001 1.520000e+002 1.800000e+001
    endloop
  endfacet
  facet normal 0.000000e+000 7.071068e-001 -0.000000e+000
    outer loop
      vertex   7.200000e+001 1.520000e+002 1.600000e+001
      vertex   7.000000e+001 1.520000e+002 1.800000e+001
      vertex   7.200000e+001 1.520000e+002 1.800000e+001
    endloop
  endfacet
  facet normal 0.000000e+000 7.071068e-001 0.000000e+000
    outer loop
      vertex   7.600000e+001 1.520000e+002 1.600000e+001
      vertex   7.600000e+001 1.520000e+002 1.800000e+001
      vertex   7.800000e+001 1.520000e+002 1.800000e+001
    endloop
  endfacet
  facet normal 0.000000e+000 0.000000e+000 1.000000e+000
    outer loop
      vertex   7.200000e+001 1.420000e+002 1.600000e+001
      vertex   7.000000e+001 1.420000e+002 1.600000e+001
      vertex   7.200000e+001 1.400000e+002 1.600000e+001
    endloop
  endfacet
  facet normal 0.000000e+000 0.000000e+000 7.071068e-001
    outer loop
      vertex   7.200000e+001 1.400000e+002 1.600000e+001
      vertex   7.000000e+001 1.420000e+002 1.600000e+001
      vertex   7.000000e+001 1.400000e+002 1.600000e+001
    endloop
  endfacet
  facet normal 1.000000e+000 0.000000e+000 -0.000000e+000
    outer loop
      vertex   7.200000e+001 1.400000e+002 1.600000e+001
      vertex   7.200000e+001 1.400000e+002 1.800000e+001
      vertex   7.200000e+001 1.380000e+002 1.600000e+001
    endloop
  endfacet
  facet normal 7.071068e-001 0.000000e+000 0.000000e+000
    outer loop
      vertex   7.200000e+001 1.380000e+002 1.600000e+001
      vertex   7.200000e+001 1.400000e+002 1.800000e+001
      vertex   7.200000e+001 1.380000e+002 1.800000e+001
    endloop
  endfacet
  facet normal 0.000000e+000 0.000000e+000 1.000000e+000
    outer loop
      vertex   7.200000e+001 1.400000e+002 1.800000e+001
      vertex   7.000000e+001 1.400000e+002 1.800000e+001
      vertex   7.200000e+001 1.380000e+002 1.800000e+001
    endloop
  endfacet
  facet normal 0.000000e+000 0.000000e+000 7.071068e-001
    outer loop
      vertex   7.200000e+001 1.380000e+002 1.800000e+001
      vertex   7.000000e+001 1.400000e+002 1.800000e+001
      vertex   7.000000e+001 1.380000e+002 1.800000e+001
    endloop
  endfacet
  facet normal 0.000000e+000 0.000000e+000 1.000000e+000
    outer loop
      vertex   7.600000e+001 1.400000e+002 1.600000e+001
      vertex   7.200000e+001 1.400000e+002 1.600000e+001
      vertex   7.600000e+001 1.380000e+002 1.600000e+001
    endloop
  endfacet
  facet normal 0.000000e+000 0.000000e+000 4.472136e-001
    outer loop
      vertex   7.600000e+001 1.380000e+002 1.600000e+001
      vertex   7.200000e+001 1.400000e+002 1.600000e+001
      vertex   7.200000e+001 1.380000e+002 1.600000e+001
    endloop
  endfacet
  facet normal 0.000000e+000 -7.071068e-001 0.000000e+000
    outer loop
      vertex   7.800000e+001 1.380000e+002 1.400000e+001
      vertex   7.600000e+001 1.380000e+002 1.600000e+001
      vertex   7.000000e+001 1.380000e+002 1.400000e+001
    endloop
  endfacet
  facet normal 0.000000e+000 -4.472136e-001 0.000000e+000
    outer loop
      vertex   7.000000e+001 1.380000e+002 1.400000e+001
      vertex   7.600000e+001 1.380000e+002 1.600000e+001
      vertex   7.200000e+001 1.380000e+002 1.600000e+001
    endloop
  endfacet
  facet normal 0.000000e+000 -7.071068e-001 0.000000e+000
    outer loop
      vertex   7.000000e+001 1.380000e+002 1.400000e+001
      vertex   7.200000e+001 1.380000e+002 1.600000e+001
      vertex   7.000000e+001 1.380000e+002 1.800000e+001
    endloop
  endfacet
  facet normal 0.000000e+000 -7.071068e-001 0.000000e+000
    outer loop
      vertex   7.000000e+001 1.380000e+002 1.800000e+001
      vertex   7.200000e+001 1.380000e+002 1.600000e+001
      vertex   7.200000e+001 1.380000e+002 1.800000e+001
    endloop
  endfacet
  facet normal 0.000000e+000 -7.071068e-001 0.000000e+000
    outer loop
      vertex   7.800000e+001 1.380000e+002 1.400000e+001
      vertex   7.800000e+001 1.380000e+002 1.800000e+001
      vertex   7.600000e+001 1.380000e+002 1.600000e+001
    endloop
  endfacet
  facet normal 0.000000e+000 -7.071068e-001 0.000000e+000
    outer loop
      vertex   7.600000e+001 1.380000e+002 1.600000e+001
      vertex   7.800000e+001 1.380000e+002 1.800000e+001
      vertex   7.600000e+001 1.380000e+002 1.800000e+001
    endloop
  endfacet
  facet normal 0.000000e+000 1.000000e+000 0.000000e+000
    outer loop
      vertex   7.000000e+001 1.400000e+002 1.600000e+001
      vertex   7.000000e+001 1.400000e+002 1.800000e+001
      vertex   7.200000e+001 1.400000e+002 1.600000e+001
    endloop
  endfacet
  facet normal 0.000000e+000 7.071068e-001 -0.000000e+000
    outer loop
      vertex   7.200000e+001 1.400000e+002 1.600000e+001
      vertex   7.000000e+001 1.400000e+002 1.800000e+001
      vertex   7.200000e+001 1.400000e+002 1.800000e+001
    endloop
  endfacet
  facet normal 0.000000e+000 0.000000e+000 1.000000e+000
    outer loop
      vertex   7.200000e+001 1.460000e+002 1.600000e+001
      vertex   7.000000e+001 1.460000e+002 1.600000e+001
      vertex   7.200000e+001 1.440000e+002 1.600000e+001
    endloop
  endfacet
  facet normal 0.000000e+000 0.000000e+000 7.071068e-001
    outer loop
      vertex   7.200000e+001 1.440000e+002 1.600000e+001
      vertex   7.000000e+001 1.460000e+002 1.600000e+001
      vertex   7.000000e+001 1.440000e+002 1.600000e+001
    endloop
  endfacet
  facet normal 0.000000e+000 0.000000e+000 1.000000e+000
    outer loop
      vertex   7.200000e+001 1.440000e+002 1.800000e+001
      vertex   7.000000e+001 1.440000e+002 1.800000e+001
      vertex   7.200000e+001 1.420000e+002 1.800000e+001
    endloop
  endfacet
  facet normal 0.000000e+000 0.000000e+000 7.071068e-001
    outer loop
      vertex   7.200000e+001 1.420000e+002 1.800000e+001
      vertex   7.000000e+001 1.440000e+002 1.800000e+001
      vertex   7.000000e+001 1.420000e+002 1.800000e+001
    endloop
  endfacet
  facet normal 0.000000e+000 -1.000000e+000 0.000000e+000
    outer loop
      vertex   7.200000e+001 1.420000e+002 1.600000e+001
      vertex   7.200000e+001 1.420000e+002 1.800000e+001
      vertex   7.000000e+001 1.420000e+002 1.600000e+001
    endloop
  endfacet
  facet normal 0.000000e+000 -7.071068e-001 0.000000e+000
    outer loop
      vertex   7.000000e+001 1.420000e+002 1.600000e+001
      vertex   7.200000e+001 1.420000e+002 1.800000e+001
      vertex   7.000000e+001 1.420000e+002 1.800000e+001
    endloop
  endfacet
  facet normal -1.000000e+000 -0.000000e+000 -0.000000e+000
    outer loop
      vertex   7.000000e+001 1.440000e+002 1.800000e+001
      vertex   7.000000e+001 1.440000e+002 1.600000e+001
      vertex   7.000000e+001 1.420000e+002 1.800000e+001
    endloop
  endfacet
  facet normal -7.071068e-001 0.000000e+000 0.000000e+000
    outer loop
      vertex   7.000000e+001 1.420000e+002 1.800000e+001
      vertex   7.000000e+001 1.440000e+002 1.600000e+001
      vertex   7.000000e+001 1.420000e+002 1.600000e+001
    endloop
  endfacet
  facet normal -4.472136e-001 0.000000e+000 -0.000000e+000
    outer loop
      vertex   7.000000e+001 1.420000e+002 1.600000e+001
      vertex   7.000000e+001 1.440000e+002 1.600000e+001
      vertex   7.000000e+001 1.380000e+002 1.400000e+001
    endloop
  endfacet
  facet normal -4.472136e-001 -0.000000e+000 0.000000e+000
    outer loop
      vertex   7.000000e+001 1.420000e+002 1.600000e+001
      vertex   7.000000e+001 1.380000e+002 1.400000e+001
      vertex   7.000000e+001 1.400000e+002 1.600000e+001
    endloop
  endfacet
  facet normal -1.000000e+000 -0.000000e+000 0.000000e+000
    outer loop
      vertex   7.000000e+001 1.400000e+002 1.600000e+001
      vertex   7.000000e+001 1.380000e+002 1.400000e+001
      vertex   7.000000e+001 1.380000e+002 1.800000e+001
    endloop
  endfacet
  facet normal -7.071068e-001 0.000000e+000 0.000000e+000
    outer loop
      vertex   7.000000e+001 1.400000e+002 1.600000e+001
      vertex   7.000000e+001 1.380000e+002 1.800000e+001
      vertex   7.000000e+001 1.400000e+002 1.800000e+001
    endloop
  endfacet
  facet normal -3.162278e-001 0.000000e+000 -0.000000e+000
    outer loop
      vertex   7.000000e+001 1.440000e+002 1.600000e+001
      vertex   7.000000e+001 1.460000e+002 1.600000e+001
      vertex   7.000000e+001 1.380000e+002 1.400000e+001
    endloop
  endfacet
  facet normal -2.425356e-001 0.000000e+000 0.000000e+000
    outer loop
      vertex   7.000000e+001 1.380000e+002 1.400000e+001
      vertex   7.000000e+001 1.460000e+002 1.600000e+001
      vertex   7.000000e+001 1.520000e+002 1.400000e+001
    endloop
  endfacet
  facet normal -1.414214e-001 0.000000e+000 0.000000e+000
    outer loop
      vertex   7.000000e+001 1.520000e+002 1.400000e+001
      vertex   7.000000e+001 1.460000e+002 1.600000e+001
      vertex   7.000000e+001 1.480000e+002 1.600000e+001
    endloop
  endfacet
  facet normal -3.162278e-001 0.000000e+000 0.000000e+000
    outer loop
      vertex   7.000000e+001 1.520000e+002 1.400000e+001
      vertex   7.000000e+001 1.480000e+002 1.600000e+001
      vertex   7.000000e+001 1.500000e+002 1.600000e+001
    endloop
  endfacet
  facet normal -1.000000e+000 0.000000e+000 0.000000e+000
    outer loop
      vertex   7.000000e+001 1.460000e+002 1.600000e+001
      vertex   7.000000e+001 1.460000e+002 1.800000e+001
      vertex   7.000000e+001 1.480000e+002 1.600000e+001
    endloop
  endfacet
  facet normal -7.071068e-001 0.000000e+000 0.000000e+000
    outer loop
      vertex   7.000000e+001 1.480000e+002 1.600000e+001
      vertex   7.000000e+001 1.460000e+002 1.800000e+001
      vertex   7.000000e+001 1.480000e+002 1.800000e+001
    endloop
  endfacet
  facet normal -1.000000e+000 0.000000e+000 0.000000e+000
    outer loop
      vertex   7.000000e+001 1.500000e+002 1.800000e+001
      vertex   7.000000e+001 1.520000e+002 1.800000e+001
      vertex   7.000000e+001 1.500000e+002 1.600000e+001
    endloop
  endfacet
  facet normal -1.000000e+000 0.000000e+000 0.000000e+000
    outer loop
      vertex   7.000000e+001 1.500000e+002 1.600000e+001
      vertex   7.000000e+001 1.520000e+002 1.800000e+001
      vertex   7.000000e+001 1.520000e+002 1.400000e+001
    endloop
  endfacet
  facet normal 0.000000e+000 1.000000e+000 0.000000e+000
    outer loop
      vertex   7.000000e+001 1.440000e+002 1.600000e+001
      vertex   7.000000e+001 1.440000e+002 1.800000e+001
      vertex   7.200000e+001 1.440000e+002 1.600000e+001
    endloop
  endfacet
  facet normal 0.000000e+000 7.071068e-001 -0.000000e+000
    outer loop
      vertex   7.200000e+001 1.440000e+002 1.600000e+001
      vertex   7.000000e+001 1.440000e+002 1.800000e+001
      vertex   7.200000e+001 1.440000e+002 1.800000e+001
    endloop
  endfacet
endsolid
