solid ascii
  facet normal -1.000000e+000 -0.000000e+000 -0.000000e+000
    outer loop
      vertex   -1.429815e+002 1.760000e+002 1.740741e+000
      vertex   -1.429815e+002 1.760000e+002 7.407407e-001
      vertex   -1.429815e+002 1.750000e+002 1.740741e+000
    endloop
  endfacet
  facet normal -7.071067e-001 0.000000e+000 0.000000e+000
    outer loop
      vertex   -1.429815e+002 1.750000e+002 1.740741e+000
      vertex   -1.429815e+002 1.760000e+002 7.407407e-001
      vertex   -1.429815e+002 1.750000e+002 7.407407e-001
    endloop
  endfacet
  facet normal 0.000000e+000 1.000000e+000 0.000000e+000
    outer loop
      vertex   -1.439815e+002 1.750000e+002 7.407407e-001
      vertex   -1.439815e+002 1.750000e+002 1.740741e+000
      vertex   -1.429815e+002 1.750000e+002 7.407407e-001
    endloop
  endfacet
  facet normal 0.000000e+000 7.071067e-001 -0.000000e+000
    outer loop
      vertex   -1.429815e+002 1.750000e+002 7.407407e-001
      vertex   -1.439815e+002 1.750000e+002 1.740741e+000
      vertex   -1.429815e+002 1.750000e+002 1.740741e+000
    endloop
  endfacet
  facet normal 0.000000e+000 1.000000e+000 0.000000e+000
    outer loop
      vertex   -1.429815e+002 1.760000e+002 7.407407e-001
      vertex   -1.429815e+002 1.760000e+002 1.740741e+000
      vertex   -1.319815e+002 1.760000e+002 7.407408e-001
    endloop
  endfacet
  facet normal 0.000000e+000 9.958932e-001 -0.000000e+000
    outer loop
      vertex   -1.319815e+002 1.760000e+002 7.407408e-001
      vertex   -1.429815e+002 1.760000e+002 1.740741e+000
      vertex   -1.319815e+002 1.760000e+002 1.740741e+000
    endloop
  endfacet
  facet normal 0.000000e+000 -1.490116e-008 1.000000e+000
    outer loop
      vertex   -1.319815e+002 1.680000e+002 1.740741e+000
      vertex   -1.319815e+002 1.760000e+002 1.740741e+000
      vertex   -1.339815e+002 1.680000e+002 1.740741e+000
    endloop
  endfacet
  facet normal 1.267897e-009 -1.394687e-008 9.146866e-001
    outer loop
      vertex   -1.339815e+002 1.680000e+002 1.740741e+000
      vertex   -1.319815e+002 1.760000e+002 1.740741e+000
      vertex   -1.429815e+002 1.750000e+002 1.740741e+000
    endloop
  endfacet
  facet normal 7.393046e-009 -7.393046e-009 9.922779e-001
    outer loop
      vertex   -1.339815e+002 1.680000e+002 1.740741e+000
      vertex   -1.429815e+002 1.750000e+002 1.740741e+000
      vertex   -1.359815e+002 1.660000e+002 1.740741e+000
    endloop
  endfacet
  facet normal 1.551208e-008 -8.164254e-010 9.725115e-001
    outer loop
      vertex   -1.359815e+002 1.660000e+002 1.740741e+000
      vertex   -1.429815e+002 1.750000e+002 1.740741e+000
      vertex   -1.439815e+002 1.560000e+002 1.740741e+000
    endloop
  endfacet
  facet normal 9.308682e-009 0.000000e+000 6.246951e-001
    outer loop
      vertex   -1.359815e+002 1.660000e+002 1.740741e+000
      vertex   -1.439815e+002 1.560000e+002 1.740741e+000
      vertex   -1.359815e+002 1.560000e+002 1.740741e+000
    endloop
  endfacet
  facet normal 0.000000e+000 0.000000e+000 9.053575e-002
    outer loop
      vertex   -1.319815e+002 1.760000e+002 1.740741e+000
      vertex   -1.429815e+002 1.760000e+002 1.740741e+000
      vertex   -1.429815e+002 1.750000e+002 1.740741e+000
    endloop
  endfacet
  facet normal 0.000000e+000 0.000000e+000 9.986178e-001
    outer loop
      vertex   -1.429815e+002 1.750000e+002 1.740741e+000
      vertex   -1.439815e+002 1.750000e+002 1.740741e+000
      vertex   -1.439815e+002 1.560000e+002 1.740741e+000
    endloop
  endfacet
  facet normal 0.000000e+000 0.000000e+000 7.071068e-001
    outer loop
      vertex   -1.359815e+002 1.660000e+002 1.740741e+000
      vertex   -1.339815e+002 1.660000e+002 1.740741e+000
      vertex   -1.339815e+002 1.680000e+002 1.740741e+000
    endloop
  endfacet
  facet normal -1.000000e+000 0.000000e+000 0.000000e+000
    outer loop
      vertex   -1.439815e+002 1.750000e+002 7.407407e-001
      vertex   -1.439815e+002 1.560000e+002 7.407408e-001
      vertex   -1.439815e+002 1.750000e+002 1.740741e+000
    endloop
  endfacet
  facet normal -5.255883e-002 -0.000000e+000 0.000000e+000
    outer loop
      vertex   -1.439815e+002 1.750000e+002 1.740741e+000
      vertex   -1.439815e+002 1.560000e+002 7.407408e-001
      vertex   -1.439815e+002 1.560000e+002 1.740741e+000
    endloop
  endfacet
  facet normal 0.000000e+000 1.000000e+000 0.000000e+000
    outer loop
      vertex   -1.539815e+002 1.880000e+002 -2.592593e-001
      vertex   -1.539815e+002 1.880000e+002 7.407408e-001
      vertex   -1.319815e+002 1.880000e+002 -2.592593e-001
    endloop
  endfacet
  facet normal 0.000000e+000 9.989685e-001 -0.000000e+000
    outer loop
      vertex   -1.319815e+002 1.880000e+002 -2.592593e-001
      vertex   -1.539815e+002 1.880000e+002 7.407408e-001
      vertex   -1.319815e+002 1.880000e+002 7.407408e-001
    endloop
  endfacet
  facet normal 0.000000e+000 0.000000e+000 -1.000000e+000
    outer loop
      vertex   -1.319815e+002 1.560000e+002 -2.592593e-001
      vertex   -1.539815e+002 1.560000e+002 -2.592593e-001
      vertex   -1.319815e+002 1.880000e+002 -2.592593e-001
    endloop
  endfacet
  facet normal -0.000000e+000 0.000000e+000 -8.240419e-001
    outer loop
      vertex   -1.319815e+002 1.880000e+002 -2.592593e-001
      vertex   -1.539815e+002 1.560000e+002 -2.592593e-001
      vertex   -1.539815e+002 1.880000e+002 -2.592593e-001
    endloop
  endfacet
  facet normal 0.000000e+000 6.274173e-009 1.000000e+000
    outer loop
      vertex   -1.439815e+002 1.560000e+002 7.407408e-001
      vertex   -1.439815e+002 1.750000e+002 7.407407e-001
      vertex   -1.539815e+002 1.560000e+002 7.407408e-001
    endloop
  endfacet
  facet normal 5.552130e-009 -0.000000e+000 4.657464e-001
    outer loop
      vertex   -1.539815e+002 1.560000e+002 7.407408e-001
      vertex   -1.439815e+002 1.750000e+002 7.407407e-001
      vertex   -1.539815e+002 1.880000e+002 7.407408e-001
    endloop
  endfacet
  facet normal 4.464893e-010 -4.464893e-010 8.614474e-002
    outer loop
      vertex   -1.539815e+002 1.880000e+002 7.407408e-001
      vertex   -1.439815e+002 1.750000e+002 7.407407e-001
      vertex   -1.429815e+002 1.760000e+002 7.407407e-001
    endloop
  endfacet
  facet normal 0.000000e+000 -7.322968e-009 7.371541e-001
    outer loop
      vertex   -1.539815e+002 1.880000e+002 7.407408e-001
      vertex   -1.429815e+002 1.760000e+002 7.407407e-001
      vertex   -1.319815e+002 1.880000e+002 7.407408e-001
    endloop
  endfacet
  facet normal -7.322968e-009 0.000000e+000 6.757246e-001
    outer loop
      vertex   -1.319815e+002 1.880000e+002 7.407408e-001
      vertex   -1.429815e+002 1.760000e+002 7.407407e-001
      vertex   -1.319815e+002 1.760000e+002 7.407408e-001
    endloop
  endfacet
  facet normal 0.000000e+000 0.000000e+000 7.071068e-001
    outer loop
      vertex   -1.439815e+002 1.750000e+002 7.407407e-001
      vertex   -1.429815e+002 1.750000e+002 7.407407e-001
      vertex   -1.429815e+002 1.760000e+002 7.407407e-001
    endloop
  endfacet
  facet normal -1.000000e+000 0.000000e+000 0.000000e+000
    outer loop
      vertex   -1.539815e+002 1.560000e+002 7.407408e-001
      vertex   -1.539815e+002 1.880000e+002 7.407408e-001
      vertex   -1.539815e+002 1.560000e+002 -2.592593e-001
    endloop
  endfacet
  facet normal -3.123475e-002 0.000000e+000 0.000000e+000
    outer loop
      vertex   -1.539815e+002 1.560000e+002 -2.592593e-001
      vertex   -1.539815e+002 1.880000e+002 7.407408e-001
      vertex   -1.539815e+002 1.880000e+002 -2.592593e-001
    endloop
  endfacet
  facet normal 0.000000e+000 0.000000e+000 1.000000e+000
    outer loop
      vertex   -1.339815e+002 1.640000e+002 5.740741e+000
      vertex   -1.359815e+002 1.640000e+002 5.740741e+000
      vertex   -1.339815e+002 1.560000e+002 5.740741e+000
    endloop
  endfacet
  facet normal 0.000000e+000 0.000000e+000 9.701425e-001
    outer loop
      vertex   -1.339815e+002 1.560000e+002 5.740741e+000
      vertex   -1.359815e+002 1.640000e+002 5.740741e+000
      vertex   -1.359815e+002 1.560000e+002 5.740741e+000
    endloop
  endfacet
  facet normal 0.000000e+000 1.000000e+000 0.000000e+000
    outer loop
      vertex   -1.339815e+002 1.640000e+002 5.740741e+000
      vertex   -1.339815e+002 1.640000e+002 3.740741e+000
      vertex   -1.359815e+002 1.640000e+002 5.740741e+000
    endloop
  endfacet
  facet normal 0.000000e+000 7.071068e-001 0.000000e+000
    outer loop
      vertex   -1.359815e+002 1.640000e+002 5.740741e+000
      vertex   -1.339815e+002 1.640000e+002 3.740741e+000
      vertex   -1.359815e+002 1.640000e+002 3.740741e+000
    endloop
  endfacet
  facet normal 0.000000e+000 0.000000e+000 1.000000e+000
    outer loop
      vertex   -1.339815e+002 1.660000e+002 5.740741e+000
      vertex   -1.319815e+002 1.660000e+002 5.740741e+000
      vertex   -1.339815e+002 1.680000e+002 5.740741e+000
    endloop
  endfacet
  facet normal -0.000000e+000 0.000000e+000 7.071068e-001
    outer loop
      vertex   -1.339815e+002 1.680000e+002 5.740741e+000
      vertex   -1.319815e+002 1.660000e+002 5.740741e+000
      vertex   -1.319815e+002 1.680000e+002 5.740741e+000
    endloop
  endfacet
  facet normal 0.000000e+000 0.000000e+000 1.000000e+000
    outer loop
      vertex   -1.359815e+002 1.640000e+002 3.740741e+000
      vertex   -1.339815e+002 1.640000e+002 3.740741e+000
      vertex   -1.359815e+002 1.660000e+002 3.740741e+000
    endloop
  endfacet
  facet normal -0.000000e+000 0.000000e+000 7.071068e-001
    outer loop
      vertex   -1.359815e+002 1.660000e+002 3.740741e+000
      vertex   -1.339815e+002 1.640000e+002 3.740741e+000
      vertex   -1.339815e+002 1.660000e+002 3.740741e+000
    endloop
  endfacet
  facet normal -1.000000e+000 -0.000000e+000 -0.000000e+000
    outer loop
      vertex   -1.359815e+002 1.660000e+002 3.740741e+000
      vertex   -1.359815e+002 1.660000e+002 1.740741e+000
      vertex   -1.359815e+002 1.640000e+002 3.740741e+000
    endloop
  endfacet
  facet normal -8.574929e-001 0.000000e+000 -0.000000e+000
    outer loop
      vertex   -1.359815e+002 1.640000e+002 3.740741e+000
      vertex   -1.359815e+002 1.660000e+002 1.740741e+000
      vertex   -1.359815e+002 1.560000e+002 1.740741e+000
    endloop
  endfacet
  facet normal -4.705882e-001 -0.000000e+000 0.000000e+000
    outer loop
      vertex   -1.359815e+002 1.640000e+002 3.740741e+000
      vertex   -1.359815e+002 1.560000e+002 1.740741e+000
      vertex   -1.359815e+002 1.560000e+002 5.740741e+000
    endloop
  endfacet
  facet normal -2.425356e-001 0.000000e+000 0.000000e+000
    outer loop
      vertex   -1.359815e+002 1.560000e+002 5.740741e+000
      vertex   -1.359815e+002 1.640000e+002 5.740741e+000
      vertex   -1.359815e+002 1.640000e+002 3.740741e+000
    endloop
  endfacet
  facet normal 0.000000e+000 1.000000e+000 0.000000e+000
    outer loop
      vertex   -1.339815e+002 1.660000e+002 3.740741e+000
      vertex   -1.339815e+002 1.660000e+002 1.740741e+000
      vertex   -1.359815e+002 1.660000e+002 3.740741e+000
    endloop
  endfacet
  facet normal 0.000000e+000 7.071068e-001 0.000000e+000
    outer loop
      vertex   -1.359815e+002 1.660000e+002 3.740741e+000
      vertex   -1.339815e+002 1.660000e+002 1.740741e+000
      vertex   -1.359815e+002 1.660000e+002 1.740741e+000
    endloop
  endfacet
  facet normal 0.000000e+000 -7.071068e-001 -0.000000e+000
    outer loop
      vertex   -1.319815e+002 1.560000e+002 7.740741e+000
      vertex   -1.339815e+002 1.560000e+002 5.740741e+000
      vertex   -1.319815e+002 1.560000e+002 -2.592593e-001
    endloop
  endfacet
  facet normal 0.000000e+000 -7.071068e-001 0.000000e+000
    outer loop
      vertex   -1.319815e+002 1.560000e+002 -2.592593e-001
      vertex   -1.339815e+002 1.560000e+002 5.740741e+000
      vertex   -1.359815e+002 1.560000e+002 1.740741e+000
    endloop
  endfacet
  facet normal 0.000000e+000 -3.713906e-001 0.000000e+000
    outer loop
      vertex   -1.319815e+002 1.560000e+002 -2.592593e-001
      vertex   -1.359815e+002 1.560000e+002 1.740741e+000
      vertex   -1.439815e+002 1.560000e+002 7.407408e-001
    endloop
  endfacet
  facet normal 0.000000e+000 -9.922779e-001 0.000000e+000
    outer loop
      vertex   -1.439815e+002 1.560000e+002 7.407408e-001
      vertex   -1.359815e+002 1.560000e+002 1.740741e+000
      vertex   -1.439815e+002 1.560000e+002 1.740741e+000
    endloop
  endfacet
  facet normal -0.000000e+000 -7.071068e-001 0.000000e+000
    outer loop
      vertex   -1.319815e+002 1.560000e+002 7.740741e+000
      vertex   -1.339815e+002 1.560000e+002 7.740741e+000
      vertex   -1.339815e+002 1.560000e+002 5.740741e+000
    endloop
  endfacet
  facet normal -0.000000e+000 -8.944272e-001 0.000000e+000
    outer loop
      vertex   -1.339815e+002 1.560000e+002 5.740741e+000
      vertex   -1.359815e+002 1.560000e+002 5.740741e+000
      vertex   -1.359815e+002 1.560000e+002 1.740741e+000
    endloop
  endfacet
  facet normal 0.000000e+000 -1.000000e+000 0.000000e+000
    outer loop
      vertex   -1.539815e+002 1.560000e+002 7.407408e-001
      vertex   -1.539815e+002 1.560000e+002 -2.592593e-001
      vertex   -1.439815e+002 1.560000e+002 7.407408e-001
    endloop
  endfacet
  facet normal 0.000000e+000 -1.817933e-001 -0.000000e+000
    outer loop
      vertex   -1.439815e+002 1.560000e+002 7.407408e-001
      vertex   -1.539815e+002 1.560000e+002 -2.592593e-001
      vertex   -1.319815e+002 1.560000e+002 -2.592593e-001
    endloop
  endfacet
  facet normal -1.000000e+000 0.000000e+000 0.000000e+000
    outer loop
      vertex   -1.339815e+002 1.560000e+002 5.740741e+000
      vertex   -1.339815e+002 1.560000e+002 7.740741e+000
      vertex   -1.339815e+002 1.640000e+002 5.740741e+000
    endloop
  endfacet
  facet normal -8.574929e-001 0.000000e+000 0.000000e+000
    outer loop
      vertex   -1.339815e+002 1.640000e+002 5.740741e+000
      vertex   -1.339815e+002 1.560000e+002 7.740741e+000
      vertex   -1.339815e+002 1.660000e+002 7.740741e+000
    endloop
  endfacet
  facet normal -7.071068e-001 0.000000e+000 0.000000e+000
    outer loop
      vertex   -1.339815e+002 1.640000e+002 5.740741e+000
      vertex   -1.339815e+002 1.660000e+002 7.740741e+000
      vertex   -1.339815e+002 1.660000e+002 5.740741e+000
    endloop
  endfacet
  facet normal -7.071068e-001 0.000000e+000 0.000000e+000
    outer loop
      vertex   -1.339815e+002 1.640000e+002 5.740741e+000
      vertex   -1.339815e+002 1.660000e+002 5.740741e+000
      vertex   -1.339815e+002 1.660000e+002 3.740741e+000
    endloop
  endfacet
  facet normal -7.071068e-001 0.000000e+000 0.000000e+000
    outer loop
      vertex   -1.339815e+002 1.660000e+002 3.740741e+000
      vertex   -1.339815e+002 1.660000e+002 5.740741e+000
      vertex   -1.339815e+002 1.680000e+002 5.740741e+000
    endloop
  endfacet
  facet normal -1.000000e+000 0.000000e+000 0.000000e+000
    outer loop
      vertex   -1.339815e+002 1.660000e+002 3.740741e+000
      vertex   -1.339815e+002 1.680000e+002 5.740741e+000
      vertex   -1.339815e+002 1.680000e+002 1.740741e+000
    endloop
  endfacet
  facet normal -7.071068e-001 0.000000e+000 0.000000e+000
    outer loop
      vertex   -1.339815e+002 1.680000e+002 1.740741e+000
      vertex   -1.339815e+002 1.660000e+002 1.740741e+000
      vertex   -1.339815e+002 1.660000e+002 3.740741e+000
    endloop
  endfacet
  facet normal -7.071068e-001 0.000000e+000 0.000000e+000
    outer loop
      vertex   -1.339815e+002 1.660000e+002 3.740741e+000
      vertex   -1.339815e+002 1.640000e+002 3.740741e+000
      vertex   -1.339815e+002 1.640000e+002 5.740741e+000
    endloop
  endfacet
  facet normal 0.000000e+000 1.000000e+000 0.000000e+000
    outer loop
      vertex   -1.319815e+002 1.680000e+002 5.740741e+000
      vertex   -1.319815e+002 1.680000e+002 1.740741e+000
      vertex   -1.339815e+002 1.680000e+002 5.740741e+000
    endloop
  endfacet
  facet normal 0.000000e+000 4.472136e-001 0.000000e+000
    outer loop
      vertex   -1.339815e+002 1.680000e+002 5.740741e+000
      vertex   -1.319815e+002 1.680000e+002 1.740741e+000
      vertex   -1.339815e+002 1.680000e+002 1.740741e+000
    endloop
  endfacet
  facet normal 1.000000e+000 0.000000e+000 0.000000e+000
    outer loop
      vertex   -1.319815e+002 1.660000e+002 7.740741e+000
      vertex   -1.319815e+002 1.560000e+002 7.740741e+000
      vertex   -1.319815e+002 1.660000e+002 5.740741e+000
    endloop
  endfacet
  facet normal 6.726728e-001 0.000000e+000 0.000000e+000
    outer loop
      vertex   -1.319815e+002 1.660000e+002 5.740741e+000
      vertex   -1.319815e+002 1.560000e+002 7.740741e+000
      vertex   -1.319815e+002 1.560000e+002 -2.592593e-001
    endloop
  endfacet
  facet normal 9.970545e-001 0.000000e+000 0.000000e+000
    outer loop
      vertex   -1.319815e+002 1.660000e+002 5.740741e+000
      vertex   -1.319815e+002 1.560000e+002 -2.592593e-001
      vertex   -1.319815e+002 1.680000e+002 1.740741e+000
    endloop
  endfacet
  facet normal 2.854766e-001 0.000000e+000 0.000000e+000
    outer loop
      vertex   -1.319815e+002 1.680000e+002 1.740741e+000
      vertex   -1.319815e+002 1.560000e+002 -2.592593e-001
      vertex   -1.319815e+002 1.760000e+002 7.407408e-001
    endloop
  endfacet
  facet normal 1.240347e-001 -0.000000e+000 0.000000e+000
    outer loop
      vertex   -1.319815e+002 1.680000e+002 1.740741e+000
      vertex   -1.319815e+002 1.760000e+002 7.407408e-001
      vertex   -1.319815e+002 1.760000e+002 1.740741e+000
    endloop
  endfacet
  facet normal 4.993762e-002 0.000000e+000 0.000000e+000
    outer loop
      vertex   -1.319815e+002 1.560000e+002 -2.592593e-001
      vertex   -1.319815e+002 1.880000e+002 -2.592593e-001
      vertex   -1.319815e+002 1.760000e+002 7.407408e-001
    endloop
  endfacet
  facet normal 8.304548e-002 -0.000000e+000 0.000000e+000
    outer loop
      vertex   -1.319815e+002 1.760000e+002 7.407408e-001
      vertex   -1.319815e+002 1.880000e+002 -2.592593e-001
      vertex   -1.319815e+002 1.880000e+002 7.407408e-001
    endloop
  endfacet
  facet normal 4.472136e-001 0.000000e+000 -0.000000e+000
    outer loop
      vertex   -1.319815e+002 1.680000e+002 1.740741e+000
      vertex   -1.319815e+002 1.680000e+002 5.740741e+000
      vertex   -1.319815e+002 1.660000e+002 5.740741e+000
    endloop
  endfacet
  facet normal 0.000000e+000 0.000000e+000 1.000000e+000
    outer loop
      vertex   -1.319815e+002 1.660000e+002 7.740741e+000
      vertex   -1.339815e+002 1.660000e+002 7.740741e+000
      vertex   -1.319815e+002 1.560000e+002 7.740741e+000
    endloop
  endfacet
  facet normal 0.000000e+000 0.000000e+000 9.805807e-001
    outer loop
      vertex   -1.319815e+002 1.560000e+002 7.740741e+000
      vertex   -1.339815e+002 1.660000e+002 7.740741e+000
      vertex   -1.339815e+002 1.560000e+002 7.740741e+000
    endloop
  endfacet
  facet normal 0.000000e+000 1.000000e+000 0.000000e+000
    outer loop
      vertex   -1.319815e+002 1.660000e+002 7.740741e+000
      vertex   -1.319815e+002 1.660000e+002 5.740741e+000
      vertex   -1.339815e+002 1.660000e+002 7.740741e+000
    endloop
  endfacet
  facet normal 0.000000e+000 7.071068e-001 0.000000e+000
    outer loop
      vertex   -1.339815e+002 1.660000e+002 7.740741e+000
      vertex   -1.319815e+002 1.660000e+002 5.740741e+000
      vertex   -1.339815e+002 1.660000e+002 5.740741e+000
    endloop
  endfacet
  facet normal 0.000000e+000 -1.000000e+000 0.000000e+000
    outer loop
      vertex   -1.440000e+002 1.730000e+002 3.000000e+000
      vertex   -1.440000e+002 1.730000e+002 4.000000e+000
      vertex   -1.450000e+002 1.730000e+002 3.000000e+000
    endloop
  endfacet
  facet normal 0.000000e+000 -7.071068e-001 0.000000e+000
    outer loop
      vertex   -1.450000e+002 1.730000e+002 3.000000e+000
      vertex   -1.440000e+002 1.730000e+002 4.000000e+000
      vertex   -1.450000e+002 1.730000e+002 4.000000e+000
    endloop
  endfacet
  facet normal -0.000000e+000 0.000000e+000 1.000000e+000
    outer loop
      vertex   -1.450000e+002 1.740000e+002 4.000000e+000
      vertex   -1.450000e+002 1.730000e+002 4.000000e+000
      vertex   -1.440000e+002 1.740000e+002 4.000000e+000
    endloop
  endfacet
  facet normal 0.000000e+000 0.000000e+000 7.071068e-001
    outer loop
      vertex   -1.440000e+002 1.740000e+002 4.000000e+000
      vertex   -1.450000e+002 1.730000e+002 4.000000e+000
      vertex   -1.440000e+002 1.730000e+002 4.000000e+000
    endloop
  endfacet
  facet normal -0.000000e+000 -0.000000e+000 -1.000000e+000
    outer loop
      vertex   -1.440000e+002 1.740000e+002 1.000000e+000
      vertex   -1.440000e+002 1.730000e+002 1.000000e+000
      vertex   -1.450000e+002 1.740000e+002 1.000000e+000
    endloop
  endfacet
  facet normal 0.000000e+000 0.000000e+000 -7.071068e-001
    outer loop
      vertex   -1.450000e+002 1.740000e+002 1.000000e+000
      vertex   -1.440000e+002 1.730000e+002 1.000000e+000
      vertex   -1.450000e+002 1.730000e+002 1.000000e+000
    endloop
  endfacet
  facet normal 0.000000e+000 -1.000000e+000 0.000000e+000
    outer loop
      vertex   -1.450000e+002 1.730000e+002 2.000000e+000
      vertex   -1.450000e+002 1.730000e+002 1.000000e+000
      vertex   -1.440000e+002 1.730000e+002 2.000000e+000
    endloop
  endfacet
  facet normal 0.000000e+000 -7.071068e-001 -0.000000e+000
    outer loop
      vertex   -1.440000e+002 1.730000e+002 2.000000e+000
      vertex   -1.450000e+002 1.730000e+002 1.000000e+000
      vertex   -1.440000e+002 1.730000e+002 1.000000e+000
    endloop
  endfacet
  facet normal -1.000000e+000 0.000000e+000 0.000000e+000
    outer loop
      vertex   -1.450000e+002 1.730000e+002 4.000000e+000
      vertex   -1.450000e+002 1.740000e+002 4.000000e+000
      vertex   -1.450000e+002 1.730000e+002 3.000000e+000
    endloop
  endfacet
  facet normal -9.486833e-001 0.000000e+000 0.000000e+000
    outer loop
      vertex   -1.450000e+002 1.730000e+002 3.000000e+000
      vertex   -1.450000e+002 1.740000e+002 4.000000e+000
      vertex   -1.450000e+002 1.740000e+002 1.000000e+000
    endloop
  endfacet
  facet normal -4.472136e-001 0.000000e+000 0.000000e+000
    outer loop
      vertex   -1.450000e+002 1.730000e+002 3.000000e+000
      vertex   -1.450000e+002 1.740000e+002 1.000000e+000
      vertex   -1.450000e+002 1.730000e+002 2.000000e+000
    endloop
  endfacet
  facet normal -7.071068e-001 0.000000e+000 0.000000e+000
    outer loop
      vertex   -1.450000e+002 1.730000e+002 2.000000e+000
      vertex   -1.450000e+002 1.740000e+002 1.000000e+000
      vertex   -1.450000e+002 1.730000e+002 1.000000e+000
    endloop
  endfacet
  facet normal 0.000000e+000 1.000000e+000 0.000000e+000
    outer loop
      vertex   -1.440000e+002 1.740000e+002 4.000000e+000
      vertex   -1.440000e+002 1.740000e+002 1.000000e+000
      vertex   -1.450000e+002 1.740000e+002 4.000000e+000
    endloop
  endfacet
  facet normal 0.000000e+000 3.162278e-001 0.000000e+000
    outer loop
      vertex   -1.450000e+002 1.740000e+002 4.000000e+000
      vertex   -1.440000e+002 1.740000e+002 1.000000e+000
      vertex   -1.450000e+002 1.740000e+002 1.000000e+000
    endloop
  endfacet
  facet normal 0.000000e+000 1.000000e+000 0.000000e+000
    outer loop
      vertex   -1.440000e+002 1.710000e+002 2.000000e+000
      vertex   -1.440000e+002 1.710000e+002 1.000000e+000
      vertex   -1.450000e+002 1.710000e+002 2.000000e+000
    endloop
  endfacet
  facet normal 0.000000e+000 7.071068e-001 0.000000e+000
    outer loop
      vertex   -1.450000e+002 1.710000e+002 2.000000e+000
      vertex   -1.440000e+002 1.710000e+002 1.000000e+000
      vertex   -1.450000e+002 1.710000e+002 1.000000e+000
    endloop
  endfacet
  facet normal 0.000000e+000 1.000000e+000 0.000000e+000
    outer loop
      vertex   -1.450000e+002 1.710000e+002 3.000000e+000
      vertex   -1.450000e+002 1.710000e+002 4.000000e+000
      vertex   -1.440000e+002 1.710000e+002 3.000000e+000
    endloop
  endfacet
  facet normal 0.000000e+000 7.071068e-001 -0.000000e+000
    outer loop
      vertex   -1.440000e+002 1.710000e+002 3.000000e+000
      vertex   -1.450000e+002 1.710000e+002 4.000000e+000
      vertex   -1.440000e+002 1.710000e+002 4.000000e+000
    endloop
  endfacet
  facet normal -0.000000e+000 0.000000e+000 1.000000e+000
    outer loop
      vertex   -1.450000e+002 1.710000e+002 4.000000e+000
      vertex   -1.450000e+002 1.700000e+002 4.000000e+000
      vertex   -1.440000e+002 1.710000e+002 4.000000e+000
    endloop
  endfacet
  facet normal 0.000000e+000 0.000000e+000 7.071068e-001
    outer loop
      vertex   -1.440000e+002 1.710000e+002 4.000000e+000
      vertex   -1.450000e+002 1.700000e+002 4.000000e+000
      vertex   -1.440000e+002 1.700000e+002 4.000000e+000
    endloop
  endfacet
  facet normal -0.000000e+000 -0.000000e+000 -1.000000e+000
    outer loop
      vertex   -1.440000e+002 1.710000e+002 1.000000e+000
      vertex   -1.440000e+002 1.700000e+002 1.000000e+000
      vertex   -1.450000e+002 1.710000e+002 1.000000e+000
    endloop
  endfacet
  facet normal 0.000000e+000 0.000000e+000 -7.071068e-001
    outer loop
      vertex   -1.450000e+002 1.710000e+002 1.000000e+000
      vertex   -1.440000e+002 1.700000e+002 1.000000e+000
      vertex   -1.450000e+002 1.700000e+002 1.000000e+000
    endloop
  endfacet
  facet normal 0.000000e+000 -1.000000e+000 0.000000e+000
    outer loop
      vertex   -1.450000e+002 1.700000e+002 4.000000e+000
      vertex   -1.450000e+002 1.700000e+002 1.000000e+000
      vertex   -1.440000e+002 1.700000e+002 4.000000e+000
    endloop
  endfacet
  facet normal 0.000000e+000 -3.162278e-001 -0.000000e+000
    outer loop
      vertex   -1.440000e+002 1.700000e+002 4.000000e+000
      vertex   -1.450000e+002 1.700000e+002 1.000000e+000
      vertex   -1.440000e+002 1.700000e+002 1.000000e+000
    endloop
  endfacet
  facet normal -1.000000e+000 -0.000000e+000 -0.000000e+000
    outer loop
      vertex   -1.450000e+002 1.710000e+002 4.000000e+000
      vertex   -1.450000e+002 1.710000e+002 3.000000e+000
      vertex   -1.450000e+002 1.700000e+002 4.000000e+000
    endloop
  endfacet
  facet normal -3.162278e-001 0.000000e+000 0.000000e+000
    outer loop
      vertex   -1.450000e+002 1.700000e+002 4.000000e+000
      vertex   -1.450000e+002 1.710000e+002 3.000000e+000
      vertex   -1.450000e+002 1.710000e+002 2.000000e+000
    endloop
  endfacet
  facet normal -4.472136e-001 0.000000e+000 0.000000e+000
    outer loop
      vertex   -1.450000e+002 1.700000e+002 4.000000e+000
      vertex   -1.450000e+002 1.710000e+002 2.000000e+000
      vertex   -1.450000e+002 1.700000e+002 1.000000e+000
    endloop
  endfacet
  facet normal -7.071068e-001 0.000000e+000 0.000000e+000
    outer loop
      vertex   -1.450000e+002 1.700000e+002 1.000000e+000
      vertex   -1.450000e+002 1.710000e+002 2.000000e+000
      vertex   -1.450000e+002 1.710000e+002 1.000000e+000
    endloop
  endfacet
  facet normal 0.000000e+000 -1.000000e+000 0.000000e+000
    outer loop
      vertex   -1.480000e+002 1.730000e+002 2.000000e+000
      vertex   -1.480000e+002 1.730000e+002 1.000000e+000
      vertex   -1.470000e+002 1.730000e+002 2.000000e+000
    endloop
  endfacet
  facet normal 0.000000e+000 -7.071068e-001 -0.000000e+000
    outer loop
      vertex   -1.470000e+002 1.730000e+002 2.000000e+000
      vertex   -1.480000e+002 1.730000e+002 1.000000e+000
      vertex   -1.470000e+002 1.730000e+002 1.000000e+000
    endloop
  endfacet
  facet normal -0.000000e+000 0.000000e+000 1.000000e+000
    outer loop
      vertex   -1.480000e+002 1.740000e+002 4.000000e+000
      vertex   -1.480000e+002 1.730000e+002 4.000000e+000
      vertex   -1.470000e+002 1.740000e+002 4.000000e+000
    endloop
  endfacet
  facet normal 0.000000e+000 0.000000e+000 7.071068e-001
    outer loop
      vertex   -1.470000e+002 1.740000e+002 4.000000e+000
      vertex   -1.480000e+002 1.730000e+002 4.000000e+000
      vertex   -1.470000e+002 1.730000e+002 4.000000e+000
    endloop
  endfacet
  facet normal -0.000000e+000 -0.000000e+000 -1.000000e+000
    outer loop
      vertex   -1.470000e+002 1.740000e+002 1.000000e+000
      vertex   -1.470000e+002 1.730000e+002 1.000000e+000
      vertex   -1.480000e+002 1.740000e+002 1.000000e+000
    endloop
  endfacet
  facet normal 0.000000e+000 0.000000e+000 -7.071068e-001
    outer loop
      vertex   -1.480000e+002 1.740000e+002 1.000000e+000
      vertex   -1.470000e+002 1.730000e+002 1.000000e+000
      vertex   -1.480000e+002 1.730000e+002 1.000000e+000
    endloop
  endfacet
  facet normal 1.000000e+000 -0.000000e+000 0.000000e+000
    outer loop
      vertex   -1.470000e+002 1.730000e+002 4.000000e+000
      vertex   -1.470000e+002 1.730000e+002 3.000000e+000
      vertex   -1.470000e+002 1.740000e+002 4.000000e+000
    endloop
  endfacet
  facet normal 3.162278e-001 0.000000e+000 0.000000e+000
    outer loop
      vertex   -1.470000e+002 1.740000e+002 4.000000e+000
      vertex   -1.470000e+002 1.730000e+002 3.000000e+000
      vertex   -1.470000e+002 1.730000e+002 2.000000e+000
    endloop
  endfacet
  facet normal 4.472136e-001 0.000000e+000 0.000000e+000
    outer loop
      vertex   -1.470000e+002 1.740000e+002 4.000000e+000
      vertex   -1.470000e+002 1.730000e+002 2.000000e+000
      vertex   -1.470000e+002 1.740000e+002 1.000000e+000
    endloop
  endfacet
  facet normal 7.071068e-001 0.000000e+000 0.000000e+000
    outer loop
      vertex   -1.470000e+002 1.740000e+002 1.000000e+000
      vertex   -1.470000e+002 1.730000e+002 2.000000e+000
      vertex   -1.470000e+002 1.730000e+002 1.000000e+000
    endloop
  endfacet
  facet normal 0.000000e+000 -1.000000e+000 0.000000e+000
    outer loop
      vertex   -1.470000e+002 1.730000e+002 3.000000e+000
      vertex   -1.470000e+002 1.730000e+002 4.000000e+000
      vertex   -1.480000e+002 1.730000e+002 3.000000e+000
    endloop
  endfacet
  facet normal 0.000000e+000 -7.071068e-001 0.000000e+000
    outer loop
      vertex   -1.480000e+002 1.730000e+002 3.000000e+000
      vertex   -1.470000e+002 1.730000e+002 4.000000e+000
      vertex   -1.480000e+002 1.730000e+002 4.000000e+000
    endloop
  endfacet
  facet normal 0.000000e+000 1.000000e+000 0.000000e+000
    outer loop
      vertex   -1.470000e+002 1.740000e+002 4.000000e+000
      vertex   -1.470000e+002 1.740000e+002 1.000000e+000
      vertex   -1.480000e+002 1.740000e+002 4.000000e+000
    endloop
  endfacet
  facet normal 0.000000e+000 3.162278e-001 0.000000e+000
    outer loop
      vertex   -1.480000e+002 1.740000e+002 4.000000e+000
      vertex   -1.470000e+002 1.740000e+002 1.000000e+000
      vertex   -1.480000e+002 1.740000e+002 1.000000e+000
    endloop
  endfacet
  facet normal 0.000000e+000 1.000000e+000 0.000000e+000
    outer loop
      vertex   -1.470000e+002 1.710000e+002 2.000000e+000
      vertex   -1.470000e+002 1.710000e+002 1.000000e+000
      vertex   -1.480000e+002 1.710000e+002 2.000000e+000
    endloop
  endfacet
  facet normal 0.000000e+000 7.071068e-001 0.000000e+000
    outer loop
      vertex   -1.480000e+002 1.710000e+002 2.000000e+000
      vertex   -1.470000e+002 1.710000e+002 1.000000e+000
      vertex   -1.480000e+002 1.710000e+002 1.000000e+000
    endloop
  endfacet
  facet normal 0.000000e+000 1.000000e+000 0.000000e+000
    outer loop
      vertex   -1.480000e+002 1.710000e+002 3.000000e+000
      vertex   -1.480000e+002 1.710000e+002 4.000000e+000
      vertex   -1.470000e+002 1.710000e+002 3.000000e+000
    endloop
  endfacet
  facet normal 0.000000e+000 7.071068e-001 -0.000000e+000
    outer loop
      vertex   -1.470000e+002 1.710000e+002 3.000000e+000
      vertex   -1.480000e+002 1.710000e+002 4.000000e+000
      vertex   -1.470000e+002 1.710000e+002 4.000000e+000
    endloop
  endfacet
  facet normal -0.000000e+000 0.000000e+000 1.000000e+000
    outer loop
      vertex   -1.480000e+002 1.710000e+002 4.000000e+000
      vertex   -1.480000e+002 1.700000e+002 4.000000e+000
      vertex   -1.470000e+002 1.710000e+002 4.000000e+000
    endloop
  endfacet
  facet normal 0.000000e+000 0.000000e+000 7.071068e-001
    outer loop
      vertex   -1.470000e+002 1.710000e+002 4.000000e+000
      vertex   -1.480000e+002 1.700000e+002 4.000000e+000
      vertex   -1.470000e+002 1.700000e+002 4.000000e+000
    endloop
  endfacet
  facet normal -0.000000e+000 -0.000000e+000 -1.000000e+000
    outer loop
      vertex   -1.470000e+002 1.710000e+002 1.000000e+000
      vertex   -1.470000e+002 1.700000e+002 1.000000e+000
      vertex   -1.480000e+002 1.710000e+002 1.000000e+000
    endloop
  endfacet
  facet normal 0.000000e+000 0.000000e+000 -7.071068e-001
    outer loop
      vertex   -1.480000e+002 1.710000e+002 1.000000e+000
      vertex   -1.470000e+002 1.700000e+002 1.000000e+000
      vertex   -1.480000e+002 1.700000e+002 1.000000e+000
    endloop
  endfacet
  facet normal 1.000000e+000 0.000000e+000 0.000000e+000
    outer loop
      vertex   -1.470000e+002 1.710000e+002 4.000000e+000
      vertex   -1.470000e+002 1.700000e+002 4.000000e+000
      vertex   -1.470000e+002 1.710000e+002 3.000000e+000
    endloop
  endfacet
  facet normal 9.486833e-001 0.000000e+000 0.000000e+000
    outer loop
      vertex   -1.470000e+002 1.710000e+002 3.000000e+000
      vertex   -1.470000e+002 1.700000e+002 4.000000e+000
      vertex   -1.470000e+002 1.700000e+002 1.000000e+000
    endloop
  endfacet
  facet normal 4.472136e-001 0.000000e+000 0.000000e+000
    outer loop
      vertex   -1.470000e+002 1.710000e+002 3.000000e+000
      vertex   -1.470000e+002 1.700000e+002 1.000000e+000
      vertex   -1.470000e+002 1.710000e+002 2.000000e+000
    endloop
  endfacet
  facet normal 7.071068e-001 0.000000e+000 0.000000e+000
    outer loop
      vertex   -1.470000e+002 1.710000e+002 2.000000e+000
      vertex   -1.470000e+002 1.700000e+002 1.000000e+000
      vertex   -1.470000e+002 1.710000e+002 1.000000e+000
    endloop
  endfacet
  facet normal 0.000000e+000 -1.000000e+000 0.000000e+000
    outer loop
      vertex   -1.480000e+002 1.700000e+002 4.000000e+000
      vertex   -1.480000e+002 1.700000e+002 1.000000e+000
      vertex   -1.470000e+002 1.700000e+002 4.000000e+000
    endloop
  endfacet
  facet normal 0.000000e+000 -3.162278e-001 -0.000000e+000
    outer loop
      vertex   -1.470000e+002 1.700000e+002 4.000000e+000
      vertex   -1.480000e+002 1.700000e+002 1.000000e+000
      vertex   -1.470000e+002 1.700000e+002 1.000000e+000
    endloop
  endfacet
  facet normal -1.000000e+000 -0.000000e+000 -0.000000e+000
    outer loop
      vertex   -1.480000e+002 1.710000e+002 4.000000e+000
      vertex   -1.480000e+002 1.710000e+002 3.000000e+000
      vertex   -1.480000e+002 1.700000e+002 4.000000e+000
    endloop
  endfacet
  facet normal -3.162278e-001 0.000000e+000 0.000000e+000
    outer loop
      vertex   -1.480000e+002 1.700000e+002 4.000000e+000
      vertex   -1.480000e+002 1.710000e+002 3.000000e+000
      vertex   -1.480000e+002 1.710000e+002 2.000000e+000
    endloop
  endfacet
  facet normal -4.472136e-001 0.000000e+000 0.000000e+000
    outer loop
      vertex   -1.480000e+002 1.700000e+002 4.000000e+000
      vertex   -1.480000e+002 1.710000e+002 2.000000e+000
      vertex   -1.480000e+002 1.700000e+002 1.000000e+000
    endloop
  endfacet
  facet normal -7.071068e-001 0.000000e+000 0.000000e+000
    outer loop
      vertex   -1.480000e+002 1.700000e+002 1.000000e+000
      vertex   -1.480000e+002 1.710000e+002 2.000000e+000
      vertex   -1.480000e+002 1.710000e+002 1.000000e+000
    endloop
  endfacet
  facet normal -1.000000e+000 0.000000e+000 0.000000e+000
    outer loop
      vertex   -1.480000e+002 1.710000e+002 2.000000e+000
      vertex   -1.480000e+002 1.710000e+002 3.000000e+000
      vertex   -1.480000e+002 1.730000e+002 2.000000e+000
    endloop
  endfacet
  facet normal -8.944272e-001 0.000000e+000 0.000000e+000
    outer loop
      vertex   -1.480000e+002 1.730000e+002 2.000000e+000
      vertex   -1.480000e+002 1.710000e+002 3.000000e+000
      vertex   -1.480000e+002 1.730000e+002 3.000000e+000
    endloop
  endfacet
  facet normal -7.071068e-001 0.000000e+000 0.000000e+000
    outer loop
      vertex   -1.480000e+002 1.730000e+002 2.000000e+000
      vertex   -1.480000e+002 1.730000e+002 3.000000e+000
      vertex   -1.480000e+002 1.740000e+002 1.000000e+000
    endloop
  endfacet
  facet normal -4.472136e-001 0.000000e+000 0.000000e+000
    outer loop
      vertex   -1.480000e+002 1.740000e+002 1.000000e+000
      vertex   -1.480000e+002 1.730000e+002 3.000000e+000
      vertex   -1.480000e+002 1.740000e+002 4.000000e+000
    endloop
  endfacet
  facet normal -7.071068e-001 -0.000000e+000 0.000000e+000
    outer loop
      vertex   -1.480000e+002 1.740000e+002 4.000000e+000
      vertex   -1.480000e+002 1.730000e+002 3.000000e+000
      vertex   -1.480000e+002 1.730000e+002 4.000000e+000
    endloop
  endfacet
  facet normal -7.071068e-001 0.000000e+000 0.000000e+000
    outer loop
      vertex   -1.480000e+002 1.740000e+002 1.000000e+000
      vertex   -1.480000e+002 1.730000e+002 1.000000e+000
      vertex   -1.480000e+002 1.730000e+002 2.000000e+000
    endloop
  endfacet
  facet normal 0.000000e+000 -0.000000e+000 1.000000e+000
    outer loop
      vertex   -1.440000e+002 1.710000e+002 3.000000e+000
      vertex   -1.440000e+002 1.730000e+002 3.000000e+000
      vertex   -1.450000e+002 1.710000e+002 3.000000e+000
    endloop
  endfacet
  facet normal 0.000000e+000 0.000000e+000 4.472136e-001
    outer loop
      vertex   -1.450000e+002 1.710000e+002 3.000000e+000
      vertex   -1.440000e+002 1.730000e+002 3.000000e+000
      vertex   -1.450000e+002 1.730000e+002 3.000000e+000
    endloop
  endfacet
  facet normal 0.000000e+000 -0.000000e+000 1.000000e+000
    outer loop
      vertex   -1.450000e+002 1.710000e+002 3.000000e+000
      vertex   -1.450000e+002 1.730000e+002 3.000000e+000
      vertex   -1.470000e+002 1.710000e+002 3.000000e+000
    endloop
  endfacet
  facet normal 0.000000e+000 0.000000e+000 7.071068e-001
    outer loop
      vertex   -1.470000e+002 1.710000e+002 3.000000e+000
      vertex   -1.450000e+002 1.730000e+002 3.000000e+000
      vertex   -1.470000e+002 1.730000e+002 3.000000e+000
    endloop
  endfacet
  facet normal 0.000000e+000 -0.000000e+000 1.000000e+000
    outer loop
      vertex   -1.470000e+002 1.710000e+002 3.000000e+000
      vertex   -1.470000e+002 1.730000e+002 3.000000e+000
      vertex   -1.480000e+002 1.710000e+002 3.000000e+000
    endloop
  endfacet
  facet normal 0.000000e+000 0.000000e+000 4.472136e-001
    outer loop
      vertex   -1.480000e+002 1.710000e+002 3.000000e+000
      vertex   -1.470000e+002 1.730000e+002 3.000000e+000
      vertex   -1.480000e+002 1.730000e+002 3.000000e+000
    endloop
  endfacet
  facet normal 0.000000e+000 0.000000e+000 -1.000000e+000
    outer loop
      vertex   -1.480000e+002 1.710000e+002 2.000000e+000
      vertex   -1.480000e+002 1.730000e+002 2.000000e+000
      vertex   -1.470000e+002 1.710000e+002 2.000000e+000
    endloop
  endfacet
  facet normal 0.000000e+000 0.000000e+000 -4.472136e-001
    outer loop
      vertex   -1.470000e+002 1.710000e+002 2.000000e+000
      vertex   -1.480000e+002 1.730000e+002 2.000000e+000
      vertex   -1.470000e+002 1.730000e+002 2.000000e+000
    endloop
  endfacet
  facet normal 0.000000e+000 0.000000e+000 -1.000000e+000
    outer loop
      vertex   -1.470000e+002 1.710000e+002 2.000000e+000
      vertex   -1.470000e+002 1.730000e+002 2.000000e+000
      vertex   -1.450000e+002 1.710000e+002 2.000000e+000
    endloop
  endfacet
  facet normal 0.000000e+000 0.000000e+000 -7.071068e-001
    outer loop
      vertex   -1.450000e+002 1.710000e+002 2.000000e+000
      vertex   -1.470000e+002 1.730000e+002 2.000000e+000
      vertex   -1.450000e+002 1.730000e+002 2.000000e+000
    endloop
  endfacet
  facet normal 0.000000e+000 0.000000e+000 -1.000000e+000
    outer loop
      vertex   -1.450000e+002 1.710000e+002 2.000000e+000
      vertex   -1.450000e+002 1.730000e+002 2.000000e+000
      vertex   -1.440000e+002 1.710000e+002 2.000000e+000
    endloop
  endfacet
  facet normal 0.000000e+000 0.000000e+000 -4.472136e-001
    outer loop
      vertex   -1.440000e+002 1.710000e+002 2.000000e+000
      vertex   -1.450000e+002 1.730000e+002 2.000000e+000
      vertex   -1.440000e+002 1.730000e+002 2.000000e+000
    endloop
  endfacet
  facet normal 1.000000e+000 0.000000e+000 -0.000000e+000
    outer loop
      vertex   -1.440000e+002 1.730000e+002 2.000000e+000
      vertex   -1.440000e+002 1.730000e+002 3.000000e+000
      vertex   -1.440000e+002 1.710000e+002 2.000000e+000
    endloop
  endfacet
  facet normal 8.944272e-001 0.000000e+000 0.000000e+000
    outer loop
      vertex   -1.440000e+002 1.710000e+002 2.000000e+000
      vertex   -1.440000e+002 1.730000e+002 3.000000e+000
      vertex   -1.440000e+002 1.710000e+002 3.000000e+000
    endloop
  endfacet
  facet normal 7.071068e-001 0.000000e+000 -0.000000e+000
    outer loop
      vertex   -1.440000e+002 1.710000e+002 2.000000e+000
      vertex   -1.440000e+002 1.710000e+002 3.000000e+000
      vertex   -1.440000e+002 1.700000e+002 1.000000e+000
    endloop
  endfacet
  facet normal 4.472136e-001 0.000000e+000 0.000000e+000
    outer loop
      vertex   -1.440000e+002 1.700000e+002 1.000000e+000
      vertex   -1.440000e+002 1.710000e+002 3.000000e+000
      vertex   -1.440000e+002 1.700000e+002 4.000000e+000
    endloop
  endfacet
  facet normal 7.071068e-001 -0.000000e+000 0.000000e+000
    outer loop
      vertex   -1.440000e+002 1.700000e+002 4.000000e+000
      vertex   -1.440000e+002 1.710000e+002 3.000000e+000
      vertex   -1.440000e+002 1.710000e+002 4.000000e+000
    endloop
  endfacet
  facet normal 1.000000e+000 0.000000e+000 0.000000e+000
    outer loop
      vertex   -1.440000e+002 1.730000e+002 1.000000e+000
      vertex   -1.440000e+002 1.740000e+002 1.000000e+000
      vertex   -1.440000e+002 1.730000e+002 2.000000e+000
    endloop
  endfacet
  facet normal 9.486833e-001 -0.000000e+000 0.000000e+000
    outer loop
      vertex   -1.440000e+002 1.730000e+002 2.000000e+000
      vertex   -1.440000e+002 1.740000e+002 1.000000e+000
      vertex   -1.440000e+002 1.740000e+002 4.000000e+000
    endloop
  endfacet
  facet normal 4.472136e-001 0.000000e+000 0.000000e+000
    outer loop
      vertex   -1.440000e+002 1.730000e+002 2.000000e+000
      vertex   -1.440000e+002 1.740000e+002 4.000000e+000
      vertex   -1.440000e+002 1.730000e+002 3.000000e+000
    endloop
  endfacet
  facet normal 7.071068e-001 0.000000e+000 0.000000e+000
    outer loop
      vertex   -1.440000e+002 1.730000e+002 3.000000e+000
      vertex   -1.440000e+002 1.740000e+002 4.000000e+000
      vertex   -1.440000e+002 1.730000e+002 4.000000e+000
    endloop
  endfacet
  facet normal 7.071068e-001 0.000000e+000 0.000000e+000
    outer loop
      vertex   -1.440000e+002 1.700000e+002 1.000000e+000
      vertex   -1.440000e+002 1.710000e+002 1.000000e+000
      vertex   -1.440000e+002 1.710000e+002 2.000000e+000
    endloop
  endfacet
  facet normal 0.000000e+000 -1.000000e+000 0.000000e+000
    outer loop
      vertex   -1.450000e+002 1.710000e+002 2.000000e+000
      vertex   -1.450000e+002 1.710000e+002 3.000000e+000
      vertex   -1.470000e+002 1.710000e+002 2.000000e+000
    endloop
  endfacet
  facet normal 0.000000e+000 -8.944272e-001 0.000000e+000
    outer loop
      vertex   -1.470000e+002 1.710000e+002 2.000000e+000
      vertex   -1.450000e+002 1.710000e+002 3.000000e+000
      vertex   -1.470000e+002 1.710000e+002 3.000000e+000
    endloop
  endfacet
  facet normal 0.000000e+000 1.000000e+000 0.000000e+000
    outer loop
      vertex   -1.450000e+002 1.730000e+002 3.000000e+000
      vertex   -1.450000e+002 1.730000e+002 2.000000e+000
      vertex   -1.470000e+002 1.730000e+002 3.000000e+000
    endloop
  endfacet
  facet normal 0.000000e+000 8.944272e-001 0.000000e+000
    outer loop
      vertex   -1.470000e+002 1.730000e+002 3.000000e+000
      vertex   -1.450000e+002 1.730000e+002 2.000000e+000
      vertex   -1.470000e+002 1.730000e+002 2.000000e+000
    endloop
  endfacet
endsolid
